  0
SECTION
  2
HEADER
  9
$ACADVER
  1
AC1012
  9
$DWGCODEPAGE
  3
undefined
  9
$INSBASE
 10
0.0
 20
0.0
 30
0.0
  9
$EXTMIN
 10
1.000000000000000E+20
 20
1.000000000000000E+20
 30
1.000000000000000E+20
  9
$EXTMAX
 10
-1.000000000000000E+20
 20
-1.000000000000000E+20
 30
-1.000000000000000E+20
  9
$LIMMIN
 10
0.0
 20
0.0
  9
$LIMMAX
 10
12.0
 20
9.0
  9
$ORTHOMODE
 70
     0
  9
$REGENMODE
 70
     1
  9
$FILLMODE
 70
     1
  9
$QTEXTMODE
 70
     0
  9
$MIRRTEXT
 70
     1
  9
$DRAGMODE
 70
     2
  9
$LTSCALE
 40
1.0
  9
$OSMODE
 70
    37
  9
$ATTMODE
 70
     1
  9
$TEXTSIZE
 40
0.2
  9
$TRACEWID
 40
0.05
  9
$TEXTSTYLE
  7
STANDARD
  9
$CLAYER
  8
0
  9
$CELTYPE
  6
BYLAYER
  9
$CECOLOR
 62
   256
  9
$CELTSCALE
 40
1.0
  9
$DELOBJ
 70
     1
  9
$DISPSILH
 70
     0
  9
$DIMSCALE
 40
1.0
  9
$DIMASZ
 40
0.18
  9
$DIMEXO
 40
0.0625
  9
$DIMDLI
 40
0.38
  9
$DIMRND
 40
0.0
  9
$DIMDLE
 40
0.0
  9
$DIMEXE
 40
0.18
  9
$DIMTP
 40
0.0
  9
$DIMTM
 40
0.0
  9
$DIMTXT
 40
0.18
  9
$DIMCEN
 40
0.09
  9
$DIMTSZ
 40
0.0
  9
$DIMTOL
 70
     0
  9
$DIMLIM
 70
     0
  9
$DIMTIH
 70
     1
  9
$DIMTOH
 70
     1
  9
$DIMSE1
 70
     0
  9
$DIMSE2
 70
     0
  9
$DIMTAD
 70
     0
  9
$DIMZIN
 70
     0
  9
$DIMBLK
  1

  9
$DIMASO
 70
     1
  9
$DIMSHO
 70
     1
  9
$DIMPOST
  1

  9
$DIMAPOST
  1

  9
$DIMALT
 70
     0
  9
$DIMALTD
 70
     2
  9
$DIMALTF
 40
25.4
  9
$DIMLFAC
 40
1.0
  9
$DIMTOFL
 70
     0
  9
$DIMTVP
 40
0.0
  9
$DIMTIX
 70
     0
  9
$DIMSOXD
 70
     0
  9
$DIMSAH
 70
     0
  9
$DIMBLK1
  1

  9
$DIMBLK2
  1

  9
$DIMSTYLE
  2
STANDARD
  9
$DIMCLRD
 70
     0
  9
$DIMCLRE
 70
     0
  9
$DIMCLRT
 70
     0
  9
$DIMTFAC
 40
1.0
  9
$DIMGAP
 40
0.09
  9
$DIMJUST
 70
     0
  9
$DIMSD1
 70
     0
  9
$DIMSD2
 70
     0
  9
$DIMTOLJ
 70
     1
  9
$DIMTZIN
 70
     0
  9
$DIMALTZ
 70
     0
  9
$DIMALTTZ
 70
     0
  9
$DIMFIT
 70
     3
  9
$DIMUPT
 70
     0
  9
$DIMUNIT
 70
     2
  9
$DIMDEC
 70
     4
  9
$DIMTDEC
 70
     4
  9
$DIMALTU
 70
     2
  9
$DIMALTTD
 70
     2
  9
$DIMTXSTY
  7
STANDARD
  9
$DIMAUNIT
 70
     0
  9
$LUNITS
 70
     2
  9
$LUPREC
 70
     4
  9
$SKETCHINC
 40
0.1
  9
$FILLETRAD
 40
0.5
  9
$AUNITS
 70
     0
  9
$AUPREC
 70
     0
  9
$MENU
  1
.
  9
$ELEVATION
 40
0.0
  9
$PELEVATION
 40
0.0
  9
$THICKNESS
 40
0.0
  9
$LIMCHECK
 70
     0
  9
$CHAMFERA
 40
0.5
  9
$CHAMFERB
 40
0.5
  9
$CHAMFERC
 40
1.0
  9
$CHAMFERD
 40
0.0
  9
$SKPOLY
 70
     0
  9
$TDCREATE
 40
2459984.475567129
  9
$TDUPDATE
 40
2459984.475567129
  9
$TDINDWG
 40
0.0000000116
  9
$TDUSRTIMER
 40
0.0000000116
  9
$USRTIMER
 70
     1
  9
$ANGBASE
 50
0.0
  9
$ANGDIR
 70
     0
  9
$PDMODE
 70
     0
  9
$PDSIZE
 40
0.0
  9
$PLINEWID
 40
0.0
  9
$COORDS
 70
     1
  9
$SPLFRAME
 70
     0
  9
$SPLINETYPE
 70
     6
  9
$SPLINESEGS
 70
     8
  9
$ATTDIA
 70
     0
  9
$ATTREQ
 70
     1
  9
$HANDLING
 70
     1
  9
$HANDSEED
  5
2AD
  9
$SURFTAB1
 70
     6
  9
$SURFTAB2
 70
     6
  9
$SURFTYPE
 70
     6
  9
$SURFU
 70
     6
  9
$SURFV
 70
     6
  9
$UCSNAME
  2

  9
$UCSORG
 10
0.0
 20
0.0
 30
0.0
  9
$UCSXDIR
 10
1.0
 20
0.0
 30
0.0
  9
$UCSYDIR
 10
0.0
 20
1.0
 30
0.0
  9
$PUCSNAME
  2

  9
$PUCSORG
 10
0.0
 20
0.0
 30
0.0
  9
$PUCSXDIR
 10
1.0
 20
0.0
 30
0.0
  9
$PUCSYDIR
 10
0.0
 20
1.0
 30
0.0
  9
$USERI1
 70
     0
  9
$USERI2
 70
     0
  9
$USERI3
 70
     0
  9
$USERI4
 70
     0
  9
$USERI5
 70
     0
  9
$USERR1
 40
0.0
  9
$USERR2
 40
0.0
  9
$USERR3
 40
0.0
  9
$USERR4
 40
0.0
  9
$USERR5
 40
0.0
  9
$WORLDVIEW
 70
     1
  9
$SHADEDGE
 70
     3
  9
$SHADEDIF
 70
    70
  9
$TILEMODE
 70
     1
  9
$MAXACTVP
 70
    64
  9
$PINSBASE
 10
0.0
 20
0.0
 30
0.0
  9
$PLIMCHECK
 70
     0
  9
$PEXTMIN
 10
1.000000000000000E+20
 20
1.000000000000000E+20
 30
1.000000000000000E+20
  9
$PEXTMAX
 10
-1.000000000000000E+20
 20
-1.000000000000000E+20
 30
-1.000000000000000E+20
  9
$PLIMMIN
 10
0.0
 20
0.0
  9
$PLIMMAX
 10
12.0
 20
9.0
  9
$UNITMODE
 70
     0
  9
$VISRETAIN
 70
     1
  9
$PLINEGEN
 70
     0
  9
$PSLTSCALE
 70
     1
  9
$TREEDEPTH
 70
  3020
  9
$PICKSTYLE
 70
     1
  9
$CMLSTYLE
  2
STANDARD
  9
$CMLJUST
 70
     0
  9
$CMLSCALE
 40
1.0
  9
$SAVEIMAGES
 70
     1
  0
ENDSEC
  0
SECTION
  2
CLASSES
  0
CLASS
  1
ACDBDICTIONARYWDFLT
  2
AcDbDictionaryWithDefault
  3
ObjectDBX Classes
 90
    32768
280
     0
281
     0
  0
CLASS
  1
VISUALSTYLE
  2
AcDbVisualStyle
  3
ObjectDBX Classes
 90
     4095
280
     0
281
     0
  0
CLASS
  1
MATERIAL
  2
AcDbMaterial
  3
ObjectDBX Classes
 90
     1153
280
     0
281
     0
  0
CLASS
  1
SUN
  2
AcDbSun
  3
SCENEOE
 90
     1024
280
     0
281
     0
  0
CLASS
  1
DICTIONARYVAR
  2
AcDbDictionaryVar
  3
ObjectDBX Classes
 90
        0
280
     0
281
     0
  0
CLASS
  1
XRECORD
  2
AcDbXrecord
  3
AutoCAD 2000
 90
    32768
280
     0
281
     0
  0
CLASS
  1
LWPOLYLINE
  2
AcDbPolyline
  3
AutoCAD 2000
 90
    32768
280
     0
281
     1
  0
CLASS
  1
HATCH
  2
AcDbHatch
  3
AutoCAD 2000
 90
    32768
280
     0
281
     1
  0
CLASS
  1
ACDBPLACEHOLDER
  2
AcDbPlaceHolder
  3
ObjectDBX Classes
 90
        0
280
     0
281
     0
  0
CLASS
  1
LAYOUT
  2
AcDbLayout
  3
ObjectDBX Classes
 90
        0
280
     0
281
     0
  0
ENDSEC
  0
SECTION
  2
TABLES
  0
TABLE
  2
VPORT
  5
8
330
0
100
AcDbSymbolTable
 70
     1
  0
VPORT
  5
29
330
8
100
AcDbSymbolTableRecord
100
AcDbViewportTableRecord
  2
*ACTIVE
 70
     0
 10
0.0
 20
0.0
 11
1.0
 21
1.0
 12
0.0
 22
0.0
 13
0.0
 23
0.0
 14
0.5
 24
0.5
 15
0.5
 25
0.5
 16
0.0
 26
0.0
 36
1.0
 17
49.99999998749409
 27
49.99999998749409
 37
0.0
 40
99.99999997498817
 41
1.0
 42
50.0
 43
0.0
 44
0.0
 50
0.0
 51
0.0
 71
     0
 72
   100
 73
     1
 74
     3
 75
     0
 76
     0
 77
     0
 78
     0
  0
ENDTAB
  0
TABLE
  2
LTYPE
  5
5
330
0
100
AcDbSymbolTable
 70
     1
  0
LTYPE
  5
14
330
5
100
AcDbSymbolTableRecord
100
AcDbLinetypeTableRecord
  2
BYBLOCK
 70
     0
  3

 72
    65
 73
     0
 40
0.0
  0
LTYPE
  5
15
330
5
100
AcDbSymbolTableRecord
100
AcDbLinetypeTableRecord
  2
BYLAYER
 70
     0
  3

 72
    65
 73
     0
 40
0.0
  0
LTYPE
  5
16
330
5
100
AcDbSymbolTableRecord
100
AcDbLinetypeTableRecord
  2
CONTINUOUS
 70
     0
  3
Solid line
 72
    65
 73
     0
 40
0.0
  0
ENDTAB
  0
TABLE
  2
LAYER
  5
2
330
0
100
AcDbSymbolTable
 70
     1
  0
LAYER
  5
10
330
2
100
AcDbSymbolTableRecord
100
AcDbLayerTableRecord
  2
0
 70
     0
 62
     7
  6
CONTINUOUS
  0
ENDTAB
  0
TABLE
  2
STYLE
  5
3
330
0
100
AcDbSymbolTable
 70
     1
  0
STYLE
  5
11
330
3
100
AcDbSymbolTableRecord
100
AcDbTextStyleTableRecord
  2
STANDARD
 70
     0
 40
0.0
 41
1.0
 50
0.0
 71
     0
 42
0.2
  3
txt
  4

  0
ENDTAB
  0
TABLE
  2
VIEW
  5
6
330
0
100
AcDbSymbolTable
 70
     0
  0
ENDTAB
  0
TABLE
  2
UCS
  5
7
330
0
100
AcDbSymbolTable
 70
     0
  0
ENDTAB
  0
TABLE
  2
APPID
  5
9
330
0
100
AcDbSymbolTable
 70
     1
  0
APPID
  5
12
330
9
100
AcDbSymbolTableRecord
100
AcDbRegAppTableRecord
  2
ACAD
 70
     0
  0
ENDTAB
  0
TABLE
  2
DIMSTYLE
  5
A
330
0
100
AcDbSymbolTable
 70
     1
  0
DIMSTYLE
105
27
330
A
100
AcDbSymbolTableRecord
100
AcDbDimStyleTableRecord
  2
STANDARD
 70
     0
  3

  4

  5

  6

  7

 40
1.0
 41
0.18
 42
0.0625
 43
0.38
 44
0.18
 45
0.0
 46
0.0
 47
0.0
 48
0.0
140
0.18
141
0.09
142
0.0
143
25.4
144
1.0
145
0.0
146
1.0
147
0.09
 71
     0
 72
     0
 73
     1
 74
     1
 75
     0
 76
     0
 77
     0
 78
     0
170
     0
171
     2
172
     0
173
     0
174
     0
175
     0
176
     0
177
     0
178
     0
270
     2
271
     4
272
     4
273
     2
274
     2
340
11
275
     0
280
     0
281
     0
282
     0
283
     1
284
     0
285
     0
286
     0
287
     3
288
     0
  0
ENDTAB
  0
TABLE
  2
BLOCK_RECORD
  5
1
330
0
100
AcDbSymbolTable
 70
    96
  0
BLOCK_RECORD
  5
1F
330
1
100
AcDbSymbolTableRecord
100
AcDbBlockTableRecord
  2
*MODEL_SPACE
  0
BLOCK_RECORD
  5
1B
330
1
100
AcDbSymbolTableRecord
100
AcDbBlockTableRecord
  2
*PAPER_SPACE
  0
BLOCK_RECORD
  5
40
330
1
100
AcDbSymbolTableRecord
100
AcDbBlockTableRecord
  2
BLOCK_2
  0
BLOCK_RECORD
  5
45
330
1
100
AcDbSymbolTableRecord
100
AcDbBlockTableRecord
  2
BLOCK_3
  0
BLOCK_RECORD
  5
4A
330
1
100
AcDbSymbolTableRecord
100
AcDbBlockTableRecord
  2
BLOCK_4
  0
BLOCK_RECORD
  5
4F
330
1
100
AcDbSymbolTableRecord
100
AcDbBlockTableRecord
  2
BLOCK_5
  0
BLOCK_RECORD
  5
54
330
1
100
AcDbSymbolTableRecord
100
AcDbBlockTableRecord
  2
BLOCK_6
  0
BLOCK_RECORD
  5
59
330
1
100
AcDbSymbolTableRecord
100
AcDbBlockTableRecord
  2
BLOCK_7
  0
BLOCK_RECORD
  5
5E
330
1
100
AcDbSymbolTableRecord
100
AcDbBlockTableRecord
  2
BLOCK_8
  0
BLOCK_RECORD
  5
63
330
1
100
AcDbSymbolTableRecord
100
AcDbBlockTableRecord
  2
BLOCK_9
  0
BLOCK_RECORD
  5
68
330
1
100
AcDbSymbolTableRecord
100
AcDbBlockTableRecord
  2
BLOCK_10
  0
BLOCK_RECORD
  5
6D
330
1
100
AcDbSymbolTableRecord
100
AcDbBlockTableRecord
  2
BLOCK_11
  0
BLOCK_RECORD
  5
72
330
1
100
AcDbSymbolTableRecord
100
AcDbBlockTableRecord
  2
BLOCK_12
  0
BLOCK_RECORD
  5
77
330
1
100
AcDbSymbolTableRecord
100
AcDbBlockTableRecord
  2
BLOCK_13
  0
BLOCK_RECORD
  5
7F
330
1
100
AcDbSymbolTableRecord
100
AcDbBlockTableRecord
  2
BLOCK_14
  0
BLOCK_RECORD
  5
87
330
1
100
AcDbSymbolTableRecord
100
AcDbBlockTableRecord
  2
BLOCK_15
  0
BLOCK_RECORD
  5
8C
330
1
100
AcDbSymbolTableRecord
100
AcDbBlockTableRecord
  2
BLOCK_16
  0
BLOCK_RECORD
  5
94
330
1
100
AcDbSymbolTableRecord
100
AcDbBlockTableRecord
  2
BLOCK_17
  0
BLOCK_RECORD
  5
9C
330
1
100
AcDbSymbolTableRecord
100
AcDbBlockTableRecord
  2
BLOCK_18
  0
BLOCK_RECORD
  5
A1
330
1
100
AcDbSymbolTableRecord
100
AcDbBlockTableRecord
  2
BLOCK_19
  0
BLOCK_RECORD
  5
A6
330
1
100
AcDbSymbolTableRecord
100
AcDbBlockTableRecord
  2
BLOCK_20
  0
BLOCK_RECORD
  5
AB
330
1
100
AcDbSymbolTableRecord
100
AcDbBlockTableRecord
  2
BLOCK_21
  0
BLOCK_RECORD
  5
B0
330
1
100
AcDbSymbolTableRecord
100
AcDbBlockTableRecord
  2
BLOCK_22
  0
BLOCK_RECORD
  5
B5
330
1
100
AcDbSymbolTableRecord
100
AcDbBlockTableRecord
  2
BLOCK_23
  0
BLOCK_RECORD
  5
BA
330
1
100
AcDbSymbolTableRecord
100
AcDbBlockTableRecord
  2
BLOCK_24
  0
BLOCK_RECORD
  5
BF
330
1
100
AcDbSymbolTableRecord
100
AcDbBlockTableRecord
  2
BLOCK_25
  0
BLOCK_RECORD
  5
C7
330
1
100
AcDbSymbolTableRecord
100
AcDbBlockTableRecord
  2
BLOCK_26
  0
BLOCK_RECORD
  5
CF
330
1
100
AcDbSymbolTableRecord
100
AcDbBlockTableRecord
  2
BLOCK_27
  0
BLOCK_RECORD
  5
D7
330
1
100
AcDbSymbolTableRecord
100
AcDbBlockTableRecord
  2
BLOCK_28
  0
BLOCK_RECORD
  5
DC
330
1
100
AcDbSymbolTableRecord
100
AcDbBlockTableRecord
  2
BLOCK_29
  0
BLOCK_RECORD
  5
E1
330
1
100
AcDbSymbolTableRecord
100
AcDbBlockTableRecord
  2
BLOCK_30
  0
BLOCK_RECORD
  5
E6
330
1
100
AcDbSymbolTableRecord
100
AcDbBlockTableRecord
  2
BLOCK_31
  0
BLOCK_RECORD
  5
EE
330
1
100
AcDbSymbolTableRecord
100
AcDbBlockTableRecord
  2
BLOCK_32
  0
BLOCK_RECORD
  5
F6
330
1
100
AcDbSymbolTableRecord
100
AcDbBlockTableRecord
  2
BLOCK_33
  0
BLOCK_RECORD
  5
FB
330
1
100
AcDbSymbolTableRecord
100
AcDbBlockTableRecord
  2
BLOCK_34
  0
BLOCK_RECORD
  5
100
330
1
100
AcDbSymbolTableRecord
100
AcDbBlockTableRecord
  2
BLOCK_35
  0
BLOCK_RECORD
  5
105
330
1
100
AcDbSymbolTableRecord
100
AcDbBlockTableRecord
  2
BLOCK_36
  0
BLOCK_RECORD
  5
10D
330
1
100
AcDbSymbolTableRecord
100
AcDbBlockTableRecord
  2
BLOCK_37
  0
BLOCK_RECORD
  5
115
330
1
100
AcDbSymbolTableRecord
100
AcDbBlockTableRecord
  2
BLOCK_38
  0
BLOCK_RECORD
  5
11A
330
1
100
AcDbSymbolTableRecord
100
AcDbBlockTableRecord
  2
BLOCK_39
  0
BLOCK_RECORD
  5
11F
330
1
100
AcDbSymbolTableRecord
100
AcDbBlockTableRecord
  2
BLOCK_40
  0
BLOCK_RECORD
  5
124
330
1
100
AcDbSymbolTableRecord
100
AcDbBlockTableRecord
  2
BLOCK_41
  0
BLOCK_RECORD
  5
129
330
1
100
AcDbSymbolTableRecord
100
AcDbBlockTableRecord
  2
BLOCK_42
  0
BLOCK_RECORD
  5
12E
330
1
100
AcDbSymbolTableRecord
100
AcDbBlockTableRecord
  2
BLOCK_43
  0
BLOCK_RECORD
  5
133
330
1
100
AcDbSymbolTableRecord
100
AcDbBlockTableRecord
  2
BLOCK_44
  0
BLOCK_RECORD
  5
138
330
1
100
AcDbSymbolTableRecord
100
AcDbBlockTableRecord
  2
BLOCK_45
  0
BLOCK_RECORD
  5
13D
330
1
100
AcDbSymbolTableRecord
100
AcDbBlockTableRecord
  2
BLOCK_46
  0
BLOCK_RECORD
  5
142
330
1
100
AcDbSymbolTableRecord
100
AcDbBlockTableRecord
  2
BLOCK_47
  0
BLOCK_RECORD
  5
147
330
1
100
AcDbSymbolTableRecord
100
AcDbBlockTableRecord
  2
BLOCK_48
  0
BLOCK_RECORD
  5
14F
330
1
100
AcDbSymbolTableRecord
100
AcDbBlockTableRecord
  2
BLOCK_49
  0
BLOCK_RECORD
  5
157
330
1
100
AcDbSymbolTableRecord
100
AcDbBlockTableRecord
  2
BLOCK_50
  0
BLOCK_RECORD
  5
15C
330
1
100
AcDbSymbolTableRecord
100
AcDbBlockTableRecord
  2
BLOCK_51
  0
BLOCK_RECORD
  5
161
330
1
100
AcDbSymbolTableRecord
100
AcDbBlockTableRecord
  2
BLOCK_52
  0
BLOCK_RECORD
  5
169
330
1
100
AcDbSymbolTableRecord
100
AcDbBlockTableRecord
  2
BLOCK_53
  0
BLOCK_RECORD
  5
171
330
1
100
AcDbSymbolTableRecord
100
AcDbBlockTableRecord
  2
BLOCK_54
  0
BLOCK_RECORD
  5
179
330
1
100
AcDbSymbolTableRecord
100
AcDbBlockTableRecord
  2
BLOCK_55
  0
BLOCK_RECORD
  5
181
330
1
100
AcDbSymbolTableRecord
100
AcDbBlockTableRecord
  2
BLOCK_56
  0
BLOCK_RECORD
  5
189
330
1
100
AcDbSymbolTableRecord
100
AcDbBlockTableRecord
  2
BLOCK_57
  0
BLOCK_RECORD
  5
18E
330
1
100
AcDbSymbolTableRecord
100
AcDbBlockTableRecord
  2
BLOCK_58
  0
BLOCK_RECORD
  5
196
330
1
100
AcDbSymbolTableRecord
100
AcDbBlockTableRecord
  2
BLOCK_59
  0
BLOCK_RECORD
  5
19B
330
1
100
AcDbSymbolTableRecord
100
AcDbBlockTableRecord
  2
BLOCK_60
  0
BLOCK_RECORD
  5
1A0
330
1
100
AcDbSymbolTableRecord
100
AcDbBlockTableRecord
  2
BLOCK_61
  0
BLOCK_RECORD
  5
1A8
330
1
100
AcDbSymbolTableRecord
100
AcDbBlockTableRecord
  2
BLOCK_62
  0
BLOCK_RECORD
  5
1B0
330
1
100
AcDbSymbolTableRecord
100
AcDbBlockTableRecord
  2
BLOCK_63
  0
BLOCK_RECORD
  5
1B8
330
1
100
AcDbSymbolTableRecord
100
AcDbBlockTableRecord
  2
BLOCK_64
  0
BLOCK_RECORD
  5
1C0
330
1
100
AcDbSymbolTableRecord
100
AcDbBlockTableRecord
  2
BLOCK_65
  0
BLOCK_RECORD
  5
1C8
330
1
100
AcDbSymbolTableRecord
100
AcDbBlockTableRecord
  2
BLOCK_66
  0
BLOCK_RECORD
  5
1CD
330
1
100
AcDbSymbolTableRecord
100
AcDbBlockTableRecord
  2
BLOCK_67
  0
BLOCK_RECORD
  5
1D2
330
1
100
AcDbSymbolTableRecord
100
AcDbBlockTableRecord
  2
BLOCK_68
  0
BLOCK_RECORD
  5
1DA
330
1
100
AcDbSymbolTableRecord
100
AcDbBlockTableRecord
  2
BLOCK_69
  0
BLOCK_RECORD
  5
1E2
330
1
100
AcDbSymbolTableRecord
100
AcDbBlockTableRecord
  2
BLOCK_70
  0
BLOCK_RECORD
  5
1EA
330
1
100
AcDbSymbolTableRecord
100
AcDbBlockTableRecord
  2
BLOCK_71
  0
BLOCK_RECORD
  5
1F2
330
1
100
AcDbSymbolTableRecord
100
AcDbBlockTableRecord
  2
BLOCK_72
  0
BLOCK_RECORD
  5
1F7
330
1
100
AcDbSymbolTableRecord
100
AcDbBlockTableRecord
  2
BLOCK_73
  0
BLOCK_RECORD
  5
1FF
330
1
100
AcDbSymbolTableRecord
100
AcDbBlockTableRecord
  2
BLOCK_74
  0
BLOCK_RECORD
  5
207
330
1
100
AcDbSymbolTableRecord
100
AcDbBlockTableRecord
  2
BLOCK_75
  0
BLOCK_RECORD
  5
20F
330
1
100
AcDbSymbolTableRecord
100
AcDbBlockTableRecord
  2
BLOCK_76
  0
BLOCK_RECORD
  5
217
330
1
100
AcDbSymbolTableRecord
100
AcDbBlockTableRecord
  2
BLOCK_77
  0
BLOCK_RECORD
  5
21F
330
1
100
AcDbSymbolTableRecord
100
AcDbBlockTableRecord
  2
BLOCK_78
  0
BLOCK_RECORD
  5
224
330
1
100
AcDbSymbolTableRecord
100
AcDbBlockTableRecord
  2
BLOCK_79
  0
BLOCK_RECORD
  5
22C
330
1
100
AcDbSymbolTableRecord
100
AcDbBlockTableRecord
  2
BLOCK_80
  0
BLOCK_RECORD
  5
234
330
1
100
AcDbSymbolTableRecord
100
AcDbBlockTableRecord
  2
BLOCK_81
  0
BLOCK_RECORD
  5
23C
330
1
100
AcDbSymbolTableRecord
100
AcDbBlockTableRecord
  2
BLOCK_82
  0
BLOCK_RECORD
  5
241
330
1
100
AcDbSymbolTableRecord
100
AcDbBlockTableRecord
  2
BLOCK_83
  0
BLOCK_RECORD
  5
246
330
1
100
AcDbSymbolTableRecord
100
AcDbBlockTableRecord
  2
BLOCK_84
  0
BLOCK_RECORD
  5
24E
330
1
100
AcDbSymbolTableRecord
100
AcDbBlockTableRecord
  2
BLOCK_85
  0
BLOCK_RECORD
  5
256
330
1
100
AcDbSymbolTableRecord
100
AcDbBlockTableRecord
  2
BLOCK_86
  0
BLOCK_RECORD
  5
25E
330
1
100
AcDbSymbolTableRecord
100
AcDbBlockTableRecord
  2
BLOCK_87
  0
BLOCK_RECORD
  5
263
330
1
100
AcDbSymbolTableRecord
100
AcDbBlockTableRecord
  2
BLOCK_88
  0
BLOCK_RECORD
  5
268
330
1
100
AcDbSymbolTableRecord
100
AcDbBlockTableRecord
  2
BLOCK_89
  0
BLOCK_RECORD
  5
270
330
1
100
AcDbSymbolTableRecord
100
AcDbBlockTableRecord
  2
BLOCK_90
  0
BLOCK_RECORD
  5
278
330
1
100
AcDbSymbolTableRecord
100
AcDbBlockTableRecord
  2
BLOCK_91
  0
BLOCK_RECORD
  5
280
330
1
100
AcDbSymbolTableRecord
100
AcDbBlockTableRecord
  2
BLOCK_92
  0
BLOCK_RECORD
  5
285
330
1
100
AcDbSymbolTableRecord
100
AcDbBlockTableRecord
  2
BLOCK_93
  0
BLOCK_RECORD
  5
28A
330
1
100
AcDbSymbolTableRecord
100
AcDbBlockTableRecord
  2
BLOCK_94
  0
BLOCK_RECORD
  5
292
330
1
100
AcDbSymbolTableRecord
100
AcDbBlockTableRecord
  2
BLOCK_95
  0
BLOCK_RECORD
  5
29A
330
1
100
AcDbSymbolTableRecord
100
AcDbBlockTableRecord
  2
BLOCK_96
  0
ENDTAB
  0
ENDSEC
  0
SECTION
  2
BLOCKS
  0
BLOCK
  5
20
330
1F
100
AcDbEntity
  8
0
100
AcDbBlockBegin
  2
*MODEL_SPACE
 70
     0
 10
0.0
 20
0.0
 30
0.0
  3
*MODEL_SPACE
  1

  0
ENDBLK
  5
21
330
1F
100
AcDbEntity
  8
0
100
AcDbBlockEnd
  0
BLOCK
  5
1C
330
1B
100
AcDbEntity
 67
     1
  8
0
100
AcDbBlockBegin
  2
*PAPER_SPACE
 70
     0
 10
0.0
 20
0.0
 30
0.0
  3
*PAPER_SPACE
  1

  0
ENDBLK
  5
1D
330
1B
100
AcDbEntity
 67
     1
  8
0
100
AcDbBlockEnd
  0
BLOCK
  5
42
330
40
100
AcDbEntity
  8
0
100
AcDbBlockBegin
  2
BLOCK_2
 70
     0
 10
0.0
 20
0.0
 30
0.0
  3
BLOCK_2
  1

  0
SPLINE
  5
44
330
40
100
AcDbEntity
  8
0
 62
     7
100
AcDbSpline
210
0.0
220
0.0
230
1.0
 70
     8
 71
     3
 72
     8
 73
     4
 74
     0
 42
0.0000000001
 43
0.0000000001
 12
1.0
 22
0.0
 32
0.0
 13
1.0
 23
0.0
 33
0.0
 40
0.0
 40
0.0
 40
0.0
 40
0.0
 40
1.0
 40
1.0
 40
1.0
 40
1.0
 10
54.27618498658884
 20
57.01140607513892
 30
0.0
 10
54.35053290135873
 20
56.94231454737839
 30
0.0
 10
54.42676817719159
 20
56.86911315850765
 30
0.0
 10
54.50462623076082
 20
56.7922605196383
 30
0.0
  0
ENDBLK
  5
43
330
40
100
AcDbEntity
  8
0
100
AcDbBlockEnd
  0
BLOCK
  5
47
330
45
100
AcDbEntity
  8
0
100
AcDbBlockBegin
  2
BLOCK_3
 70
     0
 10
0.0
 20
0.0
 30
0.0
  3
BLOCK_3
  1

  0
SPLINE
  5
49
330
45
100
AcDbEntity
  8
0
 62
     7
100
AcDbSpline
210
0.0
220
0.0
230
1.0
 70
     8
 71
     3
 72
     8
 73
     4
 74
     0
 42
0.0000000001
 43
0.0000000001
 12
1.0
 22
0.0
 32
0.0
 13
1.0
 23
0.0
 33
0.0
 40
0.0
 40
0.0
 40
0.0
 40
0.0
 40
1.0
 40
1.0
 40
1.0
 40
1.0
 10
54.50462623076082
 20
56.79226051963765
 30
0.0
 10
54.54745330252599
 20
56.74995710726813
 30
0.0
 10
54.60489573916764
 20
56.72644044673829
 30
0.0
 10
54.66533414332748
 20
56.72646746409862
 30
0.0
  0
ENDBLK
  5
48
330
45
100
AcDbEntity
  8
0
100
AcDbBlockEnd
  0
BLOCK
  5
4C
330
4A
100
AcDbEntity
  8
0
100
AcDbBlockBegin
  2
BLOCK_4
 70
     0
 10
0.0
 20
0.0
 30
0.0
  3
BLOCK_4
  1

  0
SPLINE
  5
4E
330
4A
100
AcDbEntity
  8
0
 62
     7
100
AcDbSpline
210
0.0
220
0.0
230
1.0
 70
     8
 71
     3
 72
     8
 73
     4
 74
     0
 42
0.0000000001
 43
0.0000000001
 12
1.0
 22
0.0
 32
0.0
 13
1.0
 23
0.0
 33
0.0
 40
0.0
 40
0.0
 40
0.0
 40
0.0
 40
1.0
 40
1.0
 40
1.0
 40
1.0
 10
54.66533414332748
 20
56.72646746409862
 30
0.0
 10
54.72581491398901
 20
56.72644173903481
 30
0.0
 10
54.78334017159226
 20
56.74999489120638
 30
0.0
 10
54.82602441700571
 20
56.7922605196383
 30
0.0
  0
ENDBLK
  5
4D
330
4A
100
AcDbEntity
  8
0
100
AcDbBlockEnd
  0
BLOCK
  5
51
330
4F
100
AcDbEntity
  8
0
100
AcDbBlockBegin
  2
BLOCK_5
 70
     0
 10
0.0
 20
0.0
 30
0.0
  3
BLOCK_5
  1

  0
SPLINE
  5
53
330
4F
100
AcDbEntity
  8
0
 62
     7
100
AcDbSpline
210
0.0
220
0.0
230
1.0
 70
     8
 71
     3
 72
     8
 73
     4
 74
     0
 42
0.0000000001
 43
0.0000000001
 12
1.0
 22
0.0
 32
0.0
 13
1.0
 23
0.0
 33
0.0
 40
0.0
 40
0.0
 40
0.0
 40
0.0
 40
1.0
 40
1.0
 40
1.0
 40
1.0
 10
54.82602441700571
 20
56.7922605196383
 30
0.0
 10
54.90402358168245
 20
56.86911315850765
 30
0.0
 10
54.98022357973843
 20
56.94226163071179
 30
0.0
 10
55.05457149450832
 20
57.01140607513892
 30
0.0
  0
ENDBLK
  5
52
330
4F
100
AcDbEntity
  8
0
100
AcDbBlockEnd
  0
BLOCK
  5
56
330
54
100
AcDbEntity
  8
0
100
AcDbBlockBegin
  2
BLOCK_6
 70
     0
 10
0.0
 20
0.0
 30
0.0
  3
BLOCK_6
  1

  0
SPLINE
  5
58
330
54
100
AcDbEntity
  8
0
 62
     7
100
AcDbSpline
210
0.0
220
0.0
230
1.0
 70
     8
 71
     3
 72
     8
 73
     4
 74
     0
 42
0.0000000001
 43
0.0000000001
 12
1.0
 22
0.0
 32
0.0
 13
1.0
 23
0.0
 33
0.0
 40
0.0
 40
0.0
 40
0.0
 40
0.0
 40
1.0
 40
1.0
 40
1.0
 40
1.0
 10
55.05457149450832
 20
57.01140607513892
 30
0.0
 10
55.17927843577123
 20
57.12731121399825
 30
0.0
 10
55.30897718246234
 20
57.22550690841832
 30
0.0
 10
55.44633120673593
 20
57.30865663062014
 30
0.0
  0
ENDBLK
  5
57
330
54
100
AcDbEntity
  8
0
100
AcDbBlockEnd
  0
BLOCK
  5
5B
330
59
100
AcDbEntity
  8
0
100
AcDbBlockBegin
  2
BLOCK_7
 70
     0
 10
0.0
 20
0.0
 30
0.0
  3
BLOCK_7
  1

  0
SPLINE
  5
5D
330
59
100
AcDbEntity
  8
0
 62
     7
100
AcDbSpline
210
0.0
220
0.0
230
1.0
 70
     8
 71
     3
 72
     8
 73
     4
 74
     0
 42
0.0000000001
 43
0.0000000001
 12
1.0
 22
0.0
 32
0.0
 13
1.0
 23
0.0
 33
0.0
 40
0.0
 40
0.0
 40
0.0
 40
0.0
 40
1.0
 40
1.0
 40
1.0
 40
1.0
 10
55.89097230650329
 20
57.50136149168287
 30
0.0
 10
55.73033642183675
 20
57.4546280546597
 30
0.0
 10
55.58179365697674
 20
57.39025048614622
 30
0.0
 10
55.44633120673593
 20
57.30865663062014
 30
0.0
  0
ENDBLK
  5
5C
330
59
100
AcDbEntity
  8
0
100
AcDbBlockEnd
  0
BLOCK
  5
60
330
5E
100
AcDbEntity
  8
0
100
AcDbBlockBegin
  2
BLOCK_8
 70
     0
 10
0.0
 20
0.0
 30
0.0
  3
BLOCK_8
  1

  0
SPLINE
  5
62
330
5E
100
AcDbEntity
  8
0
 62
     7
100
AcDbSpline
210
0.0
220
0.0
230
1.0
 70
     8
 71
     3
 72
    11
 73
     7
 74
     0
 42
0.0000000001
 43
0.0000000001
 12
1.0
 22
0.0
 32
0.0
 13
1.0
 23
0.0
 33
0.0
 40
0.0
 40
0.0
 40
0.0
 40
0.0
 40
1.0
 40
1.0
 40
1.0
 40
2.0
 40
2.0
 40
2.0
 40
2.0
 10
55.89097230650329
 20
57.50136149168287
 30
0.0
 10
56.05086883020177
 20
57.54796343611592
 30
0.0
 10
56.23232007557257
 20
57.57186413055381
 30
0.0
 10
56.43638437592201
 20
57.57186413055381
 30
0.0
 10
56.71462020215695
 20
57.57186413055381
 30
0.0
 10
56.97537588994896
 20
57.51901801945618
 30
0.0
 10
57.21852796707898
 20
57.4132552417046
 30
0.0
  0
ENDBLK
  5
61
330
5E
100
AcDbEntity
  8
0
100
AcDbBlockEnd
  0
BLOCK
  5
65
330
63
100
AcDbEntity
  8
0
100
AcDbBlockBegin
  2
BLOCK_9
 70
     0
 10
0.0
 20
0.0
 30
0.0
  3
BLOCK_9
  1

  0
SPLINE
  5
67
330
63
100
AcDbEntity
  8
0
 62
     7
100
AcDbSpline
210
0.0
220
0.0
230
1.0
 70
     8
 71
     3
 72
     8
 73
     4
 74
     0
 42
0.0000000001
 43
0.0000000001
 12
1.0
 22
0.0
 32
0.0
 13
1.0
 23
0.0
 33
0.0
 40
0.0
 40
0.0
 40
0.0
 40
0.0
 40
1.0
 40
1.0
 40
1.0
 40
1.0
 10
57.85712628412031
 20
56.98366010292382
 30
0.0
 10
57.67500338194808
 20
57.16447276656881
 30
0.0
 10
57.46193068785279
 20
57.30781012144032
 30
0.0
 10
57.21852796707898
 20
57.41325524170524
 30
0.0
  0
ENDBLK
  5
66
330
63
100
AcDbEntity
  8
0
100
AcDbBlockEnd
  0
BLOCK
  5
6A
330
68
100
AcDbEntity
  8
0
100
AcDbBlockBegin
  2
BLOCK_10
 70
     0
 10
0.0
 20
0.0
 30
0.0
  3
BLOCK_10
  1

  0
SPLINE
  5
6C
330
68
100
AcDbEntity
  8
0
 62
     7
100
AcDbSpline
210
0.0
220
0.0
230
1.0
 70
     8
 71
     3
 72
     8
 73
     4
 74
     0
 42
0.0000000001
 43
0.0000000001
 12
1.0
 22
0.0
 32
0.0
 13
1.0
 23
0.0
 33
0.0
 40
0.0
 40
0.0
 40
0.0
 40
0.0
 40
1.0
 40
1.0
 40
1.0
 40
1.0
 10
57.85712628412031
 20
56.98366010292382
 30
0.0
 10
58.03972405723962
 20
56.80231468630193
 30
0.0
 10
58.18212280360673
 20
56.58957204746633
 30
0.0
 10
58.28666849538399
 20
56.34506176974953
 30
0.0
  0
ENDBLK
  5
6B
330
68
100
AcDbEntity
  8
0
100
AcDbBlockEnd
  0
BLOCK
  5
6F
330
6D
100
AcDbEntity
  8
0
100
AcDbBlockBegin
  2
BLOCK_11
 70
     0
 10
0.0
 20
0.0
 30
0.0
  3
BLOCK_11
  1

  0
SPLINE
  5
71
330
6D
100
AcDbEntity
  8
0
 62
     7
100
AcDbSpline
210
0.0
220
0.0
230
1.0
 70
     8
 71
     3
 72
    11
 73
     7
 74
     0
 42
0.0000000001
 43
0.0000000001
 12
1.0
 22
0.0
 32
0.0
 13
1.0
 23
0.0
 33
0.0
 40
0.0
 40
0.0
 40
0.0
 40
0.0
 40
1.0
 40
1.0
 40
1.0
 40
2.0
 40
2.0
 40
2.0
 40
2.0
 10
58.28666849538399
 20
56.34506176974953
 30
0.0
 10
58.39117890938438
 20
56.10071024203318
 30
0.0
 10
58.44407793581259
 20
55.84000746432008
 30
0.0
 10
58.44407793581259
 20
55.56417051994462
 30
0.0
 10
58.44407793581259
 20
55.29586538112314
 30
0.0
 10
58.39243127046354
 20
55.03900788118725
 30
0.0
 10
58.29037266195616
 20
54.79331579791554
 30
0.0
  0
ENDBLK
  5
70
330
6D
100
AcDbEntity
  8
0
100
AcDbBlockEnd
  0
BLOCK
  5
74
330
72
100
AcDbEntity
  8
0
100
AcDbBlockBegin
  2
BLOCK_12
 70
     0
 10
0.0
 20
0.0
 30
0.0
  3
BLOCK_12
  1

  0
SPLINE
  5
76
330
72
100
AcDbEntity
  8
0
 62
     7
100
AcDbSpline
210
0.0
220
0.0
230
1.0
 70
     8
 71
     3
 72
     8
 73
     4
 74
     0
 42
0.0000000001
 43
0.0000000001
 12
1.0
 22
0.0
 32
0.0
 13
1.0
 23
0.0
 33
0.0
 40
0.0
 40
0.0
 40
0.0
 40
0.0
 40
1.0
 40
1.0
 40
1.0
 40
1.0
 10
58.29037266195616
 20
54.79331579791554
 30
0.0
 10
58.18838460900253
 20
54.54765899242134
 30
0.0
 10
58.04487461266378
 20
54.33101815914192
 30
0.0
 10
57.85712628412031
 20
54.14346385363361
 30
0.0
  0
ENDBLK
  5
75
330
72
100
AcDbEntity
  8
0
100
AcDbBlockEnd
  0
BLOCK
  5
79
330
77
100
AcDbEntity
  8
0
100
AcDbBlockBegin
  2
BLOCK_13
 70
     0
 10
0.0
 20
0.0
 30
0.0
  3
BLOCK_13
  1

  0
POLYLINE
  5
7B
330
77
100
AcDbEntity
  8
0
 62
     7
100
AcDb2dPolyline
 66
     1
 10
0.0
 20
0.0
 30
0.0
  0
VERTEX
  5
7C
330
7B
100
AcDbEntity
  8
0
 62
     7
100
AcDbVertex
100
AcDb2dVertex
 10
57.85712628412031
 20
54.14346385363361
 30
0.0
  0
VERTEX
  5
7D
330
7B
100
AcDbEntity
  8
0
 62
     7
100
AcDbVertex
100
AcDb2dVertex
 10
57.26197254930394
 20
53.54896274267116
 30
0.0
  0
SEQEND
  5
7E
330
7B
100
AcDbEntity
  8
0
 62
     7
  0
ENDBLK
  5
7A
330
77
100
AcDbEntity
  8
0
100
AcDbBlockEnd
  0
BLOCK
  5
81
330
7F
100
AcDbEntity
  8
0
100
AcDbBlockBegin
  2
BLOCK_14
 70
     0
 10
0.0
 20
0.0
 30
0.0
  3
BLOCK_14
  1

  0
POLYLINE
  5
83
330
7F
100
AcDbEntity
  8
0
 62
     7
100
AcDb2dPolyline
 66
     1
 10
0.0
 20
0.0
 30
0.0
  0
VERTEX
  5
84
330
83
100
AcDbEntity
  8
0
 62
     7
100
AcDbVertex
100
AcDb2dVertex
 10
57.26197254930394
 20
53.54896274267116
 30
0.0
  0
VERTEX
  5
85
330
83
100
AcDbEntity
  8
0
 62
     7
100
AcDbVertex
100
AcDb2dVertex
 10
54.82702983364673
 20
51.11691274327909
 30
0.0
  0
SEQEND
  5
86
330
83
100
AcDbEntity
  8
0
 62
     7
  0
ENDBLK
  5
82
330
7F
100
AcDbEntity
  8
0
100
AcDbBlockEnd
  0
BLOCK
  5
89
330
87
100
AcDbEntity
  8
0
100
AcDbBlockBegin
  2
BLOCK_15
 70
     0
 10
0.0
 20
0.0
 30
0.0
  3
BLOCK_15
  1

  0
SPLINE
  5
8B
330
87
100
AcDbEntity
  8
0
 62
     7
100
AcDbSpline
210
0.0
220
0.0
230
1.0
 70
     8
 71
     3
 72
    11
 73
     7
 74
     0
 42
0.0000000001
 43
0.0000000001
 12
1.0
 22
0.0
 32
0.0
 13
1.0
 23
0.0
 33
0.0
 40
0.0
 40
0.0
 40
0.0
 40
0.0
 40
1.0
 40
1.0
 40
1.0
 40
2.0
 40
2.0
 40
2.0
 40
2.0
 10
54.82702983364673
 20
51.11691274327909
 30
0.0
 10
54.78247400145011
 20
51.07246274329013
 30
0.0
 10
54.72393053072145
 20
51.05016718773997
 30
0.0
 10
54.66533414332748
 20
51.05016718773997
 30
0.0
 10
54.6067730337104
 20
51.05016718773997
 30
0.0
 10
54.54817664631642
 20
51.07240982662353
 30
0.0
 10
54.50362081411981
 20
51.11691274327909
 30
0.0
  0
ENDBLK
  5
8A
330
87
100
AcDbEntity
  8
0
100
AcDbBlockEnd
  0
BLOCK
  5
8E
330
8C
100
AcDbEntity
  8
0
100
AcDbBlockBegin
  2
BLOCK_16
 70
     0
 10
0.0
 20
0.0
 30
0.0
  3
BLOCK_16
  1

  0
POLYLINE
  5
90
330
8C
100
AcDbEntity
  8
0
 62
     7
100
AcDb2dPolyline
 66
     1
 10
0.0
 20
0.0
 30
0.0
  0
VERTEX
  5
91
330
90
100
AcDbEntity
  8
0
 62
     7
100
AcDbVertex
100
AcDb2dVertex
 10
54.50362081411981
 20
51.11691274327909
 30
0.0
  0
VERTEX
  5
92
330
90
100
AcDbEntity
  8
0
 62
     7
100
AcDbVertex
100
AcDb2dVertex
 10
52.0688192095701
 20
53.54890982600456
 30
0.0
  0
SEQEND
  5
93
330
90
100
AcDbEntity
  8
0
 62
     7
  0
ENDBLK
  5
8F
330
8C
100
AcDbEntity
  8
0
100
AcDbBlockEnd
  0
BLOCK
  5
96
330
94
100
AcDbEntity
  8
0
100
AcDbBlockBegin
  2
BLOCK_17
 70
     0
 10
0.0
 20
0.0
 30
0.0
  3
BLOCK_17
  1

  0
POLYLINE
  5
98
330
94
100
AcDbEntity
  8
0
 62
     7
100
AcDb2dPolyline
 66
     1
 10
0.0
 20
0.0
 30
0.0
  0
VERTEX
  5
99
330
98
100
AcDbEntity
  8
0
 62
     7
100
AcDbVertex
100
AcDb2dVertex
 10
52.0688192095701
 20
53.54890982600456
 30
0.0
  0
VERTEX
  5
9A
330
98
100
AcDbEntity
  8
0
 62
     7
100
AcDbVertex
100
AcDb2dVertex
 10
51.47363019697686
 20
54.14341093696701
 30
0.0
  0
SEQEND
  5
9B
330
98
100
AcDbEntity
  8
0
 62
     7
  0
ENDBLK
  5
97
330
94
100
AcDbEntity
  8
0
100
AcDbBlockEnd
  0
BLOCK
  5
9E
330
9C
100
AcDbEntity
  8
0
100
AcDbBlockBegin
  2
BLOCK_18
 70
     0
 10
0.0
 20
0.0
 30
0.0
  3
BLOCK_18
  1

  0
SPLINE
  5
A0
330
9C
100
AcDbEntity
  8
0
 62
     7
100
AcDbSpline
210
0.0
220
0.0
230
1.0
 70
     8
 71
     3
 72
     8
 73
     4
 74
     0
 42
0.0000000001
 43
0.0000000001
 12
1.0
 22
0.0
 32
0.0
 13
1.0
 23
0.0
 33
0.0
 40
0.0
 40
0.0
 40
0.0
 40
0.0
 40
1.0
 40
1.0
 40
1.0
 40
1.0
 10
51.47363019697686
 20
54.14341093696701
 30
0.0
 10
51.2859347850987
 20
54.33101815914192
 30
0.0
 10
51.14237187209463
 20
54.54760607575474
 30
0.0
 10
51.04038381914101
 20
54.79331579791554
 30
0.0
  0
ENDBLK
  5
9F
330
9C
100
AcDbEntity
  8
0
100
AcDbBlockEnd
  0
BLOCK
  5
A3
330
A1
100
AcDbEntity
  8
0
100
AcDbBlockBegin
  2
BLOCK_19
 70
     0
 10
0.0
 20
0.0
 30
0.0
  3
BLOCK_19
  1

  0
SPLINE
  5
A5
330
A1
100
AcDbEntity
  8
0
 62
     7
100
AcDbSpline
210
0.0
220
0.0
230
1.0
 70
     8
 71
     3
 72
     8
 73
     4
 74
     0
 42
0.0000000001
 43
0.0000000001
 12
1.0
 22
0.0
 32
0.0
 13
1.0
 23
0.0
 33
0.0
 40
0.0
 40
0.0
 40
0.0
 40
0.0
 40
1.0
 40
1.0
 40
1.0
 40
1.0
 10
51.04038381914101
 20
54.79331579791554
 30
0.0
 10
50.93837812729895
 20
55.03897260340974
 30
0.0
 10
50.88667854528457
 20
55.29581246445654
 30
0.0
 10
50.88667854528457
 20
55.56411760327801
 30
0.0
  0
ENDBLK
  5
A4
330
A1
100
AcDbEntity
  8
0
100
AcDbBlockEnd
  0
BLOCK
  5
A8
330
A6
100
AcDbEntity
  8
0
100
AcDbBlockBegin
  2
BLOCK_20
 70
     0
 10
0.0
 20
0.0
 30
0.0
  3
BLOCK_20
  1

  0
SPLINE
  5
AA
330
A6
100
AcDbEntity
  8
0
 62
     7
100
AcDbSpline
210
0.0
220
0.0
230
1.0
 70
     8
 71
     3
 72
     8
 73
     4
 74
     0
 42
0.0000000001
 43
0.0000000001
 12
1.0
 22
0.0
 32
0.0
 13
1.0
 23
0.0
 33
0.0
 40
0.0
 40
0.0
 40
0.0
 40
0.0
 40
1.0
 40
1.0
 40
1.0
 40
1.0
 10
51.04287090241025
 20
56.34506176974825
 30
0.0
 10
50.93884938570953
 20
56.10181262593668
 30
0.0
 10
50.88673183664309
 20
55.84123075968617
 30
0.0
 10
50.88667854528457
 20
55.56411760327801
 30
0.0
  0
ENDBLK
  5
A9
330
A6
100
AcDbEntity
  8
0
100
AcDbBlockEnd
  0
BLOCK
  5
AD
330
AB
100
AcDbEntity
  8
0
100
AcDbBlockBegin
  2
BLOCK_21
 70
     0
 10
0.0
 20
0.0
 30
0.0
  3
BLOCK_21
  1

  0
SPLINE
  5
AF
330
AB
100
AcDbEntity
  8
0
 62
     7
100
AcDbSpline
210
0.0
220
0.0
230
1.0
 70
     8
 71
     3
 72
     8
 73
     4
 74
     0
 42
0.0000000001
 43
0.0000000001
 12
1.0
 22
0.0
 32
0.0
 13
1.0
 23
0.0
 33
0.0
 40
0.0
 40
0.0
 40
0.0
 40
0.0
 40
1.0
 40
1.0
 40
1.0
 40
1.0
 10
51.04287090241089
 20
56.34506176974953
 30
0.0
 10
51.14746951085347
 20
56.58951913079973
 30
0.0
 10
51.29103242385754
 20
56.80231468630193
 30
0.0
 10
51.47363019697686
 20
56.98366010292382
 30
0.0
  0
ENDBLK
  5
AE
330
AB
100
AcDbEntity
  8
0
100
AcDbBlockEnd
  0
BLOCK
  5
B2
330
B0
100
AcDbEntity
  8
0
100
AcDbBlockBegin
  2
BLOCK_22
 70
     0
 10
0.0
 20
0.0
 30
0.0
  3
BLOCK_22
  1

  0
SPLINE
  5
B4
330
B0
100
AcDbEntity
  8
0
 62
     7
100
AcDbSpline
210
0.0
220
0.0
230
1.0
 70
     8
 71
     3
 72
     8
 73
     4
 74
     0
 42
0.0000000001
 43
0.0000000001
 12
1.0
 22
0.0
 32
0.0
 13
1.0
 23
0.0
 33
0.0
 40
0.0
 40
0.0
 40
0.0
 40
0.0
 40
1.0
 40
1.0
 40
1.0
 40
1.0
 10
52.11222851401819
 20
57.41321996392708
 30
0.0
 10
51.86884943432126
 20
57.30782026440164
 30
0.0
 10
51.65571789392719
 20
57.16445509662085
 30
0.0
 10
51.47363019697686
 20
56.98366010292382
 30
0.0
  0
ENDBLK
  5
B3
330
B0
100
AcDbEntity
  8
0
100
AcDbBlockEnd
  0
BLOCK
  5
B7
330
B5
100
AcDbEntity
  8
0
100
AcDbBlockBegin
  2
BLOCK_23
 70
     0
 10
0.0
 20
0.0
 30
0.0
  3
BLOCK_23
  1

  0
SPLINE
  5
B9
330
B5
100
AcDbEntity
  8
0
 62
     7
100
AcDbSpline
210
0.0
220
0.0
230
1.0
 70
     8
 71
     3
 72
    14
 73
    10
 74
     0
 42
0.0000000001
 43
0.0000000001
 12
1.0
 22
0.0
 32
0.0
 13
1.0
 23
0.0
 33
0.0
 40
0.0
 40
0.0
 40
0.0
 40
0.0
 40
1.0
 40
1.0
 40
1.0
 40
2.0
 40
2.0
 40
2.0
 40
3.0
 40
3.0
 40
3.0
 40
3.0
 10
52.11222851401819
 20
57.41321996392708
 30
0.0
 10
52.3553805911482
 20
57.51901801945618
 30
0.0
 10
52.61611864005177
 20
57.57186413055381
 30
0.0
 10
52.89437210517516
 20
57.57186413055381
 30
0.0
 10
53.09841876663616
 20
57.57186413055381
 30
0.0
 10
53.27987001200695
 20
57.54796343611592
 30
0.0
 10
53.43981945237075
 20
57.50136149168287
 30
0.0
 10
53.59976889273455
 20
57.45475954724983
 30
0.0
 10
53.74848236116276
 20
57.39057163059915
 30
0.0
 10
53.88447819102656
 20
57.30862135284198
 30
0.0
  0
ENDBLK
  5
B8
330
B5
100
AcDbEntity
  8
0
100
AcDbBlockEnd
  0
BLOCK
  5
BC
330
BA
100
AcDbEntity
  8
0
100
AcDbBlockBegin
  2
BLOCK_24
 70
     0
 10
0.0
 20
0.0
 30
0.0
  3
BLOCK_24
  1

  0
SPLINE
  5
BE
330
BA
100
AcDbEntity
  8
0
 62
     7
100
AcDbSpline
210
0.0
220
0.0
230
1.0
 70
     8
 71
     3
 72
     8
 73
     4
 74
     0
 42
0.0000000001
 43
0.0000000001
 12
1.0
 22
0.0
 32
0.0
 13
1.0
 23
0.0
 33
0.0
 40
0.0
 40
0.0
 40
0.0
 40
0.0
 40
1.0
 40
1.0
 40
1.0
 40
1.0
 10
53.88447819102656
 20
57.30862135284198
 30
0.0
 10
54.02177929863483
 20
57.22550690841832
 30
0.0
 10
54.15147804532594
 20
57.12731121399825
 30
0.0
 10
54.27618498658884
 20
57.01140607513892
 30
0.0
  0
ENDBLK
  5
BD
330
BA
100
AcDbEntity
  8
0
100
AcDbBlockEnd
  0
BLOCK
  5
C1
330
BF
100
AcDbEntity
  8
0
100
AcDbBlockBegin
  2
BLOCK_25
 70
     0
 10
0.0
 20
0.0
 30
0.0
  3
BLOCK_25
  1

  0
POLYLINE
  5
C3
330
BF
100
AcDbEntity
  8
0
 62
     7
100
AcDb2dPolyline
 66
     1
 10
0.0
 20
0.0
 30
0.0
  0
VERTEX
  5
C4
330
C3
100
AcDbEntity
  8
0
 62
     7
100
AcDbVertex
100
AcDb2dVertex
 10
45.17337202437682
 20
48.37436538285355
 30
0.0
  0
VERTEX
  5
C5
330
C3
100
AcDbEntity
  8
0
 62
     7
100
AcDbVertex
100
AcDb2dVertex
 10
46.41887157593418
 20
48.37436538285355
 30
0.0
  0
SEQEND
  5
C6
330
C3
100
AcDbEntity
  8
0
 62
     7
  0
ENDBLK
  5
C2
330
BF
100
AcDbEntity
  8
0
100
AcDbBlockEnd
  0
BLOCK
  5
C9
330
C7
100
AcDbEntity
  8
0
100
AcDbBlockBegin
  2
BLOCK_26
 70
     0
 10
0.0
 20
0.0
 30
0.0
  3
BLOCK_26
  1

  0
POLYLINE
  5
CB
330
C7
100
AcDbEntity
  8
0
 62
     7
100
AcDb2dPolyline
 66
     1
 10
0.0
 20
0.0
 30
0.0
  0
VERTEX
  5
CC
330
CB
100
AcDbEntity
  8
0
 62
     7
100
AcDbVertex
100
AcDb2dVertex
 10
46.41887157593418
 20
48.37436538285355
 30
0.0
  0
VERTEX
  5
CD
330
CB
100
AcDbEntity
  8
0
 62
     7
100
AcDbVertex
100
AcDb2dVertex
 10
46.41887157593418
 20
47.91667149407927
 30
0.0
  0
SEQEND
  5
CE
330
CB
100
AcDbEntity
  8
0
 62
     7
  0
ENDBLK
  5
CA
330
C7
100
AcDbEntity
  8
0
100
AcDbBlockEnd
  0
BLOCK
  5
D1
330
CF
100
AcDbEntity
  8
0
100
AcDbBlockBegin
  2
BLOCK_27
 70
     0
 10
0.0
 20
0.0
 30
0.0
  3
BLOCK_27
  1

  0
POLYLINE
  5
D3
330
CF
100
AcDbEntity
  8
0
 62
     7
100
AcDb2dPolyline
 66
     1
 10
0.0
 20
0.0
 30
0.0
  0
VERTEX
  5
D4
330
D3
100
AcDbEntity
  8
0
 62
     7
100
AcDbVertex
100
AcDb2dVertex
 10
46.41887157593418
 20
47.91667149407927
 30
0.0
  0
VERTEX
  5
D5
330
D3
100
AcDbEntity
  8
0
 62
     7
100
AcDbVertex
100
AcDb2dVertex
 10
47.24608252705249
 20
47.91667149407927
 30
0.0
  0
SEQEND
  5
D6
330
D3
100
AcDbEntity
  8
0
 62
     7
  0
ENDBLK
  5
D2
330
CF
100
AcDbEntity
  8
0
100
AcDbBlockEnd
  0
BLOCK
  5
D9
330
D7
100
AcDbEntity
  8
0
100
AcDbBlockBegin
  2
BLOCK_28
 70
     0
 10
0.0
 20
0.0
 30
0.0
  3
BLOCK_28
  1

  0
SPLINE
  5
DB
330
D7
100
AcDbEntity
  8
0
 62
     7
100
AcDbSpline
210
0.0
220
0.0
230
1.0
 70
     8
 71
     3
 72
     8
 73
     4
 74
     0
 42
0.0000000001
 43
0.0000000001
 12
1.0
 22
0.0
 32
0.0
 13
1.0
 23
0.0
 33
0.0
 40
0.0
 40
0.0
 40
0.0
 40
0.0
 40
1.0
 40
1.0
 40
1.0
 40
1.0
 10
47.24608252705249
 20
47.91667149407927
 30
0.0
 10
47.71697029281692
 20
47.91667149407927
 30
0.0
 10
48.02991945150023
 20
47.87950635519974
 30
0.0
 10
48.1848241697705
 20
47.8020716329965
 30
0.0
  0
ENDBLK
  5
DA
330
D7
100
AcDbEntity
  8
0
100
AcDbBlockEnd
  0
BLOCK
  5
DE
330
DC
100
AcDbEntity
  8
0
100
AcDbBlockBegin
  2
BLOCK_29
 70
     0
 10
0.0
 20
0.0
 30
0.0
  3
BLOCK_29
  1

  0
SPLINE
  5
E0
330
DC
100
AcDbEntity
  8
0
 62
     7
100
AcDbSpline
210
0.0
220
0.0
230
1.0
 70
     8
 71
     3
 72
    11
 73
     7
 74
     0
 42
0.0000000001
 43
0.0000000001
 12
1.0
 22
0.0
 32
0.0
 13
1.0
 23
0.0
 33
0.0
 40
0.0
 40
0.0
 40
0.0
 40
0.0
 40
1.0
 40
1.0
 40
1.0
 40
2.0
 40
2.0
 40
2.0
 40
2.0
 10
48.1848241697705
 20
47.8020716329965
 30
0.0
 10
48.33662444367553
 20
47.72767079968175
 30
0.0
 10
48.41407680281067
 20
47.5913574663827
 30
0.0
 10
48.41407680281067
 20
47.3899566330995
 30
0.0
 10
48.41407680281067
 20
47.28775691090306
 30
0.0
 10
48.39857221987289
 20
47.16072163315708
 30
0.0
 10
48.3645291651852
 20
47.01511260541588
 30
0.0
  0
ENDBLK
  5
DF
330
DC
100
AcDbEntity
  8
0
100
AcDbBlockEnd
  0
BLOCK
  5
E3
330
E1
100
AcDbEntity
  8
0
100
AcDbBlockBegin
  2
BLOCK_30
 70
     0
 10
0.0
 20
0.0
 30
0.0
  3
BLOCK_30
  1

  0
SPLINE
  5
E5
330
E1
100
AcDbEntity
  8
0
 62
     7
100
AcDbSpline
210
0.0
220
0.0
230
1.0
 70
     8
 71
     3
 72
     8
 73
     4
 74
     0
 42
0.0000000001
 43
0.0000000001
 12
1.0
 22
0.0
 32
0.0
 13
1.0
 23
0.0
 33
0.0
 40
0.0
 40
0.0
 40
0.0
 40
0.0
 40
1.0
 40
1.0
 40
1.0
 40
1.0
 10
48.22507611318739
 20
46.57516343885903
 30
0.0
 10
48.28922104562534
 20
46.7303684187197
 30
0.0
 10
48.3357810115626
 20
46.87725669341626
 30
0.0
 10
48.3645291651852
 20
47.01511260541588
 30
0.0
  0
ENDBLK
  5
E4
330
E1
100
AcDbEntity
  8
0
100
AcDbBlockEnd
  0
BLOCK
  5
E8
330
E6
100
AcDbEntity
  8
0
100
AcDbBlockBegin
  2
BLOCK_31
 70
     0
 10
0.0
 20
0.0
 30
0.0
  3
BLOCK_31
  1

  0
POLYLINE
  5
EA
330
E6
100
AcDbEntity
  8
0
 62
     7
100
AcDb2dPolyline
 66
     1
 10
0.0
 20
0.0
 30
0.0
  0
VERTEX
  5
EB
330
EA
100
AcDbEntity
  8
0
 62
     7
100
AcDbVertex
100
AcDb2dVertex
 10
48.22507611318803
 20
46.57516343885903
 30
0.0
  0
VERTEX
  5
EC
330
EA
100
AcDbEntity
  8
0
 62
     7
100
AcDbVertex
100
AcDb2dVertex
 10
45.75582575951719
 20
39.96056246829026
 30
0.0
  0
SEQEND
  5
ED
330
EA
100
AcDbEntity
  8
0
 62
     7
  0
ENDBLK
  5
E9
330
E6
100
AcDbEntity
  8
0
100
AcDbBlockEnd
  0
BLOCK
  5
F0
330
EE
100
AcDbEntity
  8
0
100
AcDbBlockBegin
  2
BLOCK_32
 70
     0
 10
0.0
 20
0.0
 30
0.0
  3
BLOCK_32
  1

  0
POLYLINE
  5
F2
330
EE
100
AcDbEntity
  8
0
 62
     7
100
AcDb2dPolyline
 66
     1
 10
0.0
 20
0.0
 30
0.0
  0
VERTEX
  5
F3
330
F2
100
AcDbEntity
  8
0
 62
     7
100
AcDbVertex
100
AcDb2dVertex
 10
45.75582575951719
 20
39.96056246829026
 30
0.0
  0
VERTEX
  5
F4
330
F2
100
AcDbEntity
  8
0
 62
     7
100
AcDbVertex
100
AcDb2dVertex
 10
43.44458456848187
 20
46.42957205000626
 30
0.0
  0
SEQEND
  5
F5
330
F2
100
AcDbEntity
  8
0
 62
     7
  0
ENDBLK
  5
F1
330
EE
100
AcDbEntity
  8
0
100
AcDbBlockEnd
  0
BLOCK
  5
F8
330
F6
100
AcDbEntity
  8
0
100
AcDbBlockBegin
  2
BLOCK_33
 70
     0
 10
0.0
 20
0.0
 30
0.0
  3
BLOCK_33
  1

  0
SPLINE
  5
FA
330
F6
100
AcDbEntity
  8
0
 62
     7
100
AcDbSpline
210
0.0
220
0.0
230
1.0
 70
     8
 71
     3
 72
     8
 73
     4
 74
     0
 42
0.0000000001
 43
0.0000000001
 12
1.0
 22
0.0
 32
0.0
 13
1.0
 23
0.0
 33
0.0
 40
0.0
 40
0.0
 40
0.0
 40
0.0
 40
1.0
 40
1.0
 40
1.0
 40
1.0
 10
43.27727971163906
 20
46.97172093875957
 30
0.0
 10
43.31944340612529
 20
46.80968678879376
 30
0.0
 10
43.37626167180544
 20
46.62556804782856
 30
0.0
 10
43.44458456848187
 20
46.42957205000626
 30
0.0
  0
ENDBLK
  5
F9
330
F6
100
AcDbEntity
  8
0
100
AcDbBlockEnd
  0
BLOCK
  5
FD
330
FB
100
AcDbEntity
  8
0
100
AcDbBlockBegin
  2
BLOCK_34
 70
     0
 10
0.0
 20
0.0
 30
0.0
  3
BLOCK_34
  1

  0
SPLINE
  5
FF
330
FB
100
AcDbEntity
  8
0
 62
     7
100
AcDbSpline
210
0.0
220
0.0
230
1.0
 70
     8
 71
     3
 72
    11
 73
     7
 74
     0
 42
0.0000000001
 43
0.0000000001
 12
1.0
 22
0.0
 32
0.0
 13
1.0
 23
0.0
 33
0.0
 40
0.0
 40
0.0
 40
0.0
 40
0.0
 40
1.0
 40
1.0
 40
1.0
 40
2.0
 40
2.0
 40
2.0
 40
2.0
 10
43.27727971163841
 20
46.97172093875957
 30
0.0
 10
43.24013221258677
 20
47.12976538316461
 30
0.0
 10
43.21841874091786
 20
47.26295663313169
 30
0.0
 10
43.21841874091786
 20
47.37141816088244
 30
0.0
 10
43.21841874091786
 20
47.56036593861271
 30
0.0
 10
43.295871100053
 20
47.69671454968992
 30
0.0
 10
43.45077581832327
 20
47.78656704966728
 30
0.0
  0
ENDBLK
  5
FE
330
FB
100
AcDbEntity
  8
0
100
AcDbBlockEnd
  0
BLOCK
  5
102
330
100
100
AcDbEntity
  8
0
100
AcDbBlockBegin
  2
BLOCK_35
 70
     0
 10
0.0
 20
0.0
 30
0.0
  3
BLOCK_35
  1

  0
SPLINE
  5
104
330
100
100
AcDbEntity
  8
0
 62
     7
100
AcDbSpline
210
0.0
220
0.0
230
1.0
 70
     8
 71
     3
 72
     8
 73
     4
 74
     0
 42
0.0000000001
 43
0.0000000001
 12
1.0
 22
0.0
 32
0.0
 13
1.0
 23
0.0
 33
0.0
 40
0.0
 40
0.0
 40
0.0
 40
0.0
 40
1.0
 40
1.0
 40
1.0
 40
1.0
 10
43.45077581832327
 20
47.78656704966728
 30
0.0
 10
43.6057334532595
 20
47.87331510520112
 30
0.0
 10
43.8566819190795
 20
47.91667149407927
 30
0.0
 10
44.20672566014914
 20
47.91667149407927
 30
0.0
  0
ENDBLK
  5
103
330
100
100
AcDbEntity
  8
0
100
AcDbBlockEnd
  0
BLOCK
  5
107
330
105
100
AcDbEntity
  8
0
100
AcDbBlockBegin
  2
BLOCK_36
 70
     0
 10
0.0
 20
0.0
 30
0.0
  3
BLOCK_36
  1

  0
POLYLINE
  5
109
330
105
100
AcDbEntity
  8
0
 62
     7
100
AcDb2dPolyline
 66
     1
 10
0.0
 20
0.0
 30
0.0
  0
VERTEX
  5
10A
330
109
100
AcDbEntity
  8
0
 62
     7
100
AcDbVertex
100
AcDb2dVertex
 10
44.20672566014914
 20
47.91667149407927
 30
0.0
  0
VERTEX
  5
10B
330
109
100
AcDbEntity
  8
0
 62
     7
100
AcDbVertex
100
AcDb2dVertex
 10
45.17337202437682
 20
47.91667149407927
 30
0.0
  0
SEQEND
  5
10C
330
109
100
AcDbEntity
  8
0
 62
     7
  0
ENDBLK
  5
108
330
105
100
AcDbEntity
  8
0
100
AcDbBlockEnd
  0
BLOCK
  5
10F
330
10D
100
AcDbEntity
  8
0
100
AcDbBlockBegin
  2
BLOCK_37
 70
     0
 10
0.0
 20
0.0
 30
0.0
  3
BLOCK_37
  1

  0
POLYLINE
  5
111
330
10D
100
AcDbEntity
  8
0
 62
     7
100
AcDb2dPolyline
 66
     1
 10
0.0
 20
0.0
 30
0.0
  0
VERTEX
  5
112
330
111
100
AcDbEntity
  8
0
 62
     7
100
AcDbVertex
100
AcDb2dVertex
 10
45.17337202437682
 20
47.91667149407927
 30
0.0
  0
VERTEX
  5
113
330
111
100
AcDbEntity
  8
0
 62
     7
100
AcDbVertex
100
AcDb2dVertex
 10
45.17337202437682
 20
48.37436538285355
 30
0.0
  0
SEQEND
  5
114
330
111
100
AcDbEntity
  8
0
 62
     7
  0
ENDBLK
  5
110
330
10D
100
AcDbEntity
  8
0
100
AcDbBlockEnd
  0
BLOCK
  5
117
330
115
100
AcDbEntity
  8
0
100
AcDbBlockBegin
  2
BLOCK_38
 70
     0
 10
0.0
 20
0.0
 30
0.0
  3
BLOCK_38
  1

  0
SPLINE
  5
119
330
115
100
AcDbEntity
  8
0
 62
     7
100
AcDbSpline
210
0.0
220
0.0
230
1.0
 70
    11
 71
     3
 72
    20
 73
    16
 74
     0
 42
0.0000000001
 43
0.0000000001
 12
1.0
 22
0.0
 32
0.0
 13
1.0
 23
0.0
 33
0.0
 40
0.0
 40
0.0
 40
0.0
 40
0.0
 40
1.0
 40
1.0
 40
1.0
 40
2.0
 40
2.0
 40
2.0
 40
3.0
 40
3.0
 40
3.0
 40
4.0
 40
4.0
 40
4.0
 40
5.0
 40
5.0
 40
5.0
 40
5.0
 10
55.67162240711759
 20
61.68507383532331
 30
0.0
 10
55.67162240711759
 20
61.13278908549236
 30
0.0
 10
55.22390715694851
 20
60.68507383532327
 30
0.0
 10
54.67162240711755
 20
60.68507383532327
 30
0.0
 10
54.11933765728724
 20
60.68507383532327
 30
0.0
 10
53.67162240711816
 20
61.13278908549236
 30
0.0
 10
53.67162240711816
 20
61.68507383532331
 30
0.0
 10
53.67162240711816
 20
62.23735858515362
 30
0.0
 10
54.11933765728724
 20
62.68507383532334
 30
0.0
 10
54.67162240711755
 20
62.68507383532334
 30
0.0
 10
55.22390715694851
 20
62.68507383532334
 30
0.0
 10
55.67162240711759
 20
62.23735858515362
 30
0.0
 10
55.67162240711759
 20
61.68507383532331
 30
0.0
 10
55.67162240711759
 20
61.68507383532331
 30
0.0
 10
55.67162240711759
 20
61.68507383532331
 30
0.0
 10
55.67162240711759
 20
61.68507383532331
 30
0.0
  0
ENDBLK
  5
118
330
115
100
AcDbEntity
  8
0
100
AcDbBlockEnd
  0
BLOCK
  5
11C
330
11A
100
AcDbEntity
  8
0
100
AcDbBlockBegin
  2
BLOCK_39
 70
     0
 10
0.0
 20
0.0
 30
0.0
  3
BLOCK_39
  1

  0
SPLINE
  5
11E
330
11A
100
AcDbEntity
  8
0
 62
     7
100
AcDbSpline
210
0.0
220
0.0
230
1.0
 70
     8
 71
     3
 72
     8
 73
     4
 74
     0
 42
0.0000000001
 43
0.0000000001
 12
1.0
 22
0.0
 32
0.0
 13
1.0
 23
0.0
 33
0.0
 40
0.0
 40
0.0
 40
0.0
 40
0.0
 40
1.0
 40
1.0
 40
1.0
 40
1.0
 10
59.04683403154611
 20
49.32945829928165
 30
0.0
 10
59.25579252963151
 20
49.4853406718149
 30
0.0
 10
59.45491495056557
 20
49.65443450692143
 30
0.0
 10
59.64417498851285
 20
49.83671746580542
 30
0.0
  0
ENDBLK
  5
11D
330
11A
100
AcDbEntity
  8
0
100
AcDbBlockEnd
  0
BLOCK
  5
121
330
11F
100
AcDbEntity
  8
0
100
AcDbBlockBegin
  2
BLOCK_40
 70
     0
 10
0.0
 20
0.0
 30
0.0
  3
BLOCK_40
  1

  0
SPLINE
  5
123
330
11F
100
AcDbEntity
  8
0
 62
     7
100
AcDbSpline
210
0.0
220
0.0
230
1.0
 70
     8
 71
     3
 72
    14
 73
    10
 74
     0
 42
0.0000000001
 43
0.0000000001
 12
1.0
 22
0.0
 32
0.0
 13
1.0
 23
0.0
 33
0.0
 40
0.0
 40
0.0
 40
0.0
 40
0.0
 40
1.0
 40
1.0
 40
1.0
 40
2.0
 40
2.0
 40
2.0
 40
3.0
 40
3.0
 40
3.0
 40
3.0
 10
59.6441749885289
 20
49.83671746582147
 30
0.0
 10
60.90512620635935
 20
51.04812107662973
 30
0.0
 10
61.53407605142461
 20
52.64055996512023
 30
0.0
 10
61.53407605142461
 20
54.62031357573635
 30
0.0
 10
61.53407605142461
 20
56.59385829746542
 30
0.0
 10
60.90642152138229
 20
58.18461112315505
 30
0.0
 10
59.65038387725938
 20
59.3915095467662
 30
0.0
 10
58.91143946961517
 20
60.10154466784248
 30
0.0
 10
58.03259065990371
 20
60.60199803816949
 30
0.0
 10
57.01442850663128
 20
60.89401035258176
 30
0.0
  0
ENDBLK
  5
122
330
11F
100
AcDbEntity
  8
0
100
AcDbBlockEnd
  0
BLOCK
  5
126
330
124
100
AcDbEntity
  8
0
100
AcDbBlockBegin
  2
BLOCK_41
 70
     0
 10
0.0
 20
0.0
 30
0.0
  3
BLOCK_41
  1

  0
SPLINE
  5
128
330
124
100
AcDbEntity
  8
0
 62
     7
100
AcDbSpline
210
0.0
220
0.0
230
1.0
 70
     8
 71
     3
 72
    17
 73
    13
 74
     0
 42
0.0000000001
 43
0.0000000001
 12
1.0
 22
0.0
 32
0.0
 13
1.0
 23
0.0
 33
0.0
 40
0.0
 40
0.0
 40
0.0
 40
0.0
 40
1.0
 40
1.0
 40
1.0
 40
2.0
 40
2.0
 40
2.0
 40
3.0
 40
3.0
 40
3.0
 40
4.0
 40
4.0
 40
4.0
 40
4.0
 10
56.65614282209276
 20
61.43672182195024
 30
0.0
 10
56.64805804363604
 20
61.37211832758051
 30
0.0
 10
56.65266905908666
 20
61.30655334081766
 30
0.0
 10
56.66971632821154
 20
61.24371731816451
 30
0.0
 10
56.68676359733512
 20
61.18088129551198
 30
0.0
 10
56.71592115776451
 20
61.12197573021892
 30
0.0
 10
56.75554781785386
 20
61.07031623992292
 30
0.0
 10
56.78793202259012
 20
61.02809841216453
 30
0.0
 10
56.82684857968007
 20
60.99131922636536
 30
0.0
 10
56.87082650761936
 20
60.96136887492924
 30
0.0
 10
56.91480443555928
 20
60.93141852349376
 30
0.0
 10
56.96328256628875
 20
60.90867917951126
 30
0.0
 10
57.01442850663128
 20
60.89401035258176
 30
0.0
  0
ENDBLK
  5
127
330
124
100
AcDbEntity
  8
0
100
AcDbBlockEnd
  0
BLOCK
  5
12B
330
129
100
AcDbEntity
  8
0
100
AcDbBlockBegin
  2
BLOCK_42
 70
     0
 10
0.0
 20
0.0
 30
0.0
  3
BLOCK_42
  1

  0
SPLINE
  5
12D
330
129
100
AcDbEntity
  8
0
 62
     7
100
AcDbSpline
210
0.0
220
0.0
230
1.0
 70
     8
 71
     3
 72
    14
 73
    10
 74
     0
 42
0.0000000001
 43
0.0000000001
 12
1.0
 22
0.0
 32
0.0
 13
1.0
 23
0.0
 33
0.0
 40
0.0
 40
0.0
 40
0.0
 40
0.0
 40
1.0
 40
1.0
 40
1.0
 40
2.0
 40
2.0
 40
2.0
 40
3.0
 40
3.0
 40
3.0
 40
3.0
 10
56.65614282209276
 20
61.43672182195024
 30
0.0
 10
56.79330385166865
 20
62.53274218286899
 30
0.0
 10
56.01599478140936
 20
63.53243322072263
 30
0.0
 10
54.91997442049062
 20
63.66959425029852
 30
0.0
 10
53.82395405957188
 20
63.80675527987377
 30
0.0
 10
52.82426302171823
 20
63.02944620961448
 30
0.0
 10
52.68710199214235
 20
61.93342584869573
 30
0.0
 10
52.66644566679376
 20
61.76836618681941
 30
0.0
 10
52.66646262467076
 20
61.60137423787393
 30
0.0
 10
52.68715247290463
 20
61.43631877466265
 30
0.0
  0
ENDBLK
  5
12C
330
129
100
AcDbEntity
  8
0
100
AcDbBlockEnd
  0
BLOCK
  5
130
330
12E
100
AcDbEntity
  8
0
100
AcDbBlockBegin
  2
BLOCK_43
 70
     0
 10
0.0
 20
0.0
 30
0.0
  3
BLOCK_43
  1

  0
SPLINE
  5
132
330
12E
100
AcDbEntity
  8
0
 62
     7
100
AcDbSpline
210
0.0
220
0.0
230
1.0
 70
     8
 71
     3
 72
     8
 73
     4
 74
     0
 42
0.0000000001
 43
0.0000000001
 12
1.0
 22
0.0
 32
0.0
 13
1.0
 23
0.0
 33
0.0
 40
0.0
 40
0.0
 40
0.0
 40
0.0
 40
1.0
 40
1.0
 40
1.0
 40
1.0
 10
52.32906621457136
 20
60.89356015935709
 30
0.0
 10
52.56583454133342
 20
60.96156572031079
 30
0.0
 10
52.71779178551932
 20
61.19189040192122
 30
0.0
 10
52.68715247290463
 20
61.43631877466265
 30
0.0
  0
ENDBLK
  5
131
330
12E
100
AcDbEntity
  8
0
100
AcDbBlockEnd
  0
BLOCK
  5
135
330
133
100
AcDbEntity
  8
0
100
AcDbBlockBegin
  2
BLOCK_44
 70
     0
 10
0.0
 20
0.0
 30
0.0
  3
BLOCK_44
  1

  0
SPLINE
  5
137
330
133
100
AcDbEntity
  8
0
 62
     7
100
AcDbSpline
210
0.0
220
0.0
230
1.0
 70
     8
 71
     3
 72
     8
 73
     4
 74
     0
 42
0.0000000001
 43
0.0000000001
 12
1.0
 22
0.0
 32
0.0
 13
1.0
 23
0.0
 33
0.0
 40
0.0
 40
0.0
 40
0.0
 40
0.0
 40
1.0
 40
1.0
 40
1.0
 40
1.0
 10
52.32906621457136
 20
60.89356015935709
 30
0.0
 10
51.31145792672416
 20
60.60127857172872
 30
0.0
 10
50.43154955520564
 20
60.1005229264934
 30
0.0
 10
49.68972121488782
 20
59.39150954693626
 30
0.0
  0
ENDBLK
  5
136
330
133
100
AcDbEntity
  8
0
100
AcDbBlockEnd
  0
BLOCK
  5
13A
330
138
100
AcDbEntity
  8
0
100
AcDbBlockBegin
  2
BLOCK_45
 70
     0
 10
0.0
 20
0.0
 30
0.0
  3
BLOCK_45
  1

  0
SPLINE
  5
13C
330
138
100
AcDbEntity
  8
0
 62
     7
100
AcDbSpline
210
0.0
220
0.0
230
1.0
 70
     8
 71
     3
 72
    11
 73
     7
 74
     0
 42
0.0000000001
 43
0.0000000001
 12
1.0
 22
0.0
 32
0.0
 13
1.0
 23
0.0
 33
0.0
 40
0.0
 40
0.0
 40
0.0
 40
0.0
 40
1.0
 40
1.0
 40
1.0
 40
2.0
 40
2.0
 40
2.0
 40
2.0
 10
49.68972121471072
 20
59.3915095467662
 30
0.0
 10
48.42876999688026
 20
58.18321038040148
 30
0.0
 10
47.79673334633819
 20
56.59385829746542
 30
0.0
 10
47.79673334633819
 20
54.62031357573635
 30
0.0
 10
47.79673334633819
 20
53.22347232608571
 30
0.0
 10
48.11347486603522
 20
52.01760732638716
 30
0.0
 10
48.74563498879636
 20
51.00146621553008
 30
0.0
  0
ENDBLK
  5
13B
330
138
100
AcDbEntity
  8
0
100
AcDbBlockEnd
  0
BLOCK
  5
13F
330
13D
100
AcDbEntity
  8
0
100
AcDbBlockBegin
  2
BLOCK_46
 70
     0
 10
0.0
 20
0.0
 30
0.0
  3
BLOCK_46
  1

  0
SPLINE
  5
141
330
13D
100
AcDbEntity
  8
0
 62
     7
100
AcDbSpline
210
0.0
220
0.0
230
1.0
 70
     8
 71
     3
 72
     8
 73
     4
 74
     0
 42
0.0000000001
 43
0.0000000001
 12
1.0
 22
0.0
 32
0.0
 13
1.0
 23
0.0
 33
0.0
 40
0.0
 40
0.0
 40
0.0
 40
0.0
 40
1.0
 40
1.0
 40
1.0
 40
1.0
 10
48.74563498879636
 20
51.00146621553008
 30
0.0
 10
48.70331929543148
 20
50.90011315999988
 30
0.0
 10
48.65736999104818
 20
50.80412232669049
 30
0.0
 10
48.60773415898117
 20
50.713511354491
 30
0.0
  0
ENDBLK
  5
140
330
13D
100
AcDbEntity
  8
0
100
AcDbBlockEnd
  0
BLOCK
  5
144
330
142
100
AcDbEntity
  8
0
100
AcDbBlockBegin
  2
BLOCK_47
 70
     0
 10
0.0
 20
0.0
 30
0.0
  3
BLOCK_47
  1

  0
SPLINE
  5
146
330
142
100
AcDbEntity
  8
0
 62
     7
100
AcDbSpline
210
0.0
220
0.0
230
1.0
 70
     8
 71
     3
 72
    11
 73
     7
 74
     0
 42
0.0000000001
 43
0.0000000001
 12
1.0
 22
0.0
 32
0.0
 13
1.0
 23
0.0
 33
0.0
 40
0.0
 40
0.0
 40
0.0
 40
0.0
 40
1.0
 40
1.0
 40
1.0
 40
2.0
 40
2.0
 40
2.0
 40
2.0
 10
48.60773415898117
 20
50.713511354491
 30
0.0
 10
48.42492471920058
 20
50.3819707990183
 30
0.0
 10
48.13058364563734
 20
50.14342519007631
 30
0.0
 10
47.71852251499954
 20
50.00091788244698
 30
0.0
 10
47.3064771389202
 20
49.8584160233767
 30
0.0
 10
46.68682393020989
 20
49.78711691027809
 30
0.0
 10
45.85652617361477
 20
49.78711691027809
 30
0.0
  0
ENDBLK
  5
145
330
142
100
AcDbEntity
  8
0
100
AcDbBlockEnd
  0
BLOCK
  5
149
330
147
100
AcDbEntity
  8
0
100
AcDbBlockBegin
  2
BLOCK_48
 70
     0
 10
0.0
 20
0.0
 30
0.0
  3
BLOCK_48
  1

  0
POLYLINE
  5
14B
330
147
100
AcDbEntity
  8
0
 62
     7
100
AcDb2dPolyline
 66
     1
 10
0.0
 20
0.0
 30
0.0
  0
VERTEX
  5
14C
330
14B
100
AcDbEntity
  8
0
 62
     7
100
AcDbVertex
100
AcDb2dVertex
 10
45.85652617361477
 20
49.78711691027809
 30
0.0
  0
VERTEX
  5
14D
330
14B
100
AcDbEntity
  8
0
 62
     7
100
AcDbVertex
100
AcDb2dVertex
 10
43.52978039964167
 20
49.78711691027809
 30
0.0
  0
SEQEND
  5
14E
330
14B
100
AcDbEntity
  8
0
 62
     7
  0
ENDBLK
  5
14A
330
147
100
AcDbEntity
  8
0
100
AcDbBlockEnd
  0
BLOCK
  5
151
330
14F
100
AcDbEntity
  8
0
100
AcDbBlockBegin
  2
BLOCK_49
 70
     0
 10
0.0
 20
0.0
 30
0.0
  3
BLOCK_49
  1

  0
POLYLINE
  5
153
330
14F
100
AcDbEntity
  8
0
 62
     7
100
AcDb2dPolyline
 66
     1
 10
0.0
 20
0.0
 30
0.0
  0
VERTEX
  5
154
330
153
100
AcDbEntity
  8
0
 62
     7
100
AcDbVertex
100
AcDb2dVertex
 10
43.52978039964167
 20
49.78711691027809
 30
0.0
  0
VERTEX
  5
155
330
153
100
AcDbEntity
  8
0
 62
     7
100
AcDbVertex
100
AcDb2dVertex
 10
43.52978039964167
 20
58.28235857482099
 30
0.0
  0
SEQEND
  5
156
330
153
100
AcDbEntity
  8
0
 62
     7
  0
ENDBLK
  5
152
330
14F
100
AcDbEntity
  8
0
100
AcDbBlockEnd
  0
BLOCK
  5
159
330
157
100
AcDbEntity
  8
0
100
AcDbBlockBegin
  2
BLOCK_50
 70
     0
 10
0.0
 20
0.0
 30
0.0
  3
BLOCK_50
  1

  0
SPLINE
  5
15B
330
157
100
AcDbEntity
  8
0
 62
     7
100
AcDbSpline
210
0.0
220
0.0
230
1.0
 70
     8
 71
     3
 72
     8
 73
     4
 74
     0
 42
0.0000000001
 43
0.0000000001
 12
1.0
 22
0.0
 32
0.0
 13
1.0
 23
0.0
 33
0.0
 40
0.0
 40
0.0
 40
0.0
 40
0.0
 40
1.0
 40
1.0
 40
1.0
 40
1.0
 10
43.73426803331686
 20
59.23662246347514
 30
0.0
 10
43.5980916805593
 20
59.10347766590196
 30
0.0
 10
43.52978045769811
 20
58.78469587947071
 30
0.0
 10
43.52978039964103
 20
58.28235857482099
 30
0.0
  0
ENDBLK
  5
15A
330
157
100
AcDbEntity
  8
0
100
AcDbBlockEnd
  0
BLOCK
  5
15E
330
15C
100
AcDbEntity
  8
0
100
AcDbBlockBegin
  2
BLOCK_51
 70
     0
 10
0.0
 20
0.0
 30
0.0
  3
BLOCK_51
  1

  0
SPLINE
  5
160
330
15C
100
AcDbEntity
  8
0
 62
     7
100
AcDbSpline
210
0.0
220
0.0
230
1.0
 70
     8
 71
     3
 72
     8
 73
     4
 74
     0
 42
0.0000000001
 43
0.0000000001
 12
1.0
 22
0.0
 32
0.0
 13
1.0
 23
0.0
 33
0.0
 40
0.0
 40
0.0
 40
0.0
 40
0.0
 40
1.0
 40
1.0
 40
1.0
 40
1.0
 10
43.73426803331365
 20
59.23662246347129
 30
0.0
 10
43.8705813631687
 20
59.36981371343837
 30
0.0
 10
44.21757357653905
 20
59.43486593564372
 30
0.0
 10
44.77527995119966
 20
59.43486593564372
 30
0.0
  0
ENDBLK
  5
15F
330
15C
100
AcDbEntity
  8
0
100
AcDbBlockEnd
  0
BLOCK
  5
163
330
161
100
AcDbEntity
  8
0
100
AcDbBlockBegin
  2
BLOCK_52
 70
     0
 10
0.0
 20
0.0
 30
0.0
  3
BLOCK_52
  1

  0
POLYLINE
  5
165
330
161
100
AcDbEntity
  8
0
 62
     7
100
AcDb2dPolyline
 66
     1
 10
0.0
 20
0.0
 30
0.0
  0
VERTEX
  5
166
330
165
100
AcDbEntity
  8
0
 62
     7
100
AcDbVertex
100
AcDb2dVertex
 10
44.77527995119966
 20
59.43486593564372
 30
0.0
  0
VERTEX
  5
167
330
165
100
AcDbEntity
  8
0
 62
     7
100
AcDbVertex
100
AcDb2dVertex
 10
45.64896937335379
 20
59.43486593564372
 30
0.0
  0
SEQEND
  5
168
330
165
100
AcDbEntity
  8
0
 62
     7
  0
ENDBLK
  5
164
330
161
100
AcDbEntity
  8
0
100
AcDbBlockEnd
  0
BLOCK
  5
16B
330
169
100
AcDbEntity
  8
0
100
AcDbBlockBegin
  2
BLOCK_53
 70
     0
 10
0.0
 20
0.0
 30
0.0
  3
BLOCK_53
  1

  0
POLYLINE
  5
16D
330
169
100
AcDbEntity
  8
0
 62
     7
100
AcDb2dPolyline
 66
     1
 10
0.0
 20
0.0
 30
0.0
  0
VERTEX
  5
16E
330
16D
100
AcDbEntity
  8
0
 62
     7
100
AcDbVertex
100
AcDb2dVertex
 10
45.64896937335379
 20
59.43486593564372
 30
0.0
  0
VERTEX
  5
16F
330
16D
100
AcDbEntity
  8
0
 62
     7
100
AcDbVertex
100
AcDb2dVertex
 10
45.64896937335379
 20
60.84767037973518
 30
0.0
  0
SEQEND
  5
170
330
16D
100
AcDbEntity
  8
0
 62
     7
  0
ENDBLK
  5
16C
330
169
100
AcDbEntity
  8
0
100
AcDbBlockEnd
  0
BLOCK
  5
173
330
171
100
AcDbEntity
  8
0
100
AcDbBlockBegin
  2
BLOCK_54
 70
     0
 10
0.0
 20
0.0
 30
0.0
  3
BLOCK_54
  1

  0
POLYLINE
  5
175
330
171
100
AcDbEntity
  8
0
 62
     7
100
AcDb2dPolyline
 66
     1
 10
0.0
 20
0.0
 30
0.0
  0
VERTEX
  5
176
330
175
100
AcDbEntity
  8
0
 62
     7
100
AcDbVertex
100
AcDb2dVertex
 10
45.64896937335379
 20
60.84767037973518
 30
0.0
  0
VERTEX
  5
177
330
175
100
AcDbEntity
  8
0
 62
     7
100
AcDbVertex
100
AcDb2dVertex
 10
38.95688093297272
 20
60.84767037973518
 30
0.0
  0
SEQEND
  5
178
330
175
100
AcDbEntity
  8
0
 62
     7
  0
ENDBLK
  5
174
330
171
100
AcDbEntity
  8
0
100
AcDbBlockEnd
  0
BLOCK
  5
17B
330
179
100
AcDbEntity
  8
0
100
AcDbBlockBegin
  2
BLOCK_55
 70
     0
 10
0.0
 20
0.0
 30
0.0
  3
BLOCK_55
  1

  0
POLYLINE
  5
17D
330
179
100
AcDbEntity
  8
0
 62
     7
100
AcDb2dPolyline
 66
     1
 10
0.0
 20
0.0
 30
0.0
  0
VERTEX
  5
17E
330
17D
100
AcDbEntity
  8
0
 62
     7
100
AcDbVertex
100
AcDb2dVertex
 10
38.95688093297272
 20
60.84767037973518
 30
0.0
  0
VERTEX
  5
17F
330
17D
100
AcDbEntity
  8
0
 62
     7
100
AcDbVertex
100
AcDb2dVertex
 10
38.95688093297272
 20
59.43486593564372
 30
0.0
  0
SEQEND
  5
180
330
17D
100
AcDbEntity
  8
0
 62
     7
  0
ENDBLK
  5
17C
330
179
100
AcDbEntity
  8
0
100
AcDbBlockEnd
  0
BLOCK
  5
183
330
181
100
AcDbEntity
  8
0
100
AcDbBlockBegin
  2
BLOCK_56
 70
     0
 10
0.0
 20
0.0
 30
0.0
  3
BLOCK_56
  1

  0
POLYLINE
  5
185
330
181
100
AcDbEntity
  8
0
 62
     7
100
AcDb2dPolyline
 66
     1
 10
0.0
 20
0.0
 30
0.0
  0
VERTEX
  5
186
330
185
100
AcDbEntity
  8
0
 62
     7
100
AcDbVertex
100
AcDb2dVertex
 10
38.95688093297272
 20
59.43486593564372
 30
0.0
  0
VERTEX
  5
187
330
185
100
AcDbEntity
  8
0
 62
     7
100
AcDbVertex
100
AcDb2dVertex
 10
39.68182160892239
 20
59.43486593564372
 30
0.0
  0
SEQEND
  5
188
330
185
100
AcDbEntity
  8
0
 62
     7
  0
ENDBLK
  5
184
330
181
100
AcDbEntity
  8
0
100
AcDbBlockEnd
  0
BLOCK
  5
18B
330
189
100
AcDbEntity
  8
0
100
AcDbBlockBegin
  2
BLOCK_57
 70
     0
 10
0.0
 20
0.0
 30
0.0
  3
BLOCK_57
  1

  0
SPLINE
  5
18D
330
189
100
AcDbEntity
  8
0
 62
     7
100
AcDbSpline
210
0.0
220
0.0
230
1.0
 70
     8
 71
     3
 72
    11
 73
     7
 74
     0
 42
0.0000000001
 43
0.0000000001
 12
1.0
 22
0.0
 32
0.0
 13
1.0
 23
0.0
 33
0.0
 40
0.0
 40
0.0
 40
0.0
 40
0.0
 40
1.0
 40
1.0
 40
1.0
 40
2.0
 40
2.0
 40
2.0
 40
2.0
 10
39.68182160892239
 20
59.43486593564372
 30
0.0
 10
40.23331909485188
 20
59.43486593564372
 30
0.0
 10
40.57722470817126
 20
59.36981392376485
 30
0.0
 10
40.71043338823588
 20
59.23970926902574
 30
0.0
 10
40.84367775698421
 20
59.10956975721983
 30
0.0
 10
40.90872977206516
 20
58.79046440802737
 30
0.0
 10
40.90872977206516
 20
58.28235857482099
 30
0.0
  0
ENDBLK
  5
18C
330
189
100
AcDbEntity
  8
0
100
AcDbBlockEnd
  0
BLOCK
  5
190
330
18E
100
AcDbEntity
  8
0
100
AcDbBlockBegin
  2
BLOCK_58
 70
     0
 10
0.0
 20
0.0
 30
0.0
  3
BLOCK_58
  1

  0
POLYLINE
  5
192
330
18E
100
AcDbEntity
  8
0
 62
     7
100
AcDb2dPolyline
 66
     1
 10
0.0
 20
0.0
 30
0.0
  0
VERTEX
  5
193
330
192
100
AcDbEntity
  8
0
 62
     7
100
AcDbVertex
100
AcDb2dVertex
 10
40.90872977206516
 20
58.28235857482099
 30
0.0
  0
VERTEX
  5
194
330
192
100
AcDbEntity
  8
0
 62
     7
100
AcDbVertex
100
AcDb2dVertex
 10
40.90872977206516
 20
50.93965954887898
 30
0.0
  0
SEQEND
  5
195
330
192
100
AcDbEntity
  8
0
 62
     7
  0
ENDBLK
  5
191
330
18E
100
AcDbEntity
  8
0
100
AcDbBlockEnd
  0
BLOCK
  5
198
330
196
100
AcDbEntity
  8
0
100
AcDbBlockBegin
  2
BLOCK_59
 70
     0
 10
0.0
 20
0.0
 30
0.0
  3
BLOCK_59
  1

  0
SPLINE
  5
19A
330
196
100
AcDbEntity
  8
0
 62
     7
100
AcDbSpline
210
0.0
220
0.0
230
1.0
 70
     8
 71
     3
 72
     8
 73
     4
 74
     0
 42
0.0000000001
 43
0.0000000001
 12
1.0
 22
0.0
 32
0.0
 13
1.0
 23
0.0
 33
0.0
 40
0.0
 40
0.0
 40
0.0
 40
0.0
 40
1.0
 40
1.0
 40
1.0
 40
1.0
 10
40.90872977206516
 20
50.93965954887898
 30
0.0
 10
40.90872977206516
 20
50.43157135456168
 30
0.0
 10
40.8436775515032
 20
50.11246621575217
 30
0.0
 10
40.71043338823588
 20
49.98230885467359
 30
0.0
  0
ENDBLK
  5
199
330
196
100
AcDbEntity
  8
0
100
AcDbBlockEnd
  0
BLOCK
  5
19D
330
19B
100
AcDbEntity
  8
0
100
AcDbBlockBegin
  2
BLOCK_60
 70
     0
 10
0.0
 20
0.0
 30
0.0
  3
BLOCK_60
  1

  0
SPLINE
  5
19F
330
19B
100
AcDbEntity
  8
0
 62
     7
100
AcDbSpline
210
0.0
220
0.0
230
1.0
 70
     8
 71
     3
 72
     8
 73
     4
 74
     0
 42
0.0000000001
 43
0.0000000001
 12
1.0
 22
0.0
 32
0.0
 13
1.0
 23
0.0
 33
0.0
 40
0.0
 40
0.0
 40
0.0
 40
0.0
 40
1.0
 40
1.0
 40
1.0
 40
1.0
 10
39.68182160892753
 20
49.78711691027809
 30
0.0
 10
40.23372836368053
 20
49.78711695397202
 30
0.0
 10
40.57732349285055
 20
49.8523184252136
 30
0.0
 10
40.71043338823588
 20
49.98230885467359
 30
0.0
  0
ENDBLK
  5
19E
330
19B
100
AcDbEntity
  8
0
100
AcDbBlockEnd
  0
BLOCK
  5
1A2
330
1A0
100
AcDbEntity
  8
0
100
AcDbBlockBegin
  2
BLOCK_61
 70
     0
 10
0.0
 20
0.0
 30
0.0
  3
BLOCK_61
  1

  0
POLYLINE
  5
1A4
330
1A0
100
AcDbEntity
  8
0
 62
     7
100
AcDb2dPolyline
 66
     1
 10
0.0
 20
0.0
 30
0.0
  0
VERTEX
  5
1A5
330
1A4
100
AcDbEntity
  8
0
 62
     7
100
AcDbVertex
100
AcDb2dVertex
 10
39.68182160892753
 20
49.78711691027809
 30
0.0
  0
VERTEX
  5
1A6
330
1A4
100
AcDbEntity
  8
0
 62
     7
100
AcDbVertex
100
AcDb2dVertex
 10
38.95688093297272
 20
49.78711691027809
 30
0.0
  0
SEQEND
  5
1A7
330
1A4
100
AcDbEntity
  8
0
 62
     7
  0
ENDBLK
  5
1A3
330
1A0
100
AcDbEntity
  8
0
100
AcDbBlockEnd
  0
BLOCK
  5
1AA
330
1A8
100
AcDbEntity
  8
0
100
AcDbBlockBegin
  2
BLOCK_62
 70
     0
 10
0.0
 20
0.0
 30
0.0
  3
BLOCK_62
  1

  0
POLYLINE
  5
1AC
330
1A8
100
AcDbEntity
  8
0
 62
     7
100
AcDb2dPolyline
 66
     1
 10
0.0
 20
0.0
 30
0.0
  0
VERTEX
  5
1AD
330
1AC
100
AcDbEntity
  8
0
 62
     7
100
AcDbVertex
100
AcDb2dVertex
 10
38.95688093297272
 20
49.78711691027809
 30
0.0
  0
VERTEX
  5
1AE
330
1AC
100
AcDbEntity
  8
0
 62
     7
100
AcDbVertex
100
AcDb2dVertex
 10
38.95688093297272
 20
49.32945829928165
 30
0.0
  0
SEQEND
  5
1AF
330
1AC
100
AcDbEntity
  8
0
 62
     7
  0
ENDBLK
  5
1AB
330
1A8
100
AcDbEntity
  8
0
100
AcDbBlockEnd
  0
BLOCK
  5
1B2
330
1B0
100
AcDbEntity
  8
0
100
AcDbBlockBegin
  2
BLOCK_63
 70
     0
 10
0.0
 20
0.0
 30
0.0
  3
BLOCK_63
  1

  0
POLYLINE
  5
1B4
330
1B0
100
AcDbEntity
  8
0
 62
     7
100
AcDb2dPolyline
 66
     1
 10
0.0
 20
0.0
 30
0.0
  0
VERTEX
  5
1B5
330
1B4
100
AcDbEntity
  8
0
 62
     7
100
AcDbVertex
100
AcDb2dVertex
 10
38.95688093297272
 20
49.32945829928165
 30
0.0
  0
VERTEX
  5
1B6
330
1B4
100
AcDbEntity
  8
0
 62
     7
100
AcDbVertex
100
AcDb2dVertex
 10
38.65172816298004
 20
49.32945829928165
 30
0.0
  0
SEQEND
  5
1B7
330
1B4
100
AcDbEntity
  8
0
 62
     7
  0
ENDBLK
  5
1B3
330
1B0
100
AcDbEntity
  8
0
100
AcDbBlockEnd
  0
BLOCK
  5
1BA
330
1B8
100
AcDbEntity
  8
0
100
AcDbBlockBegin
  2
BLOCK_64
 70
     0
 10
0.0
 20
0.0
 30
0.0
  3
BLOCK_64
  1

  0
POLYLINE
  5
1BC
330
1B8
100
AcDbEntity
  8
0
 62
     7
100
AcDb2dPolyline
 66
     1
 10
0.0
 20
0.0
 30
0.0
  0
VERTEX
  5
1BD
330
1BC
100
AcDbEntity
  8
0
 62
     7
100
AcDbVertex
100
AcDb2dVertex
 10
38.65172816298004
 20
49.32945829928165
 30
0.0
  0
VERTEX
  5
1BE
330
1BC
100
AcDbEntity
  8
0
 62
     7
100
AcDbVertex
100
AcDb2dVertex
 10
38.65172816298004
 20
47.91667149407927
 30
0.0
  0
SEQEND
  5
1BF
330
1BC
100
AcDbEntity
  8
0
 62
     7
  0
ENDBLK
  5
1BB
330
1B8
100
AcDbEntity
  8
0
100
AcDbBlockEnd
  0
BLOCK
  5
1C2
330
1C0
100
AcDbEntity
  8
0
100
AcDbBlockBegin
  2
BLOCK_65
 70
     0
 10
0.0
 20
0.0
 30
0.0
  3
BLOCK_65
  1

  0
POLYLINE
  5
1C4
330
1C0
100
AcDbEntity
  8
0
 62
     7
100
AcDb2dPolyline
 66
     1
 10
0.0
 20
0.0
 30
0.0
  0
VERTEX
  5
1C5
330
1C4
100
AcDbEntity
  8
0
 62
     7
100
AcDbVertex
100
AcDb2dVertex
 10
38.65172816298004
 20
47.91667149407927
 30
0.0
  0
VERTEX
  5
1C6
330
1C4
100
AcDbEntity
  8
0
 62
     7
100
AcDbVertex
100
AcDb2dVertex
 10
39.19077259367232
 20
47.91667149407927
 30
0.0
  0
SEQEND
  5
1C7
330
1C4
100
AcDbEntity
  8
0
 62
     7
  0
ENDBLK
  5
1C3
330
1C0
100
AcDbEntity
  8
0
100
AcDbBlockEnd
  0
BLOCK
  5
1CA
330
1C8
100
AcDbEntity
  8
0
100
AcDbBlockBegin
  2
BLOCK_66
 70
     0
 10
0.0
 20
0.0
 30
0.0
  3
BLOCK_66
  1

  0
SPLINE
  5
1CC
330
1C8
100
AcDbEntity
  8
0
 62
     7
100
AcDbSpline
210
0.0
220
0.0
230
1.0
 70
     8
 71
     3
 72
     8
 73
     4
 74
     0
 42
0.0000000001
 43
0.0000000001
 12
1.0
 22
0.0
 32
0.0
 13
1.0
 23
0.0
 33
0.0
 40
0.0
 40
0.0
 40
0.0
 40
0.0
 40
1.0
 40
1.0
 40
1.0
 40
1.0
 10
40.06758409908077
 20
47.66261857747511
 30
0.0
 10
39.86149323152595
 20
47.83176539586175
 30
0.0
 10
39.56846031851573
 20
47.91667060724606
 30
0.0
 10
39.19077259367232
 20
47.91667149407927
 30
0.0
  0
ENDBLK
  5
1CB
330
1C8
100
AcDbEntity
  8
0
100
AcDbBlockEnd
  0
BLOCK
  5
1CF
330
1CD
100
AcDbEntity
  8
0
100
AcDbBlockBegin
  2
BLOCK_67
 70
     0
 10
0.0
 20
0.0
 30
0.0
  3
BLOCK_67
  1

  0
SPLINE
  5
1D1
330
1CD
100
AcDbEntity
  8
0
 62
     7
100
AcDbSpline
210
0.0
220
0.0
230
1.0
 70
     8
 71
     3
 72
     8
 73
     4
 74
     0
 42
0.0000000001
 43
0.0000000001
 12
1.0
 22
0.0
 32
0.0
 13
1.0
 23
0.0
 33
0.0
 40
0.0
 40
0.0
 40
0.0
 40
0.0
 40
1.0
 40
1.0
 40
1.0
 40
1.0
 10
40.06758409908077
 20
47.66261857747576
 30
0.0
 10
40.27517617711799
 20
47.49220927196319
 30
0.0
 10
40.46101950571006
 20
47.17931302204139
 30
0.0
 10
40.62521991818763
 20
46.71766802215669
 30
0.0
  0
ENDBLK
  5
1D0
330
1CD
100
AcDbEntity
  8
0
100
AcDbBlockEnd
  0
BLOCK
  5
1D4
330
1D2
100
AcDbEntity
  8
0
100
AcDbBlockBegin
  2
BLOCK_68
 70
     0
 10
0.0
 20
0.0
 30
0.0
  3
BLOCK_68
  1

  0
POLYLINE
  5
1D6
330
1D2
100
AcDbEntity
  8
0
 62
     7
100
AcDb2dPolyline
 66
     1
 10
0.0
 20
0.0
 30
0.0
  0
VERTEX
  5
1D7
330
1D6
100
AcDbEntity
  8
0
 62
     7
100
AcDbVertex
100
AcDb2dVertex
 10
40.62521991818763
 20
46.71766802215669
 30
0.0
  0
VERTEX
  5
1D8
330
1D6
100
AcDbEntity
  8
0
 62
     7
100
AcDbVertex
100
AcDb2dVertex
 10
44.11692607910678
 20
36.85617094128878
 30
0.0
  0
SEQEND
  5
1D9
330
1D6
100
AcDbEntity
  8
0
 62
     7
  0
ENDBLK
  5
1D5
330
1D2
100
AcDbEntity
  8
0
100
AcDbBlockEnd
  0
BLOCK
  5
1DC
330
1DA
100
AcDbEntity
  8
0
100
AcDbBlockBegin
  2
BLOCK_69
 70
     0
 10
0.0
 20
0.0
 30
0.0
  3
BLOCK_69
  1

  0
POLYLINE
  5
1DE
330
1DA
100
AcDbEntity
  8
0
 62
     7
100
AcDb2dPolyline
 66
     1
 10
0.0
 20
0.0
 30
0.0
  0
VERTEX
  5
1DF
330
1DE
100
AcDbEntity
  8
0
 62
     7
100
AcDbVertex
100
AcDb2dVertex
 10
44.11692607910678
 20
36.85617094128878
 30
0.0
  0
VERTEX
  5
1E0
330
1DE
100
AcDbEntity
  8
0
 62
     7
100
AcDbVertex
100
AcDb2dVertex
 10
46.70077629096441
 20
36.85617094128878
 30
0.0
  0
SEQEND
  5
1E1
330
1DE
100
AcDbEntity
  8
0
 62
     7
  0
ENDBLK
  5
1DD
330
1DA
100
AcDbEntity
  8
0
100
AcDbBlockEnd
  0
BLOCK
  5
1E4
330
1E2
100
AcDbEntity
  8
0
100
AcDbBlockBegin
  2
BLOCK_70
 70
     0
 10
0.0
 20
0.0
 30
0.0
  3
BLOCK_70
  1

  0
POLYLINE
  5
1E6
330
1E2
100
AcDbEntity
  8
0
 62
     7
100
AcDb2dPolyline
 66
     1
 10
0.0
 20
0.0
 30
0.0
  0
VERTEX
  5
1E7
330
1E6
100
AcDbEntity
  8
0
 62
     7
100
AcDbVertex
100
AcDb2dVertex
 10
46.70077629096441
 20
36.85617094128878
 30
0.0
  0
VERTEX
  5
1E8
330
1E6
100
AcDbEntity
  8
0
 62
     7
100
AcDbVertex
100
AcDb2dVertex
 10
50.20557050710553
 20
46.20621080006222
 30
0.0
  0
SEQEND
  5
1E9
330
1E6
100
AcDbEntity
  8
0
 62
     7
  0
ENDBLK
  5
1E5
330
1E2
100
AcDbEntity
  8
0
100
AcDbBlockEnd
  0
BLOCK
  5
1EC
330
1EA
100
AcDbEntity
  8
0
100
AcDbBlockBegin
  2
BLOCK_71
 70
     0
 10
0.0
 20
0.0
 30
0.0
  3
BLOCK_71
  1

  0
POLYLINE
  5
1EE
330
1EA
100
AcDbEntity
  8
0
 62
     7
100
AcDb2dPolyline
 66
     1
 10
0.0
 20
0.0
 30
0.0
  0
VERTEX
  5
1EF
330
1EE
100
AcDbEntity
  8
0
 62
     7
100
AcDbVertex
100
AcDb2dVertex
 10
50.20557050710553
 20
46.20621080006222
 30
0.0
  0
VERTEX
  5
1F0
330
1EE
100
AcDbEntity
  8
0
 62
     7
100
AcDbVertex
100
AcDb2dVertex
 10
50.20557050710553
 20
39.42765635731251
 30
0.0
  0
SEQEND
  5
1F1
330
1EE
100
AcDbEntity
  8
0
 62
     7
  0
ENDBLK
  5
1ED
330
1EA
100
AcDbEntity
  8
0
100
AcDbBlockEnd
  0
BLOCK
  5
1F4
330
1F2
100
AcDbEntity
  8
0
100
AcDbBlockBegin
  2
BLOCK_72
 70
     0
 10
0.0
 20
0.0
 30
0.0
  3
BLOCK_72
  1

  0
SPLINE
  5
1F6
330
1F2
100
AcDbEntity
  8
0
 62
     7
100
AcDbSpline
210
0.0
220
0.0
230
1.0
 70
     8
 71
     3
 72
    11
 73
     7
 74
     0
 42
0.0000000001
 43
0.0000000001
 12
1.0
 22
0.0
 32
0.0
 13
1.0
 23
0.0
 33
0.0
 40
0.0
 40
0.0
 40
0.0
 40
0.0
 40
1.0
 40
1.0
 40
1.0
 40
2.0
 40
2.0
 40
2.0
 40
2.0
 10
50.20557050710553
 20
39.42765635731251
 30
0.0
 10
50.20557050710553
 20
38.91646371855168
 30
0.0
 10
50.14051859305561
 20
38.5942714604046
 30
0.0
 10
50.00727412327529
 20
38.46411441310914
 30
0.0
 10
49.87408318306275
 20
38.3340096550398
 30
0.0
 10
49.53017746878101
 20
38.268922468713
 30
0.0
 10
48.97867998285088
 20
38.268922468713
 30
0.0
  0
ENDBLK
  5
1F5
330
1F2
100
AcDbEntity
  8
0
100
AcDbBlockEnd
  0
BLOCK
  5
1F9
330
1F7
100
AcDbEntity
  8
0
100
AcDbBlockBegin
  2
BLOCK_73
 70
     0
 10
0.0
 20
0.0
 30
0.0
  3
BLOCK_73
  1

  0
POLYLINE
  5
1FB
330
1F7
100
AcDbEntity
  8
0
 62
     7
100
AcDb2dPolyline
 66
     1
 10
0.0
 20
0.0
 30
0.0
  0
VERTEX
  5
1FC
330
1FB
100
AcDbEntity
  8
0
 62
     7
100
AcDbVertex
100
AcDb2dVertex
 10
48.97867998285088
 20
38.268922468713
 30
0.0
  0
VERTEX
  5
1FD
330
1FB
100
AcDbEntity
  8
0
 62
     7
100
AcDbVertex
100
AcDb2dVertex
 10
48.25372166801278
 20
38.268922468713
 30
0.0
  0
SEQEND
  5
1FE
330
1FB
100
AcDbEntity
  8
0
 62
     7
  0
ENDBLK
  5
1FA
330
1F7
100
AcDbEntity
  8
0
100
AcDbBlockEnd
  0
BLOCK
  5
201
330
1FF
100
AcDbEntity
  8
0
100
AcDbBlockBegin
  2
BLOCK_74
 70
     0
 10
0.0
 20
0.0
 30
0.0
  3
BLOCK_74
  1

  0
POLYLINE
  5
203
330
1FF
100
AcDbEntity
  8
0
 62
     7
100
AcDb2dPolyline
 66
     1
 10
0.0
 20
0.0
 30
0.0
  0
VERTEX
  5
204
330
203
100
AcDbEntity
  8
0
 62
     7
100
AcDbVertex
100
AcDb2dVertex
 10
48.25372166801278
 20
38.268922468713
 30
0.0
  0
VERTEX
  5
205
330
203
100
AcDbEntity
  8
0
 62
     7
100
AcDbVertex
100
AcDb2dVertex
 10
48.25372166801278
 20
36.85617094128878
 30
0.0
  0
SEQEND
  5
206
330
203
100
AcDbEntity
  8
0
 62
     7
  0
ENDBLK
  5
202
330
1FF
100
AcDbEntity
  8
0
100
AcDbBlockEnd
  0
BLOCK
  5
209
330
207
100
AcDbEntity
  8
0
100
AcDbBlockBegin
  2
BLOCK_75
 70
     0
 10
0.0
 20
0.0
 30
0.0
  3
BLOCK_75
  1

  0
POLYLINE
  5
20B
330
207
100
AcDbEntity
  8
0
 62
     7
100
AcDb2dPolyline
 66
     1
 10
0.0
 20
0.0
 30
0.0
  0
VERTEX
  5
20C
330
20B
100
AcDbEntity
  8
0
 62
     7
100
AcDbVertex
100
AcDb2dVertex
 10
48.25372166801278
 20
36.85617094128878
 30
0.0
  0
VERTEX
  5
20D
330
20B
100
AcDbEntity
  8
0
 62
     7
100
AcDbVertex
100
AcDb2dVertex
 10
60.52252107723153
 20
36.85617094128878
 30
0.0
  0
SEQEND
  5
20E
330
20B
100
AcDbEntity
  8
0
 62
     7
  0
ENDBLK
  5
20A
330
207
100
AcDbEntity
  8
0
100
AcDbBlockEnd
  0
BLOCK
  5
211
330
20F
100
AcDbEntity
  8
0
100
AcDbBlockBegin
  2
BLOCK_76
 70
     0
 10
0.0
 20
0.0
 30
0.0
  3
BLOCK_76
  1

  0
POLYLINE
  5
213
330
20F
100
AcDbEntity
  8
0
 62
     7
100
AcDb2dPolyline
 66
     1
 10
0.0
 20
0.0
 30
0.0
  0
VERTEX
  5
214
330
213
100
AcDbEntity
  8
0
 62
     7
100
AcDbVertex
100
AcDb2dVertex
 10
60.52252107723153
 20
36.85617094128878
 30
0.0
  0
VERTEX
  5
215
330
213
100
AcDbEntity
  8
0
 62
     7
100
AcDbVertex
100
AcDb2dVertex
 10
60.52252107723153
 20
42.13545510663528
 30
0.0
  0
SEQEND
  5
216
330
213
100
AcDbEntity
  8
0
 62
     7
  0
ENDBLK
  5
212
330
20F
100
AcDbEntity
  8
0
100
AcDbBlockEnd
  0
BLOCK
  5
219
330
217
100
AcDbEntity
  8
0
100
AcDbBlockBegin
  2
BLOCK_77
 70
     0
 10
0.0
 20
0.0
 30
0.0
  3
BLOCK_77
  1

  0
POLYLINE
  5
21B
330
217
100
AcDbEntity
  8
0
 62
     7
100
AcDb2dPolyline
 66
     1
 10
0.0
 20
0.0
 30
0.0
  0
VERTEX
  5
21C
330
21B
100
AcDbEntity
  8
0
 62
     7
100
AcDbVertex
100
AcDb2dVertex
 10
60.52252107723153
 20
42.13545510663528
 30
0.0
  0
VERTEX
  5
21D
330
21B
100
AcDbEntity
  8
0
 62
     7
100
AcDbVertex
100
AcDb2dVertex
 10
59.10976958549605
 20
42.13545510663528
 30
0.0
  0
SEQEND
  5
21E
330
21B
100
AcDbEntity
  8
0
 62
     7
  0
ENDBLK
  5
21A
330
217
100
AcDbEntity
  8
0
100
AcDbBlockEnd
  0
BLOCK
  5
221
330
21F
100
AcDbEntity
  8
0
100
AcDbBlockBegin
  2
BLOCK_78
 70
     0
 10
0.0
 20
0.0
 30
0.0
  3
BLOCK_78
  1

  0
SPLINE
  5
223
330
21F
100
AcDbEntity
  8
0
 62
     7
100
AcDbSpline
210
0.0
220
0.0
230
1.0
 70
     8
 71
     3
 72
    11
 73
     7
 74
     0
 42
0.0000000001
 43
0.0000000001
 12
1.0
 22
0.0
 32
0.0
 13
1.0
 23
0.0
 33
0.0
 40
0.0
 40
0.0
 40
0.0
 40
0.0
 40
1.0
 40
1.0
 40
1.0
 40
2.0
 40
2.0
 40
2.0
 40
2.0
 10
59.10976958549605
 20
42.13545510663528
 30
0.0
 10
59.00132569937379
 20
40.56776357924955
 30
0.0
 10
58.74417685906969
 20
39.53300659805838
 30
0.0
 10
58.33833279962148
 20
39.02801205185688
 30
0.0
 10
57.93243521423526
 20
38.52295090296386
 30
0.0
 10
57.18266810688272
 20
38.268922468713
 30
0.0
 10
56.09212619026032
 20
38.268922468713
 30
0.0
  0
ENDBLK
  5
222
330
21F
100
AcDbEntity
  8
0
100
AcDbBlockEnd
  0
BLOCK
  5
226
330
224
100
AcDbEntity
  8
0
100
AcDbBlockBegin
  2
BLOCK_79
 70
     0
 10
0.0
 20
0.0
 30
0.0
  3
BLOCK_79
  1

  0
POLYLINE
  5
228
330
224
100
AcDbEntity
  8
0
 62
     7
100
AcDb2dPolyline
 66
     1
 10
0.0
 20
0.0
 30
0.0
  0
VERTEX
  5
229
330
228
100
AcDbEntity
  8
0
 62
     7
100
AcDbVertex
100
AcDb2dVertex
 10
56.09212619026032
 20
38.268922468713
 30
0.0
  0
VERTEX
  5
22A
330
228
100
AcDbEntity
  8
0
 62
     7
100
AcDbVertex
100
AcDb2dVertex
 10
52.82662113468141
 20
38.268922468713
 30
0.0
  0
SEQEND
  5
22B
330
228
100
AcDbEntity
  8
0
 62
     7
  0
ENDBLK
  5
227
330
224
100
AcDbEntity
  8
0
100
AcDbBlockEnd
  0
BLOCK
  5
22E
330
22C
100
AcDbEntity
  8
0
100
AcDbBlockBegin
  2
BLOCK_80
 70
     0
 10
0.0
 20
0.0
 30
0.0
  3
BLOCK_80
  1

  0
POLYLINE
  5
230
330
22C
100
AcDbEntity
  8
0
 62
     7
100
AcDb2dPolyline
 66
     1
 10
0.0
 20
0.0
 30
0.0
  0
VERTEX
  5
231
330
230
100
AcDbEntity
  8
0
 62
     7
100
AcDbVertex
100
AcDb2dVertex
 10
52.82662113468141
 20
38.268922468713
 30
0.0
  0
VERTEX
  5
232
330
230
100
AcDbEntity
  8
0
 62
     7
100
AcDbVertex
100
AcDb2dVertex
 10
52.82662113468141
 20
42.65596107872735
 30
0.0
  0
SEQEND
  5
233
330
230
100
AcDbEntity
  8
0
 62
     7
  0
ENDBLK
  5
22F
330
22C
100
AcDbEntity
  8
0
100
AcDbBlockEnd
  0
BLOCK
  5
236
330
234
100
AcDbEntity
  8
0
100
AcDbBlockBegin
  2
BLOCK_81
 70
     0
 10
0.0
 20
0.0
 30
0.0
  3
BLOCK_81
  1

  0
POLYLINE
  5
238
330
234
100
AcDbEntity
  8
0
 62
     7
100
AcDb2dPolyline
 66
     1
 10
0.0
 20
0.0
 30
0.0
  0
VERTEX
  5
239
330
238
100
AcDbEntity
  8
0
 62
     7
100
AcDbVertex
100
AcDb2dVertex
 10
52.82662113468141
 20
42.65596107872735
 30
0.0
  0
VERTEX
  5
23A
330
238
100
AcDbEntity
  8
0
 62
     7
100
AcDbVertex
100
AcDb2dVertex
 10
53.55163236618483
 20
42.65596107872735
 30
0.0
  0
SEQEND
  5
23B
330
238
100
AcDbEntity
  8
0
 62
     7
  0
ENDBLK
  5
237
330
234
100
AcDbEntity
  8
0
100
AcDbBlockEnd
  0
BLOCK
  5
23E
330
23C
100
AcDbEntity
  8
0
100
AcDbBlockBegin
  2
BLOCK_82
 70
     0
 10
0.0
 20
0.0
 30
0.0
  3
BLOCK_82
  1

  0
SPLINE
  5
240
330
23C
100
AcDbEntity
  8
0
 62
     7
100
AcDbSpline
210
0.0
220
0.0
230
1.0
 70
     8
 71
     3
 72
     8
 73
     4
 74
     0
 42
0.0000000001
 43
0.0000000001
 12
1.0
 22
0.0
 32
0.0
 13
1.0
 23
0.0
 33
0.0
 40
0.0
 40
0.0
 40
0.0
 40
0.0
 40
1.0
 40
1.0
 40
1.0
 40
1.0
 10
53.55163236618483
 20
42.65596107872735
 30
0.0
 10
54.32617359642464
 20
42.65596107872735
 30
0.0
 10
54.83427941679511
 20
42.501056356544
 30
0.0
 10
55.07593218840781
 20
42.18810718995559
 30
0.0
  0
ENDBLK
  5
23F
330
23C
100
AcDbEntity
  8
0
100
AcDbBlockEnd
  0
BLOCK
  5
243
330
241
100
AcDbEntity
  8
0
100
AcDbBlockBegin
  2
BLOCK_83
 70
     0
 10
0.0
 20
0.0
 30
0.0
  3
BLOCK_83
  1

  0
SPLINE
  5
245
330
241
100
AcDbEntity
  8
0
 62
     7
100
AcDbSpline
210
0.0
220
0.0
230
1.0
 70
     8
 71
     3
 72
     8
 73
     4
 74
     0
 42
0.0000000001
 43
0.0000000001
 12
1.0
 22
0.0
 32
0.0
 13
1.0
 23
0.0
 33
0.0
 40
0.0
 40
0.0
 40
0.0
 40
0.0
 40
1.0
 40
1.0
 40
1.0
 40
1.0
 10
55.07593218840781
 20
42.18810718995559
 30
0.0
 10
55.32067176549732
 20
41.87831538447733
 30
0.0
 10
55.4662807895603
 20
41.18741774576177
 30
0.0
 10
55.52207259369249
 20
40.11857163491779
 30
0.0
  0
ENDBLK
  5
244
330
241
100
AcDbEntity
  8
0
100
AcDbBlockEnd
  0
BLOCK
  5
248
330
246
100
AcDbEntity
  8
0
100
AcDbBlockBegin
  2
BLOCK_84
 70
     0
 10
0.0
 20
0.0
 30
0.0
  3
BLOCK_84
  1

  0
POLYLINE
  5
24A
330
246
100
AcDbEntity
  8
0
 62
     7
100
AcDb2dPolyline
 66
     1
 10
0.0
 20
0.0
 30
0.0
  0
VERTEX
  5
24B
330
24A
100
AcDbEntity
  8
0
 62
     7
100
AcDbVertex
100
AcDb2dVertex
 10
55.52207259369249
 20
40.11857163491779
 30
0.0
  0
VERTEX
  5
24C
330
24A
100
AcDbEntity
  8
0
 62
     7
100
AcDbVertex
100
AcDb2dVertex
 10
56.93482408542798
 20
40.10925830158655
 30
0.0
  0
SEQEND
  5
24D
330
24A
100
AcDbEntity
  8
0
 62
     7
  0
ENDBLK
  5
249
330
246
100
AcDbEntity
  8
0
100
AcDbBlockEnd
  0
BLOCK
  5
250
330
24E
100
AcDbEntity
  8
0
100
AcDbBlockBegin
  2
BLOCK_85
 70
     0
 10
0.0
 20
0.0
 30
0.0
  3
BLOCK_85
  1

  0
POLYLINE
  5
252
330
24E
100
AcDbEntity
  8
0
 62
     7
100
AcDb2dPolyline
 66
     1
 10
0.0
 20
0.0
 30
0.0
  0
VERTEX
  5
253
330
252
100
AcDbEntity
  8
0
 62
     7
100
AcDbVertex
100
AcDb2dVertex
 10
56.93482408542798
 20
40.10925830158655
 30
0.0
  0
VERTEX
  5
254
330
252
100
AcDbEntity
  8
0
 62
     7
100
AcDbVertex
100
AcDb2dVertex
 10
56.93482408542798
 20
46.36446691113367
 30
0.0
  0
SEQEND
  5
255
330
252
100
AcDbEntity
  8
0
 62
     7
  0
ENDBLK
  5
251
330
24E
100
AcDbEntity
  8
0
100
AcDbBlockEnd
  0
BLOCK
  5
258
330
256
100
AcDbEntity
  8
0
100
AcDbBlockBegin
  2
BLOCK_86
 70
     0
 10
0.0
 20
0.0
 30
0.0
  3
BLOCK_86
  1

  0
POLYLINE
  5
25A
330
256
100
AcDbEntity
  8
0
 62
     7
100
AcDb2dPolyline
 66
     1
 10
0.0
 20
0.0
 30
0.0
  0
VERTEX
  5
25B
330
25A
100
AcDbEntity
  8
0
 62
     7
100
AcDbVertex
100
AcDb2dVertex
 10
56.93482408542798
 20
46.36446691113367
 30
0.0
  0
VERTEX
  5
25C
330
25A
100
AcDbEntity
  8
0
 62
     7
100
AcDbVertex
100
AcDb2dVertex
 10
55.52207259369249
 20
46.35520649446968
 30
0.0
  0
SEQEND
  5
25D
330
25A
100
AcDbEntity
  8
0
 62
     7
  0
ENDBLK
  5
259
330
256
100
AcDbEntity
  8
0
100
AcDbBlockEnd
  0
BLOCK
  5
260
330
25E
100
AcDbEntity
  8
0
100
AcDbBlockBegin
  2
BLOCK_87
 70
     0
 10
0.0
 20
0.0
 30
0.0
  3
BLOCK_87
  1

  0
SPLINE
  5
262
330
25E
100
AcDbEntity
  8
0
 62
     7
100
AcDbSpline
210
0.0
220
0.0
230
1.0
 70
     8
 71
     3
 72
     8
 73
     4
 74
     0
 42
0.0000000001
 43
0.0000000001
 12
1.0
 22
0.0
 32
0.0
 13
1.0
 23
0.0
 33
0.0
 40
0.0
 40
0.0
 40
0.0
 40
0.0
 40
1.0
 40
1.0
 40
1.0
 40
1.0
 10
55.06972329966963
 20
44.49315718937022
 30
0.0
 10
55.31224660188303
 20
44.76368778699516
 30
0.0
 10
55.46338721577091
 20
45.38584256601586
 30
0.0
 10
55.52207259369249
 20
46.35520649446968
 30
0.0
  0
ENDBLK
  5
261
330
25E
100
AcDbEntity
  8
0
100
AcDbBlockEnd
  0
BLOCK
  5
265
330
263
100
AcDbEntity
  8
0
100
AcDbBlockBegin
  2
BLOCK_88
 70
     0
 10
0.0
 20
0.0
 30
0.0
  3
BLOCK_88
  1

  0
SPLINE
  5
267
330
263
100
AcDbEntity
  8
0
 62
     7
100
AcDbSpline
210
0.0
220
0.0
230
1.0
 70
     8
 71
     3
 72
     8
 73
     4
 74
     0
 42
0.0000000001
 43
0.0000000001
 12
1.0
 22
0.0
 32
0.0
 13
1.0
 23
0.0
 33
0.0
 40
0.0
 40
0.0
 40
0.0
 40
0.0
 40
1.0
 40
1.0
 40
1.0
 40
1.0
 10
53.53302333888887
 20
44.0873216339256
 30
0.0
 10
54.31123669207044
 20
44.08732127797642
 30
0.0
 10
54.82418119025213
 20
44.22278761535153
 30
0.0
 10
55.06972329966963
 20
44.49315718937022
 30
0.0
  0
ENDBLK
  5
266
330
263
100
AcDbEntity
  8
0
100
AcDbBlockEnd
  0
BLOCK
  5
26A
330
268
100
AcDbEntity
  8
0
100
AcDbBlockBegin
  2
BLOCK_89
 70
     0
 10
0.0
 20
0.0
 30
0.0
  3
BLOCK_89
  1

  0
POLYLINE
  5
26C
330
268
100
AcDbEntity
  8
0
 62
     7
100
AcDb2dPolyline
 66
     1
 10
0.0
 20
0.0
 30
0.0
  0
VERTEX
  5
26D
330
26C
100
AcDbEntity
  8
0
 62
     7
100
AcDbVertex
100
AcDb2dVertex
 10
53.53302333888823
 20
44.0873216339256
 30
0.0
  0
VERTEX
  5
26E
330
26C
100
AcDbEntity
  8
0
 62
     7
100
AcDbVertex
100
AcDb2dVertex
 10
52.82662113468141
 20
44.0873216339256
 30
0.0
  0
SEQEND
  5
26F
330
26C
100
AcDbEntity
  8
0
 62
     7
  0
ENDBLK
  5
26B
330
268
100
AcDbEntity
  8
0
100
AcDbBlockEnd
  0
BLOCK
  5
272
330
270
100
AcDbEntity
  8
0
100
AcDbBlockBegin
  2
BLOCK_90
 70
     0
 10
0.0
 20
0.0
 30
0.0
  3
BLOCK_90
  1

  0
POLYLINE
  5
274
330
270
100
AcDbEntity
  8
0
 62
     7
100
AcDb2dPolyline
 66
     1
 10
0.0
 20
0.0
 30
0.0
  0
VERTEX
  5
275
330
274
100
AcDbEntity
  8
0
 62
     7
100
AcDbVertex
100
AcDb2dVertex
 10
52.82662113468141
 20
44.0873216339256
 30
0.0
  0
VERTEX
  5
276
330
274
100
AcDbEntity
  8
0
 62
     7
100
AcDbVertex
100
AcDb2dVertex
 10
52.82662113468141
 20
47.91667149407927
 30
0.0
  0
SEQEND
  5
277
330
274
100
AcDbEntity
  8
0
 62
     7
  0
ENDBLK
  5
273
330
270
100
AcDbEntity
  8
0
100
AcDbBlockEnd
  0
BLOCK
  5
27A
330
278
100
AcDbEntity
  8
0
100
AcDbBlockBegin
  2
BLOCK_91
 70
     0
 10
0.0
 20
0.0
 30
0.0
  3
BLOCK_91
  1

  0
POLYLINE
  5
27C
330
278
100
AcDbEntity
  8
0
 62
     7
100
AcDb2dPolyline
 66
     1
 10
0.0
 20
0.0
 30
0.0
  0
VERTEX
  5
27D
330
27C
100
AcDbEntity
  8
0
 62
     7
100
AcDbVertex
100
AcDb2dVertex
 10
52.82662113468141
 20
47.91667149407927
 30
0.0
  0
VERTEX
  5
27E
330
27C
100
AcDbEntity
  8
0
 62
     7
100
AcDbVertex
100
AcDb2dVertex
 10
55.8194818916605
 20
47.91667149407927
 30
0.0
  0
SEQEND
  5
27F
330
27C
100
AcDbEntity
  8
0
 62
     7
  0
ENDBLK
  5
27B
330
278
100
AcDbEntity
  8
0
100
AcDbBlockEnd
  0
BLOCK
  5
282
330
280
100
AcDbEntity
  8
0
100
AcDbBlockBegin
  2
BLOCK_92
 70
     0
 10
0.0
 20
0.0
 30
0.0
  3
BLOCK_92
  1

  0
SPLINE
  5
284
330
280
100
AcDbEntity
  8
0
 62
     7
100
AcDbSpline
210
0.0
220
0.0
230
1.0
 70
     8
 71
     3
 72
     8
 73
     4
 74
     0
 42
0.0000000001
 43
0.0000000001
 12
1.0
 22
0.0
 32
0.0
 13
1.0
 23
0.0
 33
0.0
 40
0.0
 40
0.0
 40
0.0
 40
0.0
 40
1.0
 40
1.0
 40
1.0
 40
1.0
 10
55.8194818916605
 20
47.91667149407927
 30
0.0
 10
57.12382477505061
 20
47.91667149407927
 30
0.0
 10
57.98821850299809
 20
47.68120996636006
 30
0.0
 10
58.41578515875662
 20
47.20721774425629
 30
0.0
  0
ENDBLK
  5
283
330
280
100
AcDbEntity
  8
0
100
AcDbBlockEnd
  0
BLOCK
  5
287
330
285
100
AcDbEntity
  8
0
100
AcDbBlockBegin
  2
BLOCK_93
 70
     0
 10
0.0
 20
0.0
 30
0.0
  3
BLOCK_93
  1

  0
SPLINE
  5
289
330
285
100
AcDbEntity
  8
0
 62
     7
100
AcDbSpline
210
0.0
220
0.0
230
1.0
 70
     8
 71
     3
 72
     8
 73
     4
 74
     0
 42
0.0000000001
 43
0.0000000001
 12
1.0
 22
0.0
 32
0.0
 13
1.0
 23
0.0
 33
0.0
 40
0.0
 40
0.0
 40
0.0
 40
0.0
 40
1.0
 40
1.0
 40
1.0
 40
1.0
 10
59.10976958549605
 20
44.36615718941076
 30
0.0
 10
59.07261518204637
 20
45.78337708018404
 30
0.0
 10
58.84075174969792
 20
46.73258865666233
 30
0.0
 10
58.41578515875662
 20
47.20721774425629
 30
0.0
  0
ENDBLK
  5
288
330
285
100
AcDbEntity
  8
0
100
AcDbBlockEnd
  0
BLOCK
  5
28C
330
28A
100
AcDbEntity
  8
0
100
AcDbBlockBegin
  2
BLOCK_94
 70
     0
 10
0.0
 20
0.0
 30
0.0
  3
BLOCK_94
  1

  0
POLYLINE
  5
28E
330
28A
100
AcDbEntity
  8
0
 62
     7
100
AcDb2dPolyline
 66
     1
 10
0.0
 20
0.0
 30
0.0
  0
VERTEX
  5
28F
330
28E
100
AcDbEntity
  8
0
 62
     7
100
AcDbVertex
100
AcDb2dVertex
 10
59.10976958549605
 20
44.36615718941076
 30
0.0
  0
VERTEX
  5
290
330
28E
100
AcDbEntity
  8
0
 62
     7
100
AcDbVertex
100
AcDb2dVertex
 10
60.52252107723153
 20
44.36615718941076
 30
0.0
  0
SEQEND
  5
291
330
28E
100
AcDbEntity
  8
0
 62
     7
  0
ENDBLK
  5
28D
330
28A
100
AcDbEntity
  8
0
100
AcDbBlockEnd
  0
BLOCK
  5
294
330
292
100
AcDbEntity
  8
0
100
AcDbBlockBegin
  2
BLOCK_95
 70
     0
 10
0.0
 20
0.0
 30
0.0
  3
BLOCK_95
  1

  0
POLYLINE
  5
296
330
292
100
AcDbEntity
  8
0
 62
     7
100
AcDb2dPolyline
 66
     1
 10
0.0
 20
0.0
 30
0.0
  0
VERTEX
  5
297
330
296
100
AcDbEntity
  8
0
 62
     7
100
AcDbVertex
100
AcDb2dVertex
 10
60.52252107723153
 20
44.36615718941076
 30
0.0
  0
VERTEX
  5
298
330
296
100
AcDbEntity
  8
0
 62
     7
100
AcDbVertex
100
AcDb2dVertex
 10
60.52252107723153
 20
49.32945829928165
 30
0.0
  0
SEQEND
  5
299
330
296
100
AcDbEntity
  8
0
 62
     7
  0
ENDBLK
  5
295
330
292
100
AcDbEntity
  8
0
100
AcDbBlockEnd
  0
BLOCK
  5
29C
330
29A
100
AcDbEntity
  8
0
100
AcDbBlockBegin
  2
BLOCK_96
 70
     0
 10
0.0
 20
0.0
 30
0.0
  3
BLOCK_96
  1

  0
POLYLINE
  5
29E
330
29A
100
AcDbEntity
  8
0
 62
     7
100
AcDb2dPolyline
 66
     1
 10
0.0
 20
0.0
 30
0.0
  0
VERTEX
  5
29F
330
29E
100
AcDbEntity
  8
0
 62
     7
100
AcDbVertex
100
AcDb2dVertex
 10
60.52252107723153
 20
49.32945829928165
 30
0.0
  0
VERTEX
  5
2A0
330
29E
100
AcDbEntity
  8
0
 62
     7
100
AcDbVertex
100
AcDb2dVertex
 10
59.04683403154611
 20
49.32945829928165
 30
0.0
  0
SEQEND
  5
2A1
330
29E
100
AcDbEntity
  8
0
 62
     7
  0
ENDBLK
  5
29D
330
29A
100
AcDbEntity
  8
0
100
AcDbBlockEnd
  0
ENDSEC
  0
SECTION
  2
ENTITIES
  0
INSERT
  5
41
330
1F
100
AcDbEntity
  8
0
100
AcDbBlockReference
  2
BLOCK_2
 10
0.0
 20
0.0
 30
0.0
  0
INSERT
  5
46
330
1F
100
AcDbEntity
  8
0
100
AcDbBlockReference
  2
BLOCK_3
 10
0.0
 20
0.0
 30
0.0
  0
INSERT
  5
4B
330
1F
100
AcDbEntity
  8
0
100
AcDbBlockReference
  2
BLOCK_4
 10
0.0
 20
0.0
 30
0.0
  0
INSERT
  5
50
330
1F
100
AcDbEntity
  8
0
100
AcDbBlockReference
  2
BLOCK_5
 10
0.0
 20
0.0
 30
0.0
  0
INSERT
  5
55
330
1F
100
AcDbEntity
  8
0
100
AcDbBlockReference
  2
BLOCK_6
 10
0.0
 20
0.0
 30
0.0
  0
INSERT
  5
5A
330
1F
100
AcDbEntity
  8
0
100
AcDbBlockReference
  2
BLOCK_7
 10
0.0
 20
0.0
 30
0.0
  0
INSERT
  5
5F
330
1F
100
AcDbEntity
  8
0
100
AcDbBlockReference
  2
BLOCK_8
 10
0.0
 20
0.0
 30
0.0
  0
INSERT
  5
64
330
1F
100
AcDbEntity
  8
0
100
AcDbBlockReference
  2
BLOCK_9
 10
0.0
 20
0.0
 30
0.0
  0
INSERT
  5
69
330
1F
100
AcDbEntity
  8
0
100
AcDbBlockReference
  2
BLOCK_10
 10
0.0
 20
0.0
 30
0.0
  0
INSERT
  5
6E
330
1F
100
AcDbEntity
  8
0
100
AcDbBlockReference
  2
BLOCK_11
 10
0.0
 20
0.0
 30
0.0
  0
INSERT
  5
73
330
1F
100
AcDbEntity
  8
0
100
AcDbBlockReference
  2
BLOCK_12
 10
0.0
 20
0.0
 30
0.0
  0
INSERT
  5
78
330
1F
100
AcDbEntity
  8
0
100
AcDbBlockReference
  2
BLOCK_13
 10
0.0
 20
0.0
 30
0.0
  0
INSERT
  5
80
330
1F
100
AcDbEntity
  8
0
100
AcDbBlockReference
  2
BLOCK_14
 10
0.0
 20
0.0
 30
0.0
  0
INSERT
  5
88
330
1F
100
AcDbEntity
  8
0
100
AcDbBlockReference
  2
BLOCK_15
 10
0.0
 20
0.0
 30
0.0
  0
INSERT
  5
8D
330
1F
100
AcDbEntity
  8
0
100
AcDbBlockReference
  2
BLOCK_16
 10
0.0
 20
0.0
 30
0.0
  0
INSERT
  5
95
330
1F
100
AcDbEntity
  8
0
100
AcDbBlockReference
  2
BLOCK_17
 10
0.0
 20
0.0
 30
0.0
  0
INSERT
  5
9D
330
1F
100
AcDbEntity
  8
0
100
AcDbBlockReference
  2
BLOCK_18
 10
0.0
 20
0.0
 30
0.0
  0
INSERT
  5
A2
330
1F
100
AcDbEntity
  8
0
100
AcDbBlockReference
  2
BLOCK_19
 10
0.0
 20
0.0
 30
0.0
  0
INSERT
  5
A7
330
1F
100
AcDbEntity
  8
0
100
AcDbBlockReference
  2
BLOCK_20
 10
0.0
 20
0.0
 30
0.0
  0
INSERT
  5
AC
330
1F
100
AcDbEntity
  8
0
100
AcDbBlockReference
  2
BLOCK_21
 10
0.0
 20
0.0
 30
0.0
  0
INSERT
  5
B1
330
1F
100
AcDbEntity
  8
0
100
AcDbBlockReference
  2
BLOCK_22
 10
0.0
 20
0.0
 30
0.0
  0
INSERT
  5
B6
330
1F
100
AcDbEntity
  8
0
100
AcDbBlockReference
  2
BLOCK_23
 10
0.0
 20
0.0
 30
0.0
  0
INSERT
  5
BB
330
1F
100
AcDbEntity
  8
0
100
AcDbBlockReference
  2
BLOCK_24
 10
0.0
 20
0.0
 30
0.0
  0
INSERT
  5
C0
330
1F
100
AcDbEntity
  8
0
100
AcDbBlockReference
  2
BLOCK_25
 10
0.0
 20
0.0
 30
0.0
  0
INSERT
  5
C8
330
1F
100
AcDbEntity
  8
0
100
AcDbBlockReference
  2
BLOCK_26
 10
0.0
 20
0.0
 30
0.0
  0
INSERT
  5
D0
330
1F
100
AcDbEntity
  8
0
100
AcDbBlockReference
  2
BLOCK_27
 10
0.0
 20
0.0
 30
0.0
  0
INSERT
  5
D8
330
1F
100
AcDbEntity
  8
0
100
AcDbBlockReference
  2
BLOCK_28
 10
0.0
 20
0.0
 30
0.0
  0
INSERT
  5
DD
330
1F
100
AcDbEntity
  8
0
100
AcDbBlockReference
  2
BLOCK_29
 10
0.0
 20
0.0
 30
0.0
  0
INSERT
  5
E2
330
1F
100
AcDbEntity
  8
0
100
AcDbBlockReference
  2
BLOCK_30
 10
0.0
 20
0.0
 30
0.0
  0
INSERT
  5
E7
330
1F
100
AcDbEntity
  8
0
100
AcDbBlockReference
  2
BLOCK_31
 10
0.0
 20
0.0
 30
0.0
  0
INSERT
  5
EF
330
1F
100
AcDbEntity
  8
0
100
AcDbBlockReference
  2
BLOCK_32
 10
0.0
 20
0.0
 30
0.0
  0
INSERT
  5
F7
330
1F
100
AcDbEntity
  8
0
100
AcDbBlockReference
  2
BLOCK_33
 10
0.0
 20
0.0
 30
0.0
  0
INSERT
  5
FC
330
1F
100
AcDbEntity
  8
0
100
AcDbBlockReference
  2
BLOCK_34
 10
0.0
 20
0.0
 30
0.0
  0
INSERT
  5
101
330
1F
100
AcDbEntity
  8
0
100
AcDbBlockReference
  2
BLOCK_35
 10
0.0
 20
0.0
 30
0.0
  0
INSERT
  5
106
330
1F
100
AcDbEntity
  8
0
100
AcDbBlockReference
  2
BLOCK_36
 10
0.0
 20
0.0
 30
0.0
  0
INSERT
  5
10E
330
1F
100
AcDbEntity
  8
0
100
AcDbBlockReference
  2
BLOCK_37
 10
0.0
 20
0.0
 30
0.0
  0
INSERT
  5
116
330
1F
100
AcDbEntity
  8
0
100
AcDbBlockReference
  2
BLOCK_38
 10
0.0
 20
0.0
 30
0.0
  0
INSERT
  5
11B
330
1F
100
AcDbEntity
  8
0
100
AcDbBlockReference
  2
BLOCK_39
 10
0.0
 20
0.0
 30
0.0
  0
INSERT
  5
120
330
1F
100
AcDbEntity
  8
0
100
AcDbBlockReference
  2
BLOCK_40
 10
0.0
 20
0.0
 30
0.0
  0
INSERT
  5
125
330
1F
100
AcDbEntity
  8
0
100
AcDbBlockReference
  2
BLOCK_41
 10
0.0
 20
0.0
 30
0.0
  0
INSERT
  5
12A
330
1F
100
AcDbEntity
  8
0
100
AcDbBlockReference
  2
BLOCK_42
 10
0.0
 20
0.0
 30
0.0
  0
INSERT
  5
12F
330
1F
100
AcDbEntity
  8
0
100
AcDbBlockReference
  2
BLOCK_43
 10
0.0
 20
0.0
 30
0.0
  0
INSERT
  5
134
330
1F
100
AcDbEntity
  8
0
100
AcDbBlockReference
  2
BLOCK_44
 10
0.0
 20
0.0
 30
0.0
  0
INSERT
  5
139
330
1F
100
AcDbEntity
  8
0
100
AcDbBlockReference
  2
BLOCK_45
 10
0.0
 20
0.0
 30
0.0
  0
INSERT
  5
13E
330
1F
100
AcDbEntity
  8
0
100
AcDbBlockReference
  2
BLOCK_46
 10
0.0
 20
0.0
 30
0.0
  0
INSERT
  5
143
330
1F
100
AcDbEntity
  8
0
100
AcDbBlockReference
  2
BLOCK_47
 10
0.0
 20
0.0
 30
0.0
  0
INSERT
  5
148
330
1F
100
AcDbEntity
  8
0
100
AcDbBlockReference
  2
BLOCK_48
 10
0.0
 20
0.0
 30
0.0
  0
INSERT
  5
150
330
1F
100
AcDbEntity
  8
0
100
AcDbBlockReference
  2
BLOCK_49
 10
0.0
 20
0.0
 30
0.0
  0
INSERT
  5
158
330
1F
100
AcDbEntity
  8
0
100
AcDbBlockReference
  2
BLOCK_50
 10
0.0
 20
0.0
 30
0.0
  0
INSERT
  5
15D
330
1F
100
AcDbEntity
  8
0
100
AcDbBlockReference
  2
BLOCK_51
 10
0.0
 20
0.0
 30
0.0
  0
INSERT
  5
162
330
1F
100
AcDbEntity
  8
0
100
AcDbBlockReference
  2
BLOCK_52
 10
0.0
 20
0.0
 30
0.0
  0
INSERT
  5
16A
330
1F
100
AcDbEntity
  8
0
100
AcDbBlockReference
  2
BLOCK_53
 10
0.0
 20
0.0
 30
0.0
  0
INSERT
  5
172
330
1F
100
AcDbEntity
  8
0
100
AcDbBlockReference
  2
BLOCK_54
 10
0.0
 20
0.0
 30
0.0
  0
INSERT
  5
17A
330
1F
100
AcDbEntity
  8
0
100
AcDbBlockReference
  2
BLOCK_55
 10
0.0
 20
0.0
 30
0.0
  0
INSERT
  5
182
330
1F
100
AcDbEntity
  8
0
100
AcDbBlockReference
  2
BLOCK_56
 10
0.0
 20
0.0
 30
0.0
  0
INSERT
  5
18A
330
1F
100
AcDbEntity
  8
0
100
AcDbBlockReference
  2
BLOCK_57
 10
0.0
 20
0.0
 30
0.0
  0
INSERT
  5
18F
330
1F
100
AcDbEntity
  8
0
100
AcDbBlockReference
  2
BLOCK_58
 10
0.0
 20
0.0
 30
0.0
  0
INSERT
  5
197
330
1F
100
AcDbEntity
  8
0
100
AcDbBlockReference
  2
BLOCK_59
 10
0.0
 20
0.0
 30
0.0
  0
INSERT
  5
19C
330
1F
100
AcDbEntity
  8
0
100
AcDbBlockReference
  2
BLOCK_60
 10
0.0
 20
0.0
 30
0.0
  0
INSERT
  5
1A1
330
1F
100
AcDbEntity
  8
0
100
AcDbBlockReference
  2
BLOCK_61
 10
0.0
 20
0.0
 30
0.0
  0
INSERT
  5
1A9
330
1F
100
AcDbEntity
  8
0
100
AcDbBlockReference
  2
BLOCK_62
 10
0.0
 20
0.0
 30
0.0
  0
INSERT
  5
1B1
330
1F
100
AcDbEntity
  8
0
100
AcDbBlockReference
  2
BLOCK_63
 10
0.0
 20
0.0
 30
0.0
  0
INSERT
  5
1B9
330
1F
100
AcDbEntity
  8
0
100
AcDbBlockReference
  2
BLOCK_64
 10
0.0
 20
0.0
 30
0.0
  0
INSERT
  5
1C1
330
1F
100
AcDbEntity
  8
0
100
AcDbBlockReference
  2
BLOCK_65
 10
0.0
 20
0.0
 30
0.0
  0
INSERT
  5
1C9
330
1F
100
AcDbEntity
  8
0
100
AcDbBlockReference
  2
BLOCK_66
 10
0.0
 20
0.0
 30
0.0
  0
INSERT
  5
1CE
330
1F
100
AcDbEntity
  8
0
100
AcDbBlockReference
  2
BLOCK_67
 10
0.0
 20
0.0
 30
0.0
  0
INSERT
  5
1D3
330
1F
100
AcDbEntity
  8
0
100
AcDbBlockReference
  2
BLOCK_68
 10
0.0
 20
0.0
 30
0.0
  0
INSERT
  5
1DB
330
1F
100
AcDbEntity
  8
0
100
AcDbBlockReference
  2
BLOCK_69
 10
0.0
 20
0.0
 30
0.0
  0
INSERT
  5
1E3
330
1F
100
AcDbEntity
  8
0
100
AcDbBlockReference
  2
BLOCK_70
 10
0.0
 20
0.0
 30
0.0
  0
INSERT
  5
1EB
330
1F
100
AcDbEntity
  8
0
100
AcDbBlockReference
  2
BLOCK_71
 10
0.0
 20
0.0
 30
0.0
  0
INSERT
  5
1F3
330
1F
100
AcDbEntity
  8
0
100
AcDbBlockReference
  2
BLOCK_72
 10
0.0
 20
0.0
 30
0.0
  0
INSERT
  5
1F8
330
1F
100
AcDbEntity
  8
0
100
AcDbBlockReference
  2
BLOCK_73
 10
0.0
 20
0.0
 30
0.0
  0
INSERT
  5
200
330
1F
100
AcDbEntity
  8
0
100
AcDbBlockReference
  2
BLOCK_74
 10
0.0
 20
0.0
 30
0.0
  0
INSERT
  5
208
330
1F
100
AcDbEntity
  8
0
100
AcDbBlockReference
  2
BLOCK_75
 10
0.0
 20
0.0
 30
0.0
  0
INSERT
  5
210
330
1F
100
AcDbEntity
  8
0
100
AcDbBlockReference
  2
BLOCK_76
 10
0.0
 20
0.0
 30
0.0
  0
INSERT
  5
218
330
1F
100
AcDbEntity
  8
0
100
AcDbBlockReference
  2
BLOCK_77
 10
0.0
 20
0.0
 30
0.0
  0
INSERT
  5
220
330
1F
100
AcDbEntity
  8
0
100
AcDbBlockReference
  2
BLOCK_78
 10
0.0
 20
0.0
 30
0.0
  0
INSERT
  5
225
330
1F
100
AcDbEntity
  8
0
100
AcDbBlockReference
  2
BLOCK_79
 10
0.0
 20
0.0
 30
0.0
  0
INSERT
  5
22D
330
1F
100
AcDbEntity
  8
0
100
AcDbBlockReference
  2
BLOCK_80
 10
0.0
 20
0.0
 30
0.0
  0
INSERT
  5
235
330
1F
100
AcDbEntity
  8
0
100
AcDbBlockReference
  2
BLOCK_81
 10
0.0
 20
0.0
 30
0.0
  0
INSERT
  5
23D
330
1F
100
AcDbEntity
  8
0
100
AcDbBlockReference
  2
BLOCK_82
 10
0.0
 20
0.0
 30
0.0
  0
INSERT
  5
242
330
1F
100
AcDbEntity
  8
0
100
AcDbBlockReference
  2
BLOCK_83
 10
0.0
 20
0.0
 30
0.0
  0
INSERT
  5
247
330
1F
100
AcDbEntity
  8
0
100
AcDbBlockReference
  2
BLOCK_84
 10
0.0
 20
0.0
 30
0.0
  0
INSERT
  5
24F
330
1F
100
AcDbEntity
  8
0
100
AcDbBlockReference
  2
BLOCK_85
 10
0.0
 20
0.0
 30
0.0
  0
INSERT
  5
257
330
1F
100
AcDbEntity
  8
0
100
AcDbBlockReference
  2
BLOCK_86
 10
0.0
 20
0.0
 30
0.0
  0
INSERT
  5
25F
330
1F
100
AcDbEntity
  8
0
100
AcDbBlockReference
  2
BLOCK_87
 10
0.0
 20
0.0
 30
0.0
  0
INSERT
  5
264
330
1F
100
AcDbEntity
  8
0
100
AcDbBlockReference
  2
BLOCK_88
 10
0.0
 20
0.0
 30
0.0
  0
INSERT
  5
269
330
1F
100
AcDbEntity
  8
0
100
AcDbBlockReference
  2
BLOCK_89
 10
0.0
 20
0.0
 30
0.0
  0
INSERT
  5
271
330
1F
100
AcDbEntity
  8
0
100
AcDbBlockReference
  2
BLOCK_90
 10
0.0
 20
0.0
 30
0.0
  0
INSERT
  5
279
330
1F
100
AcDbEntity
  8
0
100
AcDbBlockReference
  2
BLOCK_91
 10
0.0
 20
0.0
 30
0.0
  0
INSERT
  5
281
330
1F
100
AcDbEntity
  8
0
100
AcDbBlockReference
  2
BLOCK_92
 10
0.0
 20
0.0
 30
0.0
  0
INSERT
  5
286
330
1F
100
AcDbEntity
  8
0
100
AcDbBlockReference
  2
BLOCK_93
 10
0.0
 20
0.0
 30
0.0
  0
INSERT
  5
28B
330
1F
100
AcDbEntity
  8
0
100
AcDbBlockReference
  2
BLOCK_94
 10
0.0
 20
0.0
 30
0.0
  0
INSERT
  5
293
330
1F
100
AcDbEntity
  8
0
100
AcDbBlockReference
  2
BLOCK_95
 10
0.0
 20
0.0
 30
0.0
  0
INSERT
  5
29B
330
1F
100
AcDbEntity
  8
0
100
AcDbBlockReference
  2
BLOCK_96
 10
0.0
 20
0.0
 30
0.0
  0
ENDSEC
  0
SECTION
  2
OBJECTS
  0
DICTIONARY
  5
C
330
0
100
AcDbDictionary
  3
ACAD_GROUP
350
D
  3
ACAD_LAYOUT
350
1A
  3
ACAD_MATERIAL
350
3B
  3
ACAD_MLEADERSTYLE
350
2A4
  3
ACAD_MLINESTYLE
350
17
  3
ACAD_PLOTSETTINGS
350
19
  3
ACAD_VISUALSTYLE
350
2A
  3
ACDBVARIABLEDICTIONARY
350
2A2
1001
ACAD
1000
TREAT_AS_HARD
1070
     0
  0
DICTIONARY
  5
D
102
{ACAD_REACTORS
330
C
102
}
330
C
100
AcDbDictionary
1001
ACAD
1000
TREAT_AS_HARD
1070
     0
  0
DICTIONARY
  5
1A
102
{ACAD_REACTORS
330
C
102
}
330
C
100
AcDbDictionary
1001
ACAD
1000
TREAT_AS_HARD
1070
     0
  0
DICTIONARY
  5
3B
102
{ACAD_REACTORS
330
C
102
}
330
C
100
AcDbDictionary
  3
BYBLOCK
350
3D
  3
BYLAYER
350
3C
  3
GLOBAL
350
3E
1001
ACAD
1000
TREAT_AS_HARD
1070
     0
  0
DICTIONARY
  5
2A4
102
{ACAD_REACTORS
330
C
102
}
330
C
100
AcDbDictionary
1001
ACAD
1000
TREAT_AS_HARD
1070
     0
  0
DICTIONARY
  5
17
102
{ACAD_REACTORS
330
C
102
}
330
C
100
AcDbDictionary
  3
STANDARD
350
18
1001
ACAD
1000
TREAT_AS_HARD
1070
     0
  0
DICTIONARY
  5
19
102
{ACAD_REACTORS
330
C
102
}
330
C
100
AcDbDictionary
1001
ACAD
1000
TREAT_AS_HARD
1070
     0
  0
DICTIONARY
  5
2A
102
{ACAD_REACTORS
330
C
102
}
330
C
100
AcDbDictionary
  3
2DWIREFRAME
350
2F
  3
3DWIREFRAME
350
30
  3
3D_HIDDEN
350
31
  3
BASIC
350
32
  3
BRIGHTEN
350
36
  3
COLORCHANGE
350
3A
  3
CONCEPTUAL
350
34
  3
DIM
350
35
  3
FACEPATTERN
350
39
  3
FLAT
350
2B
  3
FLATWITHEDGES
350
2C
  3
GOURAUD
350
2D
  3
GOURAUDWITHEDGES
350
2E
  3
LINEPATTERN
350
38
  3
REALISTIC
350
33
  3
THICKEN
350
37
1001
ACAD
1000
TREAT_AS_HARD
1070
     0
  0
DICTIONARY
  5
2A2
102
{ACAD_REACTORS
330
C
102
}
330
C
100
AcDbDictionary
  3
DIMASSOC
350
2A5
  3
HIDETEXT
350
2A6
1001
ACAD
1000
TREAT_AS_HARD
1070
     0
  0
MATERIAL
  5
3D
102
{ACAD_REACTORS
330
3B
102
}
102
{ACAD_XDICTIONARY
360
2A9
102
}
330
3B
100
AcDbMaterial
  1
ByBlock
  0
MATERIAL
  5
3C
102
{ACAD_REACTORS
330
3B
102
}
102
{ACAD_XDICTIONARY
360
2A7
102
}
330
3B
100
AcDbMaterial
  1
ByLayer
  0
MATERIAL
  5
3E
102
{ACAD_REACTORS
330
3B
102
}
102
{ACAD_XDICTIONARY
360
2AB
102
}
330
3B
100
AcDbMaterial
  1
Global
  0
MLINESTYLE
  5
18
102
{ACAD_REACTORS
330
17
102
}
330
17
100
AcDbMlineStyle
  2
Standard
 70
     0
  3

 62
   256
 51
90.0
 52
90.0
 71
     2
 49
0.5
 62
   256
  6
BYLAYER
 49
-0.5
 62
   256
  6
BYLAYER
  0
ACAD_PROXY_OBJECT
  5
2F
102
{ACAD_REACTORS
330
2A
102
}
330
2A
100
AcDbZombieObject
 90
      499
 91
      501
 93
      436
310
42CC9915DA5C99599C985B595049028333333333333E3BF0000000000000FB0107901411070040501600405405064090741402480A0340
1001
ACAD
1000
AcDbSavedByObjectVersion
1070
     0
  0
ACAD_PROXY_OBJECT
  5
30
102
{ACAD_REACTORS
330
2A
102
}
330
2A
100
AcDbZombieObject
 90
      499
 91
      501
 93
      436
310
42CCD915DA5C99599C985B595059028333333333333E3BF0000000000000FB0107901411070040501600405405064090741402480A0340
1001
ACAD
1000
AcDbSavedByObjectVersion
1070
     0
  0
ACAD_PROXY_OBJECT
  5
31
102
{ACAD_REACTORS
330
2A
102
}
330
2A
100
AcDbZombieObject
 90
      499
 91
      501
 93
      500
310
424CD108121A5919195B90640502408333333333333E3BF0000000000000FB01079024090700405020000000000001110200405405064090740C02480A0340
1001
ACAD
1000
AcDbSavedByObjectVersion
1070
     0
  0
ACAD_PROXY_OBJECT
  5
32
102
{ACAD_REACTORS
330
2A
102
}
330
2A
100
AcDbZombieObject
 90
      499
 91
      501
 93
      388
310
4150985CDA58D07406404333333333333E3BF0000000000000FB0107A41107004050150841D405064090741402480A0350
1001
ACAD
1000
AcDbSavedByObjectVersion
1070
     0
  0
ACAD_PROXY_OBJECT
  5
36
102
{ACAD_REACTORS
330
2A
102
}
330
2A
100
AcDbZombieObject
 90
      499
 91
      501
 93
      428
310
42109C9A59DA1D195B90C409028333333333333E3BF0000000000000FB010790141107004050150841D405064090741402480A029950
1001
ACAD
1000
AcDbSavedByObjectVersion
1070
     0
  0
ACAD_PROXY_OBJECT
  5
3A
102
{ACAD_REACTORS
330
2A
102
}
330
2A
100
AcDbZombieObject
 90
      499
 91
      501
 93
      452
310
42D0DBDB1BDC90DA185B99D95104090240C333333333333E3BF0000000000000FB0108901411070040501508421405064090741402480A0350
1001
ACAD
1000
AcDbSavedByObjectVersion
1070
     0
  0
ACAD_PROXY_OBJECT
  5
34
102
{ACAD_REACTORS
330
2A
102
}
330
2A
100
AcDbZombieObject
 90
      499
 91
      501
 93
      500
310
4290DBDB98D95C1D1D585B10940D028333333333333E3BF0000000000000FB0107902409070040501000000000000111010841D405064090740C02480A0340
1001
ACAD
1000
AcDbSavedByObjectVersion
1070
     0
  0
ACAD_PROXY_OBJECT
  5
35
102
{ACAD_REACTORS
330
2A
102
}
330
2A
100
AcDbZombieObject
 90
      499
 91
      501
 93
      412
310
40D11A5B50B409028333333333333E3BF0000000000000FB010790141107004050150841D405064090741402480A02677FFFFFD0
1001
ACAD
1000
AcDbSavedByObjectVersion
1070
     0
  0
ACAD_PROXY_OBJECT
  5
39
102
{ACAD_REACTORS
330
2A
102
}
330
2A
100
AcDbZombieObject
 90
      499
 91
      501
 93
      444
310
42D19858D95C185D1D195C9B90F409028333333333333E3BF0000000000000FB010790141107004050150841D405064090741402480A0350
1001
ACAD
1000
AcDbSavedByObjectVersion
1070
     0
  0
ACAD_PROXY_OBJECT
  5
2B
102
{ACAD_REACTORS
330
2A
102
}
330
2A
100
AcDbZombieObject
 90
      499
 91
      501
 93
      388
310
41119B185D240901404333333333333E3BF0000000000000F9010740A41107004050150841D405064090741402480A1B50
1001
ACAD
1000
AcDbSavedByObjectVersion
1070
     0
  0
ACAD_PROXY_OBJECT
  5
2C
102
{ACAD_REACTORS
330
2A
102
}
330
2A
100
AcDbZombieObject
 90
      499
 91
      501
 93
      476
310
43519B185D15DA5D1A115919D95CD0140901404333333333333E3BF0000000000000F9010740901411070040501600405405064090741402480A1B50
1001
ACAD
1000
AcDbSavedByObjectVersion
1070
     0
  0
ACAD_PROXY_OBJECT
  5
2D
102
{ACAD_REACTORS
330
2A
102
}
330
2A
100
AcDbZombieObject
 90
      499
 91
      501
 93
      412
310
41D1DBDD5C985D5910240902404333333333333E3BF0000000000000F9010740A411070040501641D405064090741402480A1B50
1001
ACAD
1000
AcDbSavedByObjectVersion
1070
     0
  0
ACAD_PROXY_OBJECT
  5
2E
102
{ACAD_REACTORS
330
2A
102
}
330
2A
100
AcDbZombieObject
 90
      499
 91
      501
 93
      500
310
4411DBDD5C985D5915DA5D1A115919D95CD0340902404333333333333E3BF0000000000000F9010740901411070040501600405405064090741402480A1B50
1001
ACAD
1000
AcDbSavedByObjectVersion
1070
     0
  0
ACAD_PROXY_OBJECT
  5
38
102
{ACAD_REACTORS
330
2A
102
}
330
2A
100
AcDbZombieObject
 90
      499
 91
      501
 93
      444
310
42D31A5B995C185D1D195C9B90E409028333333333333E3BF0000000000000FB010790141107004050750841D405064090741402483A0350
1001
ACAD
1000
AcDbSavedByObjectVersion
1070
     0
  0
ACAD_PROXY_OBJECT
  5
33
102
{ACAD_REACTORS
330
2A
102
}
330
2A
100
AcDbZombieObject
 90
      499
 91
      501
 93
      420
310
425499585B1A5CDD1A58D08409028333333333333E3BF0000000000000FB01079019070040501508421405064090741402480A1B40
1001
ACAD
1000
AcDbSavedByObjectVersion
1070
     0
  0
ACAD_PROXY_OBJECT
  5
37
102
{ACAD_REACTORS
330
2A
102
}
330
2A
100
AcDbZombieObject
 90
      499
 91
      501
 93
      412
310
41D51A1A58DAD95B90D409028333333333333E3BF0000000000000FB010790141107004050150C41D405064090741402480A0350
1001
ACAD
1000
AcDbSavedByObjectVersion
1070
     0
  0
DICTIONARYVAR
  5
2A5
102
{ACAD_REACTORS
330
2A2
102
}
330
2A2
100
DictionaryVariables
280
     0
  1
2
  0
DICTIONARYVAR
  5
2A6
102
{ACAD_REACTORS
330
2A2
102
}
330
2A2
100
DictionaryVariables
280
     0
  1
1
  0
DICTIONARY
  5
2A9
330
3D
100
AcDbDictionary
  3
ACAD_XREC_ROUNDTRIP
360
2AA
1001
ACAD
1000
TREAT_AS_HARD
1070
     1
  0
DICTIONARY
  5
2A7
330
3C
100
AcDbDictionary
  3
ACAD_XREC_ROUNDTRIP
360
2A8
1001
ACAD
1000
TREAT_AS_HARD
1070
     1
  0
DICTIONARY
  5
2AB
330
3E
100
AcDbDictionary
  3
ACAD_XREC_ROUNDTRIP
360
2AC
1001
ACAD
1000
TREAT_AS_HARD
1070
     1
  0
XRECORD
  5
2AA
102
{ACAD_REACTORS
330
2A9
102
}
330
2A9
100
AcDbXrecord
102
MATERIAL
148
0.0
149
0.0
149
0.0
 93
        0
 94
      127
282
     0
 72
     1
 77
     1
171
     1
175
     1
179
     1
273
     0
  0
XRECORD
  5
2A8
102
{ACAD_REACTORS
330
2A7
102
}
330
2A7
100
AcDbXrecord
102
MATERIAL
148
0.0
149
0.0
149
0.0
 93
        0
 94
      127
282
     0
 72
     1
 77
     1
171
     1
175
     1
179
     1
273
     0
  0
XRECORD
  5
2AC
102
{ACAD_REACTORS
330
2AB
102
}
330
2AB
100
AcDbXrecord
102
MATERIAL
148
0.0
149
0.0
149
0.0
 93
        0
 94
      127
282
     0
 72
     1
 77
     1
171
     1
175
     1
179
     1
273
     0
  0
ENDSEC
  0
EOF
