  0
SECTION
  2
HEADER
  9
$ACADVER
  1
AC1012
  9
$DWGCODEPAGE
  3
undefined
  9
$INSBASE
 10
0.0
 20
0.0
 30
0.0
  9
$EXTMIN
 10
1.000000000000000E+20
 20
1.000000000000000E+20
 30
1.000000000000000E+20
  9
$EXTMAX
 10
-1.000000000000000E+20
 20
-1.000000000000000E+20
 30
-1.000000000000000E+20
  9
$LIMMIN
 10
0.0
 20
0.0
  9
$LIMMAX
 10
12.0
 20
9.0
  9
$ORTHOMODE
 70
     0
  9
$REGENMODE
 70
     1
  9
$FILLMODE
 70
     1
  9
$QTEXTMODE
 70
     0
  9
$MIRRTEXT
 70
     1
  9
$DRAGMODE
 70
     2
  9
$LTSCALE
 40
1.0
  9
$OSMODE
 70
    37
  9
$ATTMODE
 70
     1
  9
$TEXTSIZE
 40
0.2
  9
$TRACEWID
 40
0.05
  9
$TEXTSTYLE
  7
STANDARD
  9
$CLAYER
  8
0
  9
$CELTYPE
  6
BYLAYER
  9
$CECOLOR
 62
   256
  9
$CELTSCALE
 40
1.0
  9
$DELOBJ
 70
     1
  9
$DISPSILH
 70
     0
  9
$DIMSCALE
 40
1.0
  9
$DIMASZ
 40
0.18
  9
$DIMEXO
 40
0.0625
  9
$DIMDLI
 40
0.38
  9
$DIMRND
 40
0.0
  9
$DIMDLE
 40
0.0
  9
$DIMEXE
 40
0.18
  9
$DIMTP
 40
0.0
  9
$DIMTM
 40
0.0
  9
$DIMTXT
 40
0.18
  9
$DIMCEN
 40
0.09
  9
$DIMTSZ
 40
0.0
  9
$DIMTOL
 70
     0
  9
$DIMLIM
 70
     0
  9
$DIMTIH
 70
     1
  9
$DIMTOH
 70
     1
  9
$DIMSE1
 70
     0
  9
$DIMSE2
 70
     0
  9
$DIMTAD
 70
     0
  9
$DIMZIN
 70
     0
  9
$DIMBLK
  1

  9
$DIMASO
 70
     1
  9
$DIMSHO
 70
     1
  9
$DIMPOST
  1

  9
$DIMAPOST
  1

  9
$DIMALT
 70
     0
  9
$DIMALTD
 70
     2
  9
$DIMALTF
 40
25.4
  9
$DIMLFAC
 40
1.0
  9
$DIMTOFL
 70
     0
  9
$DIMTVP
 40
0.0
  9
$DIMTIX
 70
     0
  9
$DIMSOXD
 70
     0
  9
$DIMSAH
 70
     0
  9
$DIMBLK1
  1

  9
$DIMBLK2
  1

  9
$DIMSTYLE
  2
STANDARD
  9
$DIMCLRD
 70
     0
  9
$DIMCLRE
 70
     0
  9
$DIMCLRT
 70
     0
  9
$DIMTFAC
 40
1.0
  9
$DIMGAP
 40
0.09
  9
$DIMJUST
 70
     0
  9
$DIMSD1
 70
     0
  9
$DIMSD2
 70
     0
  9
$DIMTOLJ
 70
     1
  9
$DIMTZIN
 70
     0
  9
$DIMALTZ
 70
     0
  9
$DIMALTTZ
 70
     0
  9
$DIMFIT
 70
     3
  9
$DIMUPT
 70
     0
  9
$DIMUNIT
 70
     2
  9
$DIMDEC
 70
     4
  9
$DIMTDEC
 70
     4
  9
$DIMALTU
 70
     2
  9
$DIMALTTD
 70
     2
  9
$DIMTXSTY
  7
STANDARD
  9
$DIMAUNIT
 70
     0
  9
$LUNITS
 70
     2
  9
$LUPREC
 70
     4
  9
$SKETCHINC
 40
0.1
  9
$FILLETRAD
 40
0.5
  9
$AUNITS
 70
     0
  9
$AUPREC
 70
     0
  9
$MENU
  1
.
  9
$ELEVATION
 40
0.0
  9
$PELEVATION
 40
0.0
  9
$THICKNESS
 40
0.0
  9
$LIMCHECK
 70
     0
  9
$CHAMFERA
 40
0.5
  9
$CHAMFERB
 40
0.5
  9
$CHAMFERC
 40
1.0
  9
$CHAMFERD
 40
0.0
  9
$SKPOLY
 70
     0
  9
$TDCREATE
 40
2459983.161168981
  9
$TDUPDATE
 40
2459983.161168981
  9
$TDINDWG
 40
0.0000000116
  9
$TDUSRTIMER
 40
0.0000000116
  9
$USRTIMER
 70
     1
  9
$ANGBASE
 50
0.0
  9
$ANGDIR
 70
     0
  9
$PDMODE
 70
     0
  9
$PDSIZE
 40
0.0
  9
$PLINEWID
 40
0.0
  9
$COORDS
 70
     1
  9
$SPLFRAME
 70
     0
  9
$SPLINETYPE
 70
     6
  9
$SPLINESEGS
 70
     8
  9
$ATTDIA
 70
     0
  9
$ATTREQ
 70
     1
  9
$HANDLING
 70
     1
  9
$HANDSEED
  5
60
  9
$SURFTAB1
 70
     6
  9
$SURFTAB2
 70
     6
  9
$SURFTYPE
 70
     6
  9
$SURFU
 70
     6
  9
$SURFV
 70
     6
  9
$UCSNAME
  2

  9
$UCSORG
 10
0.0
 20
0.0
 30
0.0
  9
$UCSXDIR
 10
1.0
 20
0.0
 30
0.0
  9
$UCSYDIR
 10
0.0
 20
1.0
 30
0.0
  9
$PUCSNAME
  2

  9
$PUCSORG
 10
0.0
 20
0.0
 30
0.0
  9
$PUCSXDIR
 10
1.0
 20
0.0
 30
0.0
  9
$PUCSYDIR
 10
0.0
 20
1.0
 30
0.0
  9
$USERI1
 70
     0
  9
$USERI2
 70
     0
  9
$USERI3
 70
     0
  9
$USERI4
 70
     0
  9
$USERI5
 70
     0
  9
$USERR1
 40
0.0
  9
$USERR2
 40
0.0
  9
$USERR3
 40
0.0
  9
$USERR4
 40
0.0
  9
$USERR5
 40
0.0
  9
$WORLDVIEW
 70
     1
  9
$SHADEDGE
 70
     3
  9
$SHADEDIF
 70
    70
  9
$TILEMODE
 70
     1
  9
$MAXACTVP
 70
    64
  9
$PINSBASE
 10
0.0
 20
0.0
 30
0.0
  9
$PLIMCHECK
 70
     0
  9
$PEXTMIN
 10
1.000000000000000E+20
 20
1.000000000000000E+20
 30
1.000000000000000E+20
  9
$PEXTMAX
 10
-1.000000000000000E+20
 20
-1.000000000000000E+20
 30
-1.000000000000000E+20
  9
$PLIMMIN
 10
0.0
 20
0.0
  9
$PLIMMAX
 10
12.0
 20
9.0
  9
$UNITMODE
 70
     0
  9
$VISRETAIN
 70
     1
  9
$PLINEGEN
 70
     0
  9
$PSLTSCALE
 70
     1
  9
$TREEDEPTH
 70
  3020
  9
$PICKSTYLE
 70
     1
  9
$CMLSTYLE
  2
STANDARD
  9
$CMLJUST
 70
     0
  9
$CMLSCALE
 40
1.0
  9
$SAVEIMAGES
 70
     1
  0
ENDSEC
  0
SECTION
  2
CLASSES
  0
CLASS
  1
ACDBDICTIONARYWDFLT
  2
AcDbDictionaryWithDefault
  3
ObjectDBX Classes
 90
    32768
280
     0
281
     0
  0
CLASS
  1
VISUALSTYLE
  2
AcDbVisualStyle
  3
ObjectDBX Classes
 90
     4095
280
     0
281
     0
  0
CLASS
  1
MATERIAL
  2
AcDbMaterial
  3
ObjectDBX Classes
 90
     1153
280
     0
281
     0
  0
CLASS
  1
SUN
  2
AcDbSun
  3
SCENEOE
 90
     1024
280
     0
281
     0
  0
CLASS
  1
DICTIONARYVAR
  2
AcDbDictionaryVar
  3
ObjectDBX Classes
 90
        0
280
     0
281
     0
  0
CLASS
  1
XRECORD
  2
AcDbXrecord
  3
AutoCAD 2000
 90
    32768
280
     0
281
     0
  0
CLASS
  1
LWPOLYLINE
  2
AcDbPolyline
  3
AutoCAD 2000
 90
    32768
280
     0
281
     1
  0
CLASS
  1
HATCH
  2
AcDbHatch
  3
AutoCAD 2000
 90
    32768
280
     0
281
     1
  0
CLASS
  1
ACDBPLACEHOLDER
  2
AcDbPlaceHolder
  3
ObjectDBX Classes
 90
        0
280
     0
281
     0
  0
CLASS
  1
LAYOUT
  2
AcDbLayout
  3
ObjectDBX Classes
 90
        0
280
     0
281
     0
  0
ENDSEC
  0
SECTION
  2
TABLES
  0
TABLE
  2
VPORT
  5
8
330
0
100
AcDbSymbolTable
 70
     1
  0
VPORT
  5
29
330
8
100
AcDbSymbolTableRecord
100
AcDbViewportTableRecord
  2
*ACTIVE
 70
     0
 10
0.0
 20
0.0
 11
1.0
 21
1.0
 12
0.0
 22
0.0
 13
0.0
 23
0.0
 14
0.5
 24
0.5
 15
0.5
 25
0.5
 16
0.0
 26
0.0
 36
1.0
 17
49.99999998749409
 27
49.99999998749409
 37
0.0
 40
99.99999997498817
 41
1.0
 42
50.0
 43
0.0
 44
0.0
 50
0.0
 51
0.0
 71
     0
 72
   100
 73
     1
 74
     3
 75
     0
 76
     0
 77
     0
 78
     0
  0
ENDTAB
  0
TABLE
  2
LTYPE
  5
5
330
0
100
AcDbSymbolTable
 70
     1
  0
LTYPE
  5
14
330
5
100
AcDbSymbolTableRecord
100
AcDbLinetypeTableRecord
  2
BYBLOCK
 70
     0
  3

 72
    65
 73
     0
 40
0.0
  0
LTYPE
  5
15
330
5
100
AcDbSymbolTableRecord
100
AcDbLinetypeTableRecord
  2
BYLAYER
 70
     0
  3

 72
    65
 73
     0
 40
0.0
  0
LTYPE
  5
16
330
5
100
AcDbSymbolTableRecord
100
AcDbLinetypeTableRecord
  2
CONTINUOUS
 70
     0
  3
Solid line
 72
    65
 73
     0
 40
0.0
  0
ENDTAB
  0
TABLE
  2
LAYER
  5
2
330
0
100
AcDbSymbolTable
 70
     2
  0
LAYER
  5
10
330
2
100
AcDbSymbolTableRecord
100
AcDbLayerTableRecord
  2
0
 70
     0
 62
     7
  6
CONTINUOUS
  0
LAYER
  5
40
330
2
100
AcDbSymbolTableRecord
100
AcDbLayerTableRecord
  2
LAYER_1
 70
     0
 62
     7
  6
CONTINUOUS
  0
ENDTAB
  0
TABLE
  2
STYLE
  5
3
330
0
100
AcDbSymbolTable
 70
     1
  0
STYLE
  5
11
330
3
100
AcDbSymbolTableRecord
100
AcDbTextStyleTableRecord
  2
STANDARD
 70
     0
 40
0.0
 41
1.0
 50
0.0
 71
     0
 42
0.2
  3
txt
  4

  0
ENDTAB
  0
TABLE
  2
VIEW
  5
6
330
0
100
AcDbSymbolTable
 70
     0
  0
ENDTAB
  0
TABLE
  2
UCS
  5
7
330
0
100
AcDbSymbolTable
 70
     0
  0
ENDTAB
  0
TABLE
  2
APPID
  5
9
330
0
100
AcDbSymbolTable
 70
     1
  0
APPID
  5
12
330
9
100
AcDbSymbolTableRecord
100
AcDbRegAppTableRecord
  2
ACAD
 70
     0
  0
ENDTAB
  0
TABLE
  2
DIMSTYLE
  5
A
330
0
100
AcDbSymbolTable
 70
     1
  0
DIMSTYLE
105
27
330
A
100
AcDbSymbolTableRecord
100
AcDbDimStyleTableRecord
  2
STANDARD
 70
     0
  3

  4

  5

  6

  7

 40
1.0
 41
0.18
 42
0.0625
 43
0.38
 44
0.18
 45
0.0
 46
0.0
 47
0.0
 48
0.0
140
0.18
141
0.09
142
0.0
143
25.4
144
1.0
145
0.0
146
1.0
147
0.09
 71
     0
 72
     0
 73
     1
 74
     1
 75
     0
 76
     0
 77
     0
 78
     0
170
     0
171
     2
172
     0
173
     0
174
     0
175
     0
176
     0
177
     0
178
     0
270
     2
271
     4
272
     4
273
     2
274
     2
340
11
275
     0
280
     0
281
     0
282
     0
283
     1
284
     0
285
     0
286
     0
287
     3
288
     0
  0
ENDTAB
  0
TABLE
  2
BLOCK_RECORD
  5
1
330
0
100
AcDbSymbolTable
 70
     5
  0
BLOCK_RECORD
  5
1F
330
1
100
AcDbSymbolTableRecord
100
AcDbBlockTableRecord
  2
*MODEL_SPACE
  0
BLOCK_RECORD
  5
1B
330
1
100
AcDbSymbolTableRecord
100
AcDbBlockTableRecord
  2
*PAPER_SPACE
  0
BLOCK_RECORD
  5
41
330
1
100
AcDbSymbolTableRecord
100
AcDbBlockTableRecord
  2
BLOCK_2
  0
BLOCK_RECORD
  5
46
330
1
100
AcDbSymbolTableRecord
100
AcDbBlockTableRecord
  2
BLOCK_3
  0
BLOCK_RECORD
  5
4B
330
1
100
AcDbSymbolTableRecord
100
AcDbBlockTableRecord
  2
BLOCK_4
  0
BLOCK_RECORD
  5
50
330
1
100
AcDbSymbolTableRecord
100
AcDbBlockTableRecord
  2
BLOCK_5
  0
ENDTAB
  0
ENDSEC
  0
SECTION
  2
BLOCKS
  0
BLOCK
  5
20
330
1F
100
AcDbEntity
  8
0
100
AcDbBlockBegin
  2
*MODEL_SPACE
 70
     0
 10
0.0
 20
0.0
 30
0.0
  3
*MODEL_SPACE
  1

  0
ENDBLK
  5
21
330
1F
100
AcDbEntity
  8
0
100
AcDbBlockEnd
  0
BLOCK
  5
1C
330
1B
100
AcDbEntity
 67
     1
  8
0
100
AcDbBlockBegin
  2
*PAPER_SPACE
 70
     0
 10
0.0
 20
0.0
 30
0.0
  3
*PAPER_SPACE
  1

  0
ENDBLK
  5
1D
330
1B
100
AcDbEntity
 67
     1
  8
0
100
AcDbBlockEnd
  0
BLOCK
  5
43
330
41
100
AcDbEntity
  8
0
100
AcDbBlockBegin
  2
BLOCK_2
 70
     0
 10
0.0
 20
0.0
 30
0.0
  3
BLOCK_2
  1

  0
SPLINE
  5
45
330
41
100
AcDbEntity
  8
LAYER_1
 62
     7
100
AcDbSpline
210
0.0
220
0.0
230
1.0
 70
    11
 71
     3
 72
    53
 73
    49
 74
     0
 42
0.0000000001
 43
0.0000000001
 12
1.0
 22
0.0
 32
0.0
 13
1.0
 23
0.0
 33
0.0
 40
0.0
 40
0.0
 40
0.0
 40
0.0
 40
1.0
 40
1.0
 40
1.0
 40
2.0
 40
2.0
 40
2.0
 40
3.0
 40
3.0
 40
3.0
 40
4.0
 40
4.0
 40
4.0
 40
5.0
 40
5.0
 40
5.0
 40
6.0
 40
6.0
 40
6.0
 40
7.0
 40
7.0
 40
7.0
 40
8.0
 40
8.0
 40
8.0
 40
9.0
 40
9.0
 40
9.0
 40
10.0
 40
10.0
 40
10.0
 40
11.0
 40
11.0
 40
11.0
 40
12.0
 40
12.0
 40
12.0
 40
13.0
 40
13.0
 40
13.0
 40
14.0
 40
14.0
 40
14.0
 40
15.0
 40
15.0
 40
15.0
 40
16.0
 40
16.0
 40
16.0
 40
16.0
 10
49.84638443771967
 20
47.45277387702578
 30
0.0
 10
49.84638443771967
 20
47.45277387702578
 30
0.0
 10
49.84638443771967
 20
47.31060443261615
 30
0.0
 10
49.84638443771967
 20
47.31060443261615
 30
0.0
 10
49.84638443771967
 20
47.31060443261615
 30
0.0
 10
48.59536391408031
 20
47.31060443261615
 30
0.0
 10
48.59536391408031
 20
47.31060443261615
 30
0.0
 10
48.14236198119291
 20
47.31060443261615
 30
0.0
 10
47.81755948947931
 20
47.25440693263042
 30
0.0
 10
47.61707588348296
 20
47.14218832154722
 30
0.0
 10
47.41666283304037
 20
47.02587748824352
 30
0.0
 10
47.31636811337687
 20
46.84948859939873
 30
0.0
 10
47.31636811337687
 20
46.6049077661269
 30
0.0
 10
47.31636811337687
 20
46.46460804393928
 30
0.0
 10
47.34448450154846
 20
46.29220554398178
 30
0.0
 10
47.39256811143285
 20
46.08770026625569
 30
0.0
 10
47.44467338788132
 20
45.88718137741689
 30
0.0
 10
47.5168869971501
 20
45.65067915525412
 30
0.0
 10
47.60906782813171
 20
45.38598998865373
 30
0.0
 10
47.60906782813171
 20
45.38598998865373
 30
0.0
 10
50.60016469626659
 20
37.01439693519055
 30
0.0
 10
50.60016469626659
 20
37.01439693519055
 30
0.0
 10
50.60016469626659
 20
37.01439693519055
 30
0.0
 10
53.79566100363222
 20
45.57447915527305
 30
0.0
 10
53.79566100363222
 20
45.57447915527305
 30
0.0
 10
53.87175516835756
 20
45.75887609967059
 30
0.0
 10
53.9359607222751
 20
45.95138693295664
 30
0.0
 10
53.97607155458512
 20
46.14379193290821
 30
0.0
 10
54.02016877568233
 20
46.33228109952752
 30
0.0
 10
54.04017127517202
 20
46.49667554393099
 30
0.0
 10
54.04017127517202
 20
46.62900248834274
 30
0.0
 10
54.04017127517202
 20
46.88959943272135
 30
0.0
 10
53.93998238883916
 20
47.06598832156615
 30
0.0
 10
53.74348517163
 20
47.16219082154257
 30
0.0
 10
53.54307212118741
 20
47.26248554373949
 30
0.0
 10
53.13808324263065
 20
47.31060443261615
 30
0.0
 10
52.52865964706723
 20
47.31060443261615
 30
0.0
 10
52.52865964706723
 20
47.31060443261615
 30
0.0
 10
51.4581555077114
 20
47.31060443261615
 30
0.0
 10
51.4581555077114
 20
47.31060443261615
 30
0.0
 10
51.4581555077114
 20
47.31060443261615
 30
0.0
 10
51.4581555077114
 20
47.5002930436801
 30
0.0
 10
51.4581555077114
 20
47.5002930436801
 30
0.0
 10
51.07655579522459
 20
47.46399221035654
 30
0.0
 10
50.68296163859871
 20
47.44568304369367
 30
0.0
 10
50.27737303783503
 20
47.44568304369367
 30
0.0
 10
50.13216970820613
 20
47.44568304369367
 30
0.0
 10
49.98858915631427
 20
47.44808193258168
 30
0.0
 10
49.84638443771967
 20
47.45277387702578
 30
0.0
  0
ENDBLK
  5
44
330
41
100
AcDbEntity
  8
0
100
AcDbBlockEnd
  0
BLOCK
  5
48
330
46
100
AcDbEntity
  8
0
100
AcDbBlockBegin
  2
BLOCK_3
 70
     0
 10
0.0
 20
0.0
 30
0.0
  3
BLOCK_3
  1

  0
SPLINE
  5
4A
330
46
100
AcDbEntity
  8
LAYER_1
 62
     7
100
AcDbSpline
210
0.0
220
0.0
230
1.0
 70
    11
 71
     3
 72
   266
 73
   262
 74
     0
 42
0.0000000001
 43
0.0000000001
 12
1.0
 22
0.0
 32
0.0
 13
1.0
 23
0.0
 33
0.0
 40
0.0
 40
0.0
 40
0.0
 40
0.0
 40
1.0
 40
1.0
 40
1.0
 40
2.0
 40
2.0
 40
2.0
 40
3.0
 40
3.0
 40
3.0
 40
4.0
 40
4.0
 40
4.0
 40
5.0
 40
5.0
 40
5.0
 40
6.0
 40
6.0
 40
6.0
 40
7.0
 40
7.0
 40
7.0
 40
8.0
 40
8.0
 40
8.0
 40
9.0
 40
9.0
 40
9.0
 40
10.0
 40
10.0
 40
10.0
 40
11.0
 40
11.0
 40
11.0
 40
12.0
 40
12.0
 40
12.0
 40
13.0
 40
13.0
 40
13.0
 40
14.0
 40
14.0
 40
14.0
 40
15.0
 40
15.0
 40
15.0
 40
16.0
 40
16.0
 40
16.0
 40
17.0
 40
17.0
 40
17.0
 40
18.0
 40
18.0
 40
18.0
 40
19.0
 40
19.0
 40
19.0
 40
20.0
 40
20.0
 40
20.0
 40
21.0
 40
21.0
 40
21.0
 40
22.0
 40
22.0
 40
22.0
 40
23.0
 40
23.0
 40
23.0
 40
24.0
 40
24.0
 40
24.0
 40
25.0
 40
25.0
 40
25.0
 40
26.0
 40
26.0
 40
26.0
 40
27.0
 40
27.0
 40
27.0
 40
28.0
 40
28.0
 40
28.0
 40
29.0
 40
29.0
 40
29.0
 40
30.0
 40
30.0
 40
30.0
 40
31.0
 40
31.0
 40
31.0
 40
32.0
 40
32.0
 40
32.0
 40
33.0
 40
33.0
 40
33.0
 40
34.0
 40
34.0
 40
34.0
 40
35.0
 40
35.0
 40
35.0
 40
36.0
 40
36.0
 40
36.0
 40
37.0
 40
37.0
 40
37.0
 40
38.0
 40
38.0
 40
38.0
 40
39.0
 40
39.0
 40
39.0
 40
40.0
 40
40.0
 40
40.0
 40
41.0
 40
41.0
 40
41.0
 40
42.0
 40
42.0
 40
42.0
 40
43.0
 40
43.0
 40
43.0
 40
44.0
 40
44.0
 40
44.0
 40
45.0
 40
45.0
 40
45.0
 40
46.0
 40
46.0
 40
46.0
 40
47.0
 40
47.0
 40
47.0
 40
48.0
 40
48.0
 40
48.0
 40
49.0
 40
49.0
 40
49.0
 40
50.0
 40
50.0
 40
50.0
 40
51.0
 40
51.0
 40
51.0
 40
52.0
 40
52.0
 40
52.0
 40
53.0
 40
53.0
 40
53.0
 40
54.0
 40
54.0
 40
54.0
 40
55.0
 40
55.0
 40
55.0
 40
56.0
 40
56.0
 40
56.0
 40
57.0
 40
57.0
 40
57.0
 40
58.0
 40
58.0
 40
58.0
 40
59.0
 40
59.0
 40
59.0
 40
60.0
 40
60.0
 40
60.0
 40
61.0
 40
61.0
 40
61.0
 40
62.0
 40
62.0
 40
62.0
 40
63.0
 40
63.0
 40
63.0
 40
64.0
 40
64.0
 40
64.0
 40
65.0
 40
65.0
 40
65.0
 40
66.0
 40
66.0
 40
66.0
 40
67.0
 40
67.0
 40
67.0
 40
68.0
 40
68.0
 40
68.0
 40
69.0
 40
69.0
 40
69.0
 40
70.0
 40
70.0
 40
70.0
 40
71.0
 40
71.0
 40
71.0
 40
72.0
 40
72.0
 40
72.0
 40
73.0
 40
73.0
 40
73.0
 40
74.0
 40
74.0
 40
74.0
 40
75.0
 40
75.0
 40
75.0
 40
76.0
 40
76.0
 40
76.0
 40
77.0
 40
77.0
 40
77.0
 40
78.0
 40
78.0
 40
78.0
 40
79.0
 40
79.0
 40
79.0
 40
80.0
 40
80.0
 40
80.0
 40
81.0
 40
81.0
 40
81.0
 40
82.0
 40
82.0
 40
82.0
 40
83.0
 40
83.0
 40
83.0
 40
84.0
 40
84.0
 40
84.0
 40
85.0
 40
85.0
 40
85.0
 40
86.0
 40
86.0
 40
86.0
 40
87.0
 40
87.0
 40
87.0
 40
87.0
 10
46.80716868192319
 20
82.45069303494255
 30
0.0
 10
48.18787031336554
 20
82.45069303494255
 30
0.0
 10
49.30716361814301
 20
81.33139970188925
 30
0.0
 10
49.30716361814301
 20
79.95069803556736
 30
0.0
 10
49.30716361814301
 20
79.80859914671404
 30
0.0
 10
49.29516917400456
 20
79.66918136897083
 30
0.0
 10
49.27248556347216
 20
79.5335735912273
 30
0.0
 10
49.24726195300456
 20
79.38339609126493
 30
0.0
 10
49.28546778536318
 20
79.2440841468549
 30
0.0
 10
49.38385750507527
 20
79.12777331355089
 30
0.0
 10
49.48217666923361
 20
79.01149775802439
 30
0.0
 10
49.61326888811139
 20
78.95067886915089
 30
0.0
 10
49.76556305089271
 20
78.95067886915089
 30
0.0
 10
49.76556305089271
 20
78.95067886915089
 30
0.0
 10
51.13737468256186
 20
78.95067886915089
 30
0.0
 10
51.13737468256186
 20
78.95067886915089
 30
0.0
 10
51.13737468256186
 20
78.95067886915089
 30
0.0
 10
51.13737468256186
 20
77.12240803627435
 30
0.0
 10
51.13737468256186
 20
77.12240803627435
 30
0.0
 10
51.13737468256186
 20
77.12240803627435
 30
0.0
 10
50.00668665585224
 20
77.12240803627435
 30
0.0
 10
50.00668665585224
 20
77.12240803627435
 30
0.0
 10
49.28497389648689
 20
77.12240803627435
 30
0.0
 10
48.83595835238668
 20
77.03819998073989
 30
0.0
 10
48.65946363466721
 20
76.86579748078334
 30
0.0
 10
48.48307475027838
 20
76.69339498082617
 30
0.0
 10
48.39488030808396
 20
76.28039803648477
 30
0.0
 10
48.39488030808396
 20
75.6308988699806
 30
0.0
 10
48.39488030808396
 20
75.6308988699806
 30
0.0
 10
48.39488030808396
 20
64.63700276161819
 30
0.0
 10
48.39488030808396
 20
64.63700276161819
 30
0.0
 10
48.39488030808396
 20
64.63700276161819
 30
0.0
 10
51.40597967570918
 20
64.63700276161819
 30
0.0
 10
51.40597967570918
 20
64.63700276161819
 30
0.0
 10
52.4804702038522
 20
64.63700276161819
 30
0.0
 10
53.28236935006071
 20
64.7291835949282
 30
0.0
 10
53.81566350312191
 20
64.91368637265958
 30
0.0
 10
54.34888710062936
 20
65.09808331705872
 30
0.0
 10
54.7297812575786
 20
65.40679915031431
 30
0.0
 10
54.96638930709778
 20
65.83577692798497
 30
0.0
 10
55.19488346793508
 20
66.25279553899182
 30
0.0
 10
55.36326429697266
 20
66.75797331664354
 30
0.0
 10
55.4715670719874
 20
67.3513808164952
 30
0.0
 10
55.57976401367151
 20
67.94877470523477
 30
0.0
 10
55.6359615122378
 20
68.66247942727804
 30
0.0
 10
55.6359615122378
 20
69.4923891492931
 30
0.0
 10
55.6359615122378
 20
69.4923891492931
 30
0.0
 10
55.6359615122378
 20
69.78508887144255
 30
0.0
 10
55.6359615122378
 20
69.78508887144255
 30
0.0
 10
55.6359615122378
 20
69.78508887144255
 30
0.0
 10
57.48825646498182
 20
69.78508887144255
 30
0.0
 10
57.48825646498182
 20
69.78508887144255
 30
0.0
 10
57.48825646498182
 20
69.78508887144255
 30
0.0
 10
57.48825646498182
 20
62.80869665096412
 30
0.0
 10
57.48825646498182
 20
62.80869665096412
 30
0.0
 10
57.48825646498182
 20
62.80869665096412
 30
0.0
 10
55.95395539301398
 20
62.80869665096412
 30
0.0
 10
55.95395539301398
 20
62.80869665096412
 30
0.0
 10
56.22107871953244
 20
62.60990637323597
 30
0.0
 10
56.47656037968122
 20
62.39390053995672
 30
0.0
 10
56.7204709290141
 20
62.16029109557076
 30
0.0
 10
58.34437755425146
 20
60.59667415151677
 30
0.0
 10
59.15827114459842
 20
58.53980331869796
 30
0.0
 10
59.15827114459842
 20
55.98579804155833
 30
0.0
 10
59.15827114459842
 20
53.42378470886596
 30
0.0
 10
58.34437755425146
 20
51.36289220938138
 30
0.0
 10
56.71246287366285
 20
49.79528887643976
 30
0.0
 10
56.46668260215545
 20
49.55850443205395
 30
0.0
 10
56.20887260873273
 20
49.33978220988677
 30
0.0
 10
55.93945622671723
 20
49.13887526549333
 30
0.0
 10
55.93945622671723
 20
49.13887526549333
 30
0.0
 10
59.13618725627293
 20
49.13887526549333
 30
0.0
 10
59.13618725627293
 20
49.13887526549333
 30
0.0
 10
59.13618725627293
 20
49.13887526549333
 30
0.0
 10
59.13618725627293
 20
47.31060443261615
 30
0.0
 10
59.13618725627293
 20
47.31060443261615
 30
0.0
 10
59.13618725627293
 20
47.31060443261615
 30
0.0
 10
58.65506893521395
 20
47.31060443261615
 30
0.0
 10
58.65506893521395
 20
47.31060443261615
 30
0.0
 10
58.08575617196055
 20
47.31060443261615
 30
0.0
 10
57.65677840512691
 20
47.21027443264106
 30
0.0
 10
57.37607313451052
 20
47.00989665491363
 30
0.0
 10
57.09536786389413
 20
46.81339943274028
 30
0.0
 10
56.83078453731088
 20
46.38039998840417
 30
0.0
 10
56.59015482122763
 20
45.71477887745939
 30
0.0
 10
56.59015482122763
 20
45.71477887745939
 30
0.0
 10
52.28626604214009
 20
34.23299110255203
 30
0.0
 10
52.28626604214009
 20
34.23299110255203
 30
0.0
 10
52.28626604214009
 20
34.23299110255203
 30
0.0
 10
57.62068923938095
 20
34.23299110255203
 30
0.0
 10
57.62068923938095
 20
34.23299110255203
 30
0.0
 10
57.62068923938095
 20
34.23299110255203
 30
0.0
 10
57.62068923938095
 20
27.80989554860327
 30
0.0
 10
57.62068923938095
 20
27.80989554860327
 30
0.0
 10
57.62068923938095
 20
27.80989554860327
 30
0.0
 10
55.79238317491382
 20
27.80989554860327
 30
0.0
 10
55.79238317491382
 20
27.80989554860327
 30
0.0
 10
55.74415845392191
 20
29.64617443703321
 30
0.0
 10
55.4434859615927
 20
30.87310027005912
 30
0.0
 10
54.894175697829
 20
31.4864749921286
 30
0.0
 10
54.3408790452781
 20
32.09999082530815
 30
0.0
 10
53.222256018261
 20
32.40468499189797
 30
0.0
 10
51.53428495021362
 20
32.40468499189797
 30
0.0
 10
51.53428495021362
 20
32.40468499189797
 30
0.0
 10
47.66117310458016
 20
32.40468499189797
 30
0.0
 10
47.66117310458016
 20
32.40468499189797
 30
0.0
 10
47.66117310458016
 20
32.40468499189797
 30
0.0
 10
47.66117310458016
 20
27.44900388202646
 30
0.0
 10
47.66117310458016
 20
27.44900388202646
 30
0.0
 10
47.66117310458016
 20
27.44900388202646
 30
0.0
 10
48.57536141459062
 20
27.44900388202646
 30
0.0
 10
48.57536141459062
 20
27.44900388202646
 30
0.0
 10
49.58578749992361
 20
27.44900388202646
 30
0.0
 10
50.24728109415829
 20
27.62539277087125
 30
0.0
 10
50.56407553052063
 20
27.97428999300674
 30
0.0
 10
50.8767777447658
 20
28.32308138180775
 30
0.0
 10
51.07327496197496
 20
29.12498054827342
 30
0.0
 10
51.14936912670031
 20
30.38390332573729
 30
0.0
 10
51.14936912670031
 20
30.38390332573729
 30
0.0
 10
52.97767519116744
 20
30.39600360351181
 30
0.0
 10
52.97767519116744
 20
30.39600360351181
 30
0.0
 10
52.97767519116744
 20
30.39600360351181
 30
0.0
 10
52.97767519116744
 20
22.30088249442394
 30
0.0
 10
52.97767519116744
 20
22.30088249442394
 30
0.0
 10
52.97767519116744
 20
22.30088249442394
 30
0.0
 10
51.14936912670031
 20
22.31287693886655
 30
0.0
 10
51.14936912670031
 20
22.31287693886655
 30
0.0
 10
51.07726135076215
 20
23.6961891607419
 30
0.0
 10
50.88877218890424
 20
24.5903044382967
 30
0.0
 10
50.57208358587189
 20
24.99120110486293
 30
0.0
 10
50.25927553829673
 20
25.39618999365095
 30
0.0
 10
49.60176833284924
 20
25.59667360471158
 30
0.0
 10
48.59938558064437
 20
25.59667360471158
 30
0.0
 10
48.59938558064437
 20
25.59667360471158
 30
0.0
 10
47.66117310458016
 20
25.59667360471158
 30
0.0
 10
47.66117310458016
 20
25.59667360471158
 30
0.0
 10
47.66117310458016
 20
25.59667360471158
 30
0.0
 10
47.66117310458016
 20
19.91927971724277
 30
0.0
 10
47.66117310458016
 20
19.91927971724277
 30
0.0
 10
47.66117310458016
 20
19.91927971724277
 30
0.0
 10
51.88716855232192
 20
19.91927971724277
 30
0.0
 10
51.88716855232192
 20
19.91927971724277
 30
0.0
 10
53.29845601631698
 20
19.91927971724277
 30
0.0
 10
54.26877126933995
 20
20.24810388382659
 30
0.0
 10
54.79398681149614
 20
20.90158943921869
 30
0.0
 10
55.31916707587546
 20
21.55518082794399
 30
0.0
 10
55.6519776229403
 20
22.89428999427623
 30
0.0
 10
55.79238317491382
 20
24.92307971599093
 30
0.0
 10
55.79238317491382
 20
24.92307971599093
 30
0.0
 10
57.62068923938095
 20
24.92307971599093
 30
0.0
 10
57.62068923938095
 20
24.92307971599093
 30
0.0
 10
57.62068923938095
 20
24.92307971599093
 30
0.0
 10
57.62068923938095
 20
18.09097360658871
 30
0.0
 10
57.62068923938095
 20
18.09097360658871
 30
0.0
 10
57.62068923938095
 20
18.09097360658871
 30
0.0
 10
41.74325547778105
 20
18.09097360658871
 30
0.0
 10
41.74325547778105
 20
18.09097360658871
 30
0.0
 10
41.74325547778105
 20
18.09097360658871
 30
0.0
 10
41.74325547778105
 20
19.91927971724277
 30
0.0
 10
41.74325547778105
 20
19.91927971724277
 30
0.0
 10
41.74325547778105
 20
19.91927971724277
 30
0.0
 10
42.68146795384525
 20
19.91927971724277
 30
0.0
 10
42.68146795384525
 20
19.91927971724277
 30
0.0
 10
43.39517265785935
 20
19.91927971724277
 30
0.0
 10
43.8401665353955
 20
20.00348777277659
 30
0.0
 10
44.01256903099715
 20
20.17190388384552
 30
0.0
 10
44.18497152659879
 20
20.34028471713628
 30
0.0
 10
44.26917958000602
 20
20.75730332814377
 30
0.0
 10
44.26917958000602
 20
21.4187969390899
 30
0.0
 10
44.26917958000602
 20
21.4187969390899
 30
0.0
 10
44.26917958000602
 20
30.92118388115889
 30
0.0
 10
44.26917958000602
 20
30.92118388115889
 30
0.0
 10
44.26917958000602
 20
31.57470471432787
 30
0.0
 10
44.18497152659879
 20
31.98770165866991
 30
0.0
 10
44.01256903099715
 20
32.15209610307338
 30
0.0
 10
43.8401665353955
 20
32.32047693636414
 30
0.0
 10
43.39517265785935
 20
32.40468499189797
 30
0.0
 10
42.68146795384525
 20
32.40468499189797
 30
0.0
 10
42.68146795384525
 20
32.40468499189797
 30
0.0
 10
41.74325547778105
 20
32.40468499189797
 30
0.0
 10
41.74325547778105
 20
32.40468499189797
 30
0.0
 10
41.74325547778105
 20
32.40468499189797
 30
0.0
 10
41.74325547778105
 20
34.23299110255203
 30
0.0
 10
41.74325547778105
 20
34.23299110255203
 30
0.0
 10
41.74325547778105
 20
34.23299110255203
 30
0.0
 10
48.04146753932249
 20
34.23299110255203
 30
0.0
 10
48.04146753932249
 20
34.23299110255203
 30
0.0
 10
48.04146753932249
 20
34.23299110255203
 30
0.0
 10
43.96046375454868
 20
45.75887609967059
 30
0.0
 10
43.96046375454868
 20
45.75887609967059
 30
0.0
 10
43.74798570441389
 20
46.35630526618833
 30
0.0
 10
43.50746182166128
 20
46.76129415497634
 30
0.0
 10
43.23878627296021
 20
46.98178026603233
 30
0.0
 10
42.9701812798129
 20
47.20230165486648
 30
0.0
 10
42.58928712286365
 20
47.31060443261615
 30
0.0
 10
42.10418241301748
 20
47.31060443261615
 30
0.0
 10
42.10418241301748
 20
47.31060443261615
 30
0.0
 10
41.40645854192901
 20
47.31060443261615
 30
0.0
 10
41.40645854192901
 20
47.31060443261615
 30
0.0
 10
41.40645854192901
 20
47.31060443261615
 30
0.0
 10
41.40645854192901
 20
49.13887526549333
 30
0.0
 10
41.40645854192901
 20
49.13887526549333
 30
0.0
 10
41.40645854192901
 20
49.13887526549333
 30
0.0
 10
44.60996290464557
 20
49.13887526549333
 30
0.0
 10
44.60996290464557
 20
49.13887526549333
 30
0.0
 10
44.33818291157893
 20
49.34098165433142
 30
0.0
 10
44.0781856959898
 20
49.56107970983148
 30
0.0
 10
43.83018292453909
 20
49.7992752653277
 30
0.0
 10
42.19837407728112
 20
51.37100609826797
 30
0.0
 10
41.38038826481634
 20
53.43179276441935
 30
0.0
 10
41.38038826481634
 20
55.98579804155833
 30
0.0
 10
41.38038826481634
 20
58.53980331869796
 30
0.0
 10
42.19837407728112
 20
60.59667415151677
 30
0.0
 10
43.83018292453909
 20
62.16029109557076
 30
0.0
 10
44.07465791830202
 20
62.39390053995672
 30
0.0
 10
44.3307745784346
 20
62.60990637323597
 30
0.0
 10
44.5984623493831
 20
62.80869665096412
 30
0.0
 10
44.5984623493831
 20
62.80869665096412
 30
0.0
 10
42.47696268128484
 20
62.80869665096412
 30
0.0
 10
42.47696268128484
 20
62.80869665096412
 30
0.0
 10
42.47696268128484
 20
62.80869665096412
 30
0.0
 10
42.47696268128484
 20
64.63700276161819
 30
0.0
 10
42.47696268128484
 20
64.63700276161819
 30
0.0
 10
42.47696268128484
 20
64.63700276161819
 30
0.0
 10
43.41517515734905
 20
64.63700276161819
 30
0.0
 10
43.41517515734905
 20
64.63700276161819
 30
0.0
 10
44.12887986136315
 20
64.63700276161819
 30
0.0
 10
44.57387373889929
 20
64.72117553937514
 30
0.0
 10
44.74627623450094
 20
64.88959165044406
 30
0.0
 10
44.91867873010258
 20
65.05800776151266
 30
0.0
 10
45.00288678350982
 20
65.47100470585406
 30
0.0
 10
45.00288678350982
 20
66.12847665013442
 30
0.0
 10
45.00288678350982
 20
66.12847665013442
 30
0.0
 10
45.00288678350982
 20
75.6308988699806
 30
0.0
 10
45.00288678350982
 20
75.6308988699806
 30
0.0
 10
45.00288678350982
 20
76.28840609203849
 30
0.0
 10
44.91867873010258
 20
76.70140303637987
 30
0.0
 10
44.74627623450094
 20
76.86978386967095
 30
0.0
 10
44.57387373889929
 20
77.03819998073989
 30
0.0
 10
44.12887986136315
 20
77.12240803627435
 30
0.0
 10
43.41517515734905
 20
77.12240803627435
 30
0.0
 10
43.41517515734905
 20
77.12240803627435
 30
0.0
 10
42.47696268128484
 20
77.12240803627435
 30
0.0
 10
42.47696268128484
 20
77.12240803627435
 30
0.0
 10
42.47696268128484
 20
77.12240803627435
 30
0.0
 10
42.47696268128484
 20
78.95067886915089
 30
0.0
 10
42.47696268128484
 20
78.95067886915089
 30
0.0
 10
42.47696268128484
 20
78.95067886915089
 30
0.0
 10
43.84877431295367
 20
78.95067886915089
 30
0.0
 10
43.84877431295367
 20
78.95067886915089
 30
0.0
 10
44.001068475735
 20
78.95067886915089
 30
0.0
 10
44.1321606946131
 20
79.01149775802439
 30
0.0
 10
44.23047985877111
 20
79.12777331355089
 30
0.0
 10
44.3288695784832
 20
79.2440841468549
 30
0.0
 10
44.36707541084182
 20
79.38339609126493
 30
0.0
 10
44.3418870781511
 20
79.5335735912273
 30
0.0
 10
44.31916818984182
 20
79.66918136897083
 30
0.0
 10
44.30717374570337
 20
79.80859914671404
 30
0.0
 10
44.30717374570337
 20
79.95069803556736
 30
0.0
 10
44.30717374570337
 20
81.33139970188925
 30
0.0
 10
45.42646705048116
 20
82.45069303494255
 30
0.0
 10
46.80716868192319
 20
82.45069303494255
 30
0.0
  0
ENDBLK
  5
49
330
46
100
AcDbEntity
  8
0
100
AcDbBlockEnd
  0
BLOCK
  5
4D
330
4B
100
AcDbEntity
  8
0
100
AcDbBlockBegin
  2
BLOCK_4
 70
     0
 10
0.0
 20
0.0
 30
0.0
  3
BLOCK_4
  1

  0
SPLINE
  5
4F
330
4B
100
AcDbEntity
  8
LAYER_1
 62
     7
100
AcDbSpline
210
0.0
220
0.0
230
1.0
 70
    11
 71
     3
 72
    17
 73
    13
 74
     0
 42
0.0000000001
 43
0.0000000001
 12
1.0
 22
0.0
 32
0.0
 13
1.0
 23
0.0
 33
0.0
 40
0.0
 40
0.0
 40
0.0
 40
0.0
 40
1.0
 40
1.0
 40
1.0
 40
2.0
 40
2.0
 40
2.0
 40
3.0
 40
3.0
 40
3.0
 40
4.0
 40
4.0
 40
4.0
 40
4.0
 10
46.80716868192319
 20
80.9506819242063
 30
0.0
 10
47.35947755672151
 20
80.9506819242063
 30
0.0
 10
47.80718782307724
 20
80.50300692431813
 30
0.0
 10
47.80718782307724
 20
79.95069803556736
 30
0.0
 10
47.80718782307724
 20
79.3983891468169
 30
0.0
 10
47.35947755672151
 20
78.95067886915089
 30
0.0
 10
46.80716868192319
 20
78.95067886915089
 30
0.0
 10
46.25485980712487
 20
78.95067886915089
 30
0.0
 10
45.80718481854601
 20
79.3983891468169
 30
0.0
 10
45.80718481854601
 20
79.95069803556736
 30
0.0
 10
45.80718481854601
 20
80.50300692431813
 30
0.0
 10
46.25485980712487
 20
80.9506819242063
 30
0.0
 10
46.80716868192319
 20
80.9506819242063
 30
0.0
  0
ENDBLK
  5
4E
330
4B
100
AcDbEntity
  8
0
100
AcDbBlockEnd
  0
BLOCK
  5
52
330
50
100
AcDbEntity
  8
0
100
AcDbBlockBegin
  2
BLOCK_5
 70
     0
 10
0.0
 20
0.0
 30
0.0
  3
BLOCK_5
  1

  0
SPLINE
  5
54
330
50
100
AcDbEntity
  8
LAYER_1
 62
     7
100
AcDbSpline
210
0.0
220
0.0
230
1.0
 70
    11
 71
     3
 72
    89
 73
    85
 74
     0
 42
0.0000000001
 43
0.0000000001
 12
1.0
 22
0.0
 32
0.0
 13
1.0
 23
0.0
 33
0.0
 40
0.0
 40
0.0
 40
0.0
 40
0.0
 40
1.0
 40
1.0
 40
1.0
 40
2.0
 40
2.0
 40
2.0
 40
3.0
 40
3.0
 40
3.0
 40
4.0
 40
4.0
 40
4.0
 40
5.0
 40
5.0
 40
5.0
 40
6.0
 40
6.0
 40
6.0
 40
7.0
 40
7.0
 40
7.0
 40
8.0
 40
8.0
 40
8.0
 40
9.0
 40
9.0
 40
9.0
 40
10.0
 40
10.0
 40
10.0
 40
11.0
 40
11.0
 40
11.0
 40
12.0
 40
12.0
 40
12.0
 40
13.0
 40
13.0
 40
13.0
 40
14.0
 40
14.0
 40
14.0
 40
15.0
 40
15.0
 40
15.0
 40
16.0
 40
16.0
 40
16.0
 40
17.0
 40
17.0
 40
17.0
 40
18.0
 40
18.0
 40
18.0
 40
19.0
 40
19.0
 40
19.0
 40
20.0
 40
20.0
 40
20.0
 40
21.0
 40
21.0
 40
21.0
 40
22.0
 40
22.0
 40
22.0
 40
23.0
 40
23.0
 40
23.0
 40
24.0
 40
24.0
 40
24.0
 40
25.0
 40
25.0
 40
25.0
 40
26.0
 40
26.0
 40
26.0
 40
27.0
 40
27.0
 40
27.0
 40
28.0
 40
28.0
 40
28.0
 40
28.0
 10
45.68586454386337
 20
57.9473835966236
 30
0.0
 10
45.55367871390239
 20
57.63817387447857
 30
0.0
 10
45.48837954890164
 20
57.30829137456179
 30
0.0
 10
45.488273715571
 20
56.9592883190931
 30
0.0
 10
45.488273715571
 20
56.6197749858442
 30
0.0
 10
45.55367871390239
 20
56.29490193037016
 30
0.0
 10
45.68276009949813
 20
55.983998874892
 30
0.0
 10
45.81177092954012
 20
55.67309581941449
 30
0.0
 10
45.99338092490687
 20
55.39909331948287
 30
0.0
 10
46.23087091884799
 20
55.16167387509818
 30
0.0
 10
46.23087091884799
 20
55.16167387509818
 30
0.0
 10
46.98398089963456
 20
54.40958693084197
 30
0.0
 10
46.98398089963456
 20
54.40958693084197
 30
0.0
 10
46.98398089963456
 20
54.40958693084197
 30
0.0
 10
50.06468332103929
 20
51.33237693161079
 30
0.0
 10
50.06468332103929
 20
51.33237693161079
 30
0.0
 10
50.12098665293588
 20
51.27617943162507
 30
0.0
 10
50.19517581770983
 20
51.24799248718713
 30
0.0
 10
50.26918859359938
 20
51.24799248718713
 30
0.0
 10
50.34337775837333
 20
51.24799248718713
 30
0.0
 10
50.417355256486
 20
51.27628526495827
 30
0.0
 10
50.47387025504419
 20
51.33237693161079
 30
0.0
 10
50.47387025504419
 20
51.33237693161079
 30
0.0
 10
53.55457267644956
 20
54.40958693084197
 30
0.0
 10
53.55457267644956
 20
54.40958693084197
 30
0.0
 10
53.55457267644956
 20
54.40958693084197
 30
0.0
 10
54.30768265723613
 20
55.1617797084317
 30
0.0
 10
54.30768265723613
 20
55.1617797084317
 30
0.0
 10
54.54527848450788
 20
55.39909331948287
 30
0.0
 10
54.726782646544
 20
55.67320165274769
 30
0.0
 10
54.85575819880911
 20
55.983998874892
 30
0.0
 10
54.98487486218173
 20
56.29490193037016
 30
0.0
 10
55.05027986051311
 20
56.61988081917836
 30
0.0
 10
55.05027986051311
 20
56.9593941524263
 30
0.0
 10
55.05027986051311
 20
57.30829137456179
 30
0.0
 10
54.98328736222224
 20
57.63817387447857
 30
0.0
 10
54.851172087815
 20
57.9473835966236
 30
0.0
 10
54.71888042452338
 20
58.25680498543502
 30
0.0
 10
54.53868154023174
 20
58.52590387425679
 30
0.0
 10
54.30768265723613
 20
58.75538581864409
 30
0.0
 10
54.07805960753874
 20
58.98328026303179
 30
0.0
 10
53.8087843366301
 20
59.16499609631988
 30
0.0
 10
53.49957462229712
 20
59.29887526295244
 30
0.0
 10
53.19198768569988
 20
59.43268387403027
 30
0.0
 10
52.862069916339
 20
59.49960581845796
 30
0.0
 10
52.51006825865264
 20
59.49960581845796
 30
0.0
 10
52.25176437635363
 20
59.49960581845796
 30
0.0
 10
52.02228243776376
 20
59.46940804068825
 30
0.0
 10
51.81996438736977
 20
59.41038831848012
 30
0.0
 10
51.61746994809139
 20
59.35147442960614
 30
0.0
 10
51.42947467510977
 20
59.27019442962666
 30
0.0
 10
51.25735440172315
 20
59.16658359631916
 30
0.0
 10
51.08357607282327
 20
59.06127942967822
 30
0.0
 10
50.9194638547879
 20
58.93710165193218
 30
0.0
 10
50.76177219214429
 20
58.79048720752429
 30
0.0
 10
50.66768636121063
 20
58.7029983186571
 30
0.0
 10
50.57116636367306
 20
58.61039415201365
 30
0.0
 10
50.47245914396908
 20
58.51320387425994
 30
0.0
 10
50.41636747873343
 20
58.4576766520519
 30
0.0
 10
50.34267220283577
 20
58.4298777631702
 30
0.0
 10
50.26918859359938
 20
58.4299835965034
 30
0.0
 10
50.19566970658612
 20
58.4298777631702
 30
0.0
 10
50.12218609734973
 20
58.4576766520519
 30
0.0
 10
50.06588276545313
 20
58.51320387425994
 30
0.0
 10
49.96738721241041
 20
58.61039415201365
 30
0.0
 10
49.87086721487252
 20
58.7031041519903
 30
0.0
 10
49.77678138393983
 20
58.79048720752429
 30
0.0
 10
49.61905444351934
 20
58.93710165193218
 30
0.0
 10
49.45497750326085
 20
59.06127942967822
 30
0.0
 10
49.28126972991473
 20
59.16647776298564
 30
0.0
 10
49.10918473430498
 20
59.27019442962666
 30
0.0
 10
48.92108362799273
 20
59.35147442960614
 30
0.0
 10
48.71858918871435
 20
59.41038831848012
 30
0.0
 10
48.51627113832036
 20
59.46940804068825
 30
0.0
 10
48.28678919973049
 20
59.49960581845796
 30
0.0
 10
48.02848531743147
 20
59.49960581845796
 30
0.0
 10
47.6764836597448
 20
59.49960581845796
 30
0.0
 10
47.34656589038424
 20
59.43268387403027
 30
0.0
 10
47.03897895378699
 20
59.29880470739707
 30
0.0
 10
46.72976923945337
 20
59.16499609631988
 30
0.0
 10
46.4604586907685
 20
58.98317442969859
 30
0.0
 10
46.23087091884799
 20
58.75538581864409
 30
0.0
 10
45.99987203585238
 20
58.52590387425679
 30
0.0
 10
45.81826204048564
 20
58.25669915210182
 30
0.0
 10
45.68586454386337
 20
57.9473835966236
 30
0.0
  0
ENDBLK
  5
53
330
50
100
AcDbEntity
  8
0
100
AcDbBlockEnd
  0
ENDSEC
  0
SECTION
  2
ENTITIES
  0
INSERT
  5
42
330
1F
100
AcDbEntity
  8
LAYER_1
100
AcDbBlockReference
  2
BLOCK_2
 10
0.0
 20
0.0
 30
0.0
  0
INSERT
  5
47
330
1F
100
AcDbEntity
  8
LAYER_1
100
AcDbBlockReference
  2
BLOCK_3
 10
0.0
 20
0.0
 30
0.0
  0
INSERT
  5
4C
330
1F
100
AcDbEntity
  8
LAYER_1
100
AcDbBlockReference
  2
BLOCK_4
 10
0.0
 20
0.0
 30
0.0
  0
INSERT
  5
51
330
1F
100
AcDbEntity
  8
LAYER_1
100
AcDbBlockReference
  2
BLOCK_5
 10
0.0
 20
0.0
 30
0.0
  0
ENDSEC
  0
SECTION
  2
OBJECTS
  0
DICTIONARY
  5
C
330
0
100
AcDbDictionary
  3
ACAD_GROUP
350
D
  3
ACAD_LAYOUT
350
1A
  3
ACAD_MATERIAL
350
3B
  3
ACAD_MLEADERSTYLE
350
57
  3
ACAD_MLINESTYLE
350
17
  3
ACAD_PLOTSETTINGS
350
19
  3
ACAD_VISUALSTYLE
350
2A
  3
ACDBVARIABLEDICTIONARY
350
55
1001
ACAD
1000
TREAT_AS_HARD
1070
     0
  0
DICTIONARY
  5
D
102
{ACAD_REACTORS
330
C
102
}
330
C
100
AcDbDictionary
1001
ACAD
1000
TREAT_AS_HARD
1070
     0
  0
DICTIONARY
  5
1A
102
{ACAD_REACTORS
330
C
102
}
330
C
100
AcDbDictionary
1001
ACAD
1000
TREAT_AS_HARD
1070
     0
  0
DICTIONARY
  5
3B
102
{ACAD_REACTORS
330
C
102
}
330
C
100
AcDbDictionary
  3
BYBLOCK
350
3D
  3
BYLAYER
350
3C
  3
GLOBAL
350
3E
1001
ACAD
1000
TREAT_AS_HARD
1070
     0
  0
DICTIONARY
  5
57
102
{ACAD_REACTORS
330
C
102
}
330
C
100
AcDbDictionary
1001
ACAD
1000
TREAT_AS_HARD
1070
     0
  0
DICTIONARY
  5
17
102
{ACAD_REACTORS
330
C
102
}
330
C
100
AcDbDictionary
  3
STANDARD
350
18
1001
ACAD
1000
TREAT_AS_HARD
1070
     0
  0
DICTIONARY
  5
19
102
{ACAD_REACTORS
330
C
102
}
330
C
100
AcDbDictionary
1001
ACAD
1000
TREAT_AS_HARD
1070
     0
  0
DICTIONARY
  5
2A
102
{ACAD_REACTORS
330
C
102
}
330
C
100
AcDbDictionary
  3
2DWIREFRAME
350
2F
  3
3DWIREFRAME
350
30
  3
3D_HIDDEN
350
31
  3
BASIC
350
32
  3
BRIGHTEN
350
36
  3
COLORCHANGE
350
3A
  3
CONCEPTUAL
350
34
  3
DIM
350
35
  3
FACEPATTERN
350
39
  3
FLAT
350
2B
  3
FLATWITHEDGES
350
2C
  3
GOURAUD
350
2D
  3
GOURAUDWITHEDGES
350
2E
  3
LINEPATTERN
350
38
  3
REALISTIC
350
33
  3
THICKEN
350
37
1001
ACAD
1000
TREAT_AS_HARD
1070
     0
  0
DICTIONARY
  5
55
102
{ACAD_REACTORS
330
C
102
}
330
C
100
AcDbDictionary
  3
DIMASSOC
350
58
  3
HIDETEXT
350
59
1001
ACAD
1000
TREAT_AS_HARD
1070
     0
  0
MATERIAL
  5
3D
102
{ACAD_REACTORS
330
3B
102
}
102
{ACAD_XDICTIONARY
360
5C
102
}
330
3B
100
AcDbMaterial
  1
ByBlock
  0
MATERIAL
  5
3C
102
{ACAD_REACTORS
330
3B
102
}
102
{ACAD_XDICTIONARY
360
5A
102
}
330
3B
100
AcDbMaterial
  1
ByLayer
  0
MATERIAL
  5
3E
102
{ACAD_REACTORS
330
3B
102
}
102
{ACAD_XDICTIONARY
360
5E
102
}
330
3B
100
AcDbMaterial
  1
Global
  0
MLINESTYLE
  5
18
102
{ACAD_REACTORS
330
17
102
}
330
17
100
AcDbMlineStyle
  2
Standard
 70
     0
  3

 62
   256
 51
90.0
 52
90.0
 71
     2
 49
0.5
 62
   256
  6
BYLAYER
 49
-0.5
 62
   256
  6
BYLAYER
  0
ACAD_PROXY_OBJECT
  5
2F
102
{ACAD_REACTORS
330
2A
102
}
330
2A
100
AcDbZombieObject
 90
      499
 91
      501
 93
      436
310
42CC9915DA5C99599C985B595049028333333333333E3BF0000000000000FB0107901411070040501600405405064090741402480A0340
1001
ACAD
1000
AcDbSavedByObjectVersion
1070
     0
  0
ACAD_PROXY_OBJECT
  5
30
102
{ACAD_REACTORS
330
2A
102
}
330
2A
100
AcDbZombieObject
 90
      499
 91
      501
 93
      436
310
42CCD915DA5C99599C985B595059028333333333333E3BF0000000000000FB0107901411070040501600405405064090741402480A0340
1001
ACAD
1000
AcDbSavedByObjectVersion
1070
     0
  0
ACAD_PROXY_OBJECT
  5
31
102
{ACAD_REACTORS
330
2A
102
}
330
2A
100
AcDbZombieObject
 90
      499
 91
      501
 93
      500
310
424CD108121A5919195B90640502408333333333333E3BF0000000000000FB01079024090700405020000000000001110200405405064090740C02480A0340
1001
ACAD
1000
AcDbSavedByObjectVersion
1070
     0
  0
ACAD_PROXY_OBJECT
  5
32
102
{ACAD_REACTORS
330
2A
102
}
330
2A
100
AcDbZombieObject
 90
      499
 91
      501
 93
      388
310
4150985CDA58D07406404333333333333E3BF0000000000000FB0107A41107004050150841D405064090741402480A0350
1001
ACAD
1000
AcDbSavedByObjectVersion
1070
     0
  0
ACAD_PROXY_OBJECT
  5
36
102
{ACAD_REACTORS
330
2A
102
}
330
2A
100
AcDbZombieObject
 90
      499
 91
      501
 93
      428
310
42109C9A59DA1D195B90C409028333333333333E3BF0000000000000FB010790141107004050150841D405064090741402480A029950
1001
ACAD
1000
AcDbSavedByObjectVersion
1070
     0
  0
ACAD_PROXY_OBJECT
  5
3A
102
{ACAD_REACTORS
330
2A
102
}
330
2A
100
AcDbZombieObject
 90
      499
 91
      501
 93
      452
310
42D0DBDB1BDC90DA185B99D95104090240C333333333333E3BF0000000000000FB0108901411070040501508421405064090741402480A0350
1001
ACAD
1000
AcDbSavedByObjectVersion
1070
     0
  0
ACAD_PROXY_OBJECT
  5
34
102
{ACAD_REACTORS
330
2A
102
}
330
2A
100
AcDbZombieObject
 90
      499
 91
      501
 93
      500
310
4290DBDB98D95C1D1D585B10940D028333333333333E3BF0000000000000FB0107902409070040501000000000000111010841D405064090740C02480A0340
1001
ACAD
1000
AcDbSavedByObjectVersion
1070
     0
  0
ACAD_PROXY_OBJECT
  5
35
102
{ACAD_REACTORS
330
2A
102
}
330
2A
100
AcDbZombieObject
 90
      499
 91
      501
 93
      412
310
40D11A5B50B409028333333333333E3BF0000000000000FB010790141107004050150841D405064090741402480A02677FFFFFD0
1001
ACAD
1000
AcDbSavedByObjectVersion
1070
     0
  0
ACAD_PROXY_OBJECT
  5
39
102
{ACAD_REACTORS
330
2A
102
}
330
2A
100
AcDbZombieObject
 90
      499
 91
      501
 93
      444
310
42D19858D95C185D1D195C9B90F409028333333333333E3BF0000000000000FB010790141107004050150841D405064090741402480A0350
1001
ACAD
1000
AcDbSavedByObjectVersion
1070
     0
  0
ACAD_PROXY_OBJECT
  5
2B
102
{ACAD_REACTORS
330
2A
102
}
330
2A
100
AcDbZombieObject
 90
      499
 91
      501
 93
      388
310
41119B185D240901404333333333333E3BF0000000000000F9010740A41107004050150841D405064090741402480A1B50
1001
ACAD
1000
AcDbSavedByObjectVersion
1070
     0
  0
ACAD_PROXY_OBJECT
  5
2C
102
{ACAD_REACTORS
330
2A
102
}
330
2A
100
AcDbZombieObject
 90
      499
 91
      501
 93
      476
310
43519B185D15DA5D1A115919D95CD0140901404333333333333E3BF0000000000000F9010740901411070040501600405405064090741402480A1B50
1001
ACAD
1000
AcDbSavedByObjectVersion
1070
     0
  0
ACAD_PROXY_OBJECT
  5
2D
102
{ACAD_REACTORS
330
2A
102
}
330
2A
100
AcDbZombieObject
 90
      499
 91
      501
 93
      412
310
41D1DBDD5C985D5910240902404333333333333E3BF0000000000000F9010740A411070040501641D405064090741402480A1B50
1001
ACAD
1000
AcDbSavedByObjectVersion
1070
     0
  0
ACAD_PROXY_OBJECT
  5
2E
102
{ACAD_REACTORS
330
2A
102
}
330
2A
100
AcDbZombieObject
 90
      499
 91
      501
 93
      500
310
4411DBDD5C985D5915DA5D1A115919D95CD0340902404333333333333E3BF0000000000000F9010740901411070040501600405405064090741402480A1B50
1001
ACAD
1000
AcDbSavedByObjectVersion
1070
     0
  0
ACAD_PROXY_OBJECT
  5
38
102
{ACAD_REACTORS
330
2A
102
}
330
2A
100
AcDbZombieObject
 90
      499
 91
      501
 93
      444
310
42D31A5B995C185D1D195C9B90E409028333333333333E3BF0000000000000FB010790141107004050750841D405064090741402483A0350
1001
ACAD
1000
AcDbSavedByObjectVersion
1070
     0
  0
ACAD_PROXY_OBJECT
  5
33
102
{ACAD_REACTORS
330
2A
102
}
330
2A
100
AcDbZombieObject
 90
      499
 91
      501
 93
      420
310
425499585B1A5CDD1A58D08409028333333333333E3BF0000000000000FB01079019070040501508421405064090741402480A1B40
1001
ACAD
1000
AcDbSavedByObjectVersion
1070
     0
  0
ACAD_PROXY_OBJECT
  5
37
102
{ACAD_REACTORS
330
2A
102
}
330
2A
100
AcDbZombieObject
 90
      499
 91
      501
 93
      412
310
41D51A1A58DAD95B90D409028333333333333E3BF0000000000000FB010790141107004050150C41D405064090741402480A0350
1001
ACAD
1000
AcDbSavedByObjectVersion
1070
     0
  0
DICTIONARYVAR
  5
58
102
{ACAD_REACTORS
330
55
102
}
330
55
100
DictionaryVariables
280
     0
  1
2
  0
DICTIONARYVAR
  5
59
102
{ACAD_REACTORS
330
55
102
}
330
55
100
DictionaryVariables
280
     0
  1
1
  0
DICTIONARY
  5
5C
330
3D
100
AcDbDictionary
  3
ACAD_XREC_ROUNDTRIP
360
5D
1001
ACAD
1000
TREAT_AS_HARD
1070
     1
  0
DICTIONARY
  5
5A
330
3C
100
AcDbDictionary
  3
ACAD_XREC_ROUNDTRIP
360
5B
1001
ACAD
1000
TREAT_AS_HARD
1070
     1
  0
DICTIONARY
  5
5E
330
3E
100
AcDbDictionary
  3
ACAD_XREC_ROUNDTRIP
360
5F
1001
ACAD
1000
TREAT_AS_HARD
1070
     1
  0
XRECORD
  5
5D
102
{ACAD_REACTORS
330
5C
102
}
330
5C
100
AcDbXrecord
102
MATERIAL
148
0.0
149
0.0
149
0.0
 93
        0
 94
      127
282
     0
 72
     1
 77
     1
171
     1
175
     1
179
     1
273
     0
  0
XRECORD
  5
5B
102
{ACAD_REACTORS
330
5A
102
}
330
5A
100
AcDbXrecord
102
MATERIAL
148
0.0
149
0.0
149
0.0
 93
        0
 94
      127
282
     0
 72
     1
 77
     1
171
     1
175
     1
179
     1
273
     0
  0
XRECORD
  5
5F
102
{ACAD_REACTORS
330
5E
102
}
330
5E
100
AcDbXrecord
102
MATERIAL
148
0.0
149
0.0
149
0.0
 93
        0
 94
      127
282
     0
 72
     1
 77
     1
171
     1
175
     1
179
     1
273
     0
  0
ENDSEC
  0
EOF
