  0
SECTION
  2
HEADER
  9
$ACADVER
  1
AC1012
  9
$DWGCODEPAGE
  3
undefined
  9
$INSBASE
 10
0.0
 20
0.0
 30
0.0
  9
$EXTMIN
 10
1.000000000000000E+20
 20
1.000000000000000E+20
 30
1.000000000000000E+20
  9
$EXTMAX
 10
-1.000000000000000E+20
 20
-1.000000000000000E+20
 30
-1.000000000000000E+20
  9
$LIMMIN
 10
0.0
 20
0.0
  9
$LIMMAX
 10
12.0
 20
9.0
  9
$ORTHOMODE
 70
     0
  9
$REGENMODE
 70
     1
  9
$FILLMODE
 70
     1
  9
$QTEXTMODE
 70
     0
  9
$MIRRTEXT
 70
     1
  9
$DRAGMODE
 70
     2
  9
$LTSCALE
 40
1.0
  9
$OSMODE
 70
    37
  9
$ATTMODE
 70
     1
  9
$TEXTSIZE
 40
0.2
  9
$TRACEWID
 40
0.05
  9
$TEXTSTYLE
  7
STANDARD
  9
$CLAYER
  8
0
  9
$CELTYPE
  6
BYLAYER
  9
$CECOLOR
 62
   256
  9
$CELTSCALE
 40
1.0
  9
$DELOBJ
 70
     1
  9
$DISPSILH
 70
     0
  9
$DIMSCALE
 40
1.0
  9
$DIMASZ
 40
0.18
  9
$DIMEXO
 40
0.0625
  9
$DIMDLI
 40
0.38
  9
$DIMRND
 40
0.0
  9
$DIMDLE
 40
0.0
  9
$DIMEXE
 40
0.18
  9
$DIMTP
 40
0.0
  9
$DIMTM
 40
0.0
  9
$DIMTXT
 40
0.18
  9
$DIMCEN
 40
0.09
  9
$DIMTSZ
 40
0.0
  9
$DIMTOL
 70
     0
  9
$DIMLIM
 70
     0
  9
$DIMTIH
 70
     1
  9
$DIMTOH
 70
     1
  9
$DIMSE1
 70
     0
  9
$DIMSE2
 70
     0
  9
$DIMTAD
 70
     0
  9
$DIMZIN
 70
     0
  9
$DIMBLK
  1

  9
$DIMASO
 70
     1
  9
$DIMSHO
 70
     1
  9
$DIMPOST
  1

  9
$DIMAPOST
  1

  9
$DIMALT
 70
     0
  9
$DIMALTD
 70
     2
  9
$DIMALTF
 40
25.4
  9
$DIMLFAC
 40
1.0
  9
$DIMTOFL
 70
     0
  9
$DIMTVP
 40
0.0
  9
$DIMTIX
 70
     0
  9
$DIMSOXD
 70
     0
  9
$DIMSAH
 70
     0
  9
$DIMBLK1
  1

  9
$DIMBLK2
  1

  9
$DIMSTYLE
  2
STANDARD
  9
$DIMCLRD
 70
     0
  9
$DIMCLRE
 70
     0
  9
$DIMCLRT
 70
     0
  9
$DIMTFAC
 40
1.0
  9
$DIMGAP
 40
0.09
  9
$DIMJUST
 70
     0
  9
$DIMSD1
 70
     0
  9
$DIMSD2
 70
     0
  9
$DIMTOLJ
 70
     1
  9
$DIMTZIN
 70
     0
  9
$DIMALTZ
 70
     0
  9
$DIMALTTZ
 70
     0
  9
$DIMFIT
 70
     3
  9
$DIMUPT
 70
     0
  9
$DIMUNIT
 70
     2
  9
$DIMDEC
 70
     4
  9
$DIMTDEC
 70
     4
  9
$DIMALTU
 70
     2
  9
$DIMALTTD
 70
     2
  9
$DIMTXSTY
  7
STANDARD
  9
$DIMAUNIT
 70
     0
  9
$LUNITS
 70
     2
  9
$LUPREC
 70
     4
  9
$SKETCHINC
 40
0.1
  9
$FILLETRAD
 40
0.5
  9
$AUNITS
 70
     0
  9
$AUPREC
 70
     0
  9
$MENU
  1
.
  9
$ELEVATION
 40
0.0
  9
$PELEVATION
 40
0.0
  9
$THICKNESS
 40
0.0
  9
$LIMCHECK
 70
     0
  9
$CHAMFERA
 40
0.5
  9
$CHAMFERB
 40
0.5
  9
$CHAMFERC
 40
1.0
  9
$CHAMFERD
 40
0.0
  9
$SKPOLY
 70
     0
  9
$TDCREATE
 40
2459983.161446759
  9
$TDUPDATE
 40
2459983.161446759
  9
$TDINDWG
 40
0.0000000116
  9
$TDUSRTIMER
 40
0.0000000116
  9
$USRTIMER
 70
     1
  9
$ANGBASE
 50
0.0
  9
$ANGDIR
 70
     0
  9
$PDMODE
 70
     0
  9
$PDSIZE
 40
0.0
  9
$PLINEWID
 40
0.0
  9
$COORDS
 70
     1
  9
$SPLFRAME
 70
     0
  9
$SPLINETYPE
 70
     6
  9
$SPLINESEGS
 70
     8
  9
$ATTDIA
 70
     0
  9
$ATTREQ
 70
     1
  9
$HANDLING
 70
     1
  9
$HANDSEED
  5
60
  9
$SURFTAB1
 70
     6
  9
$SURFTAB2
 70
     6
  9
$SURFTYPE
 70
     6
  9
$SURFU
 70
     6
  9
$SURFV
 70
     6
  9
$UCSNAME
  2

  9
$UCSORG
 10
0.0
 20
0.0
 30
0.0
  9
$UCSXDIR
 10
1.0
 20
0.0
 30
0.0
  9
$UCSYDIR
 10
0.0
 20
1.0
 30
0.0
  9
$PUCSNAME
  2

  9
$PUCSORG
 10
0.0
 20
0.0
 30
0.0
  9
$PUCSXDIR
 10
1.0
 20
0.0
 30
0.0
  9
$PUCSYDIR
 10
0.0
 20
1.0
 30
0.0
  9
$USERI1
 70
     0
  9
$USERI2
 70
     0
  9
$USERI3
 70
     0
  9
$USERI4
 70
     0
  9
$USERI5
 70
     0
  9
$USERR1
 40
0.0
  9
$USERR2
 40
0.0
  9
$USERR3
 40
0.0
  9
$USERR4
 40
0.0
  9
$USERR5
 40
0.0
  9
$WORLDVIEW
 70
     1
  9
$SHADEDGE
 70
     3
  9
$SHADEDIF
 70
    70
  9
$TILEMODE
 70
     1
  9
$MAXACTVP
 70
    64
  9
$PINSBASE
 10
0.0
 20
0.0
 30
0.0
  9
$PLIMCHECK
 70
     0
  9
$PEXTMIN
 10
1.000000000000000E+20
 20
1.000000000000000E+20
 30
1.000000000000000E+20
  9
$PEXTMAX
 10
-1.000000000000000E+20
 20
-1.000000000000000E+20
 30
-1.000000000000000E+20
  9
$PLIMMIN
 10
0.0
 20
0.0
  9
$PLIMMAX
 10
12.0
 20
9.0
  9
$UNITMODE
 70
     0
  9
$VISRETAIN
 70
     1
  9
$PLINEGEN
 70
     0
  9
$PSLTSCALE
 70
     1
  9
$TREEDEPTH
 70
  3020
  9
$PICKSTYLE
 70
     1
  9
$CMLSTYLE
  2
STANDARD
  9
$CMLJUST
 70
     0
  9
$CMLSCALE
 40
1.0
  9
$SAVEIMAGES
 70
     1
  0
ENDSEC
  0
SECTION
  2
CLASSES
  0
CLASS
  1
ACDBDICTIONARYWDFLT
  2
AcDbDictionaryWithDefault
  3
ObjectDBX Classes
 90
    32768
280
     0
281
     0
  0
CLASS
  1
VISUALSTYLE
  2
AcDbVisualStyle
  3
ObjectDBX Classes
 90
     4095
280
     0
281
     0
  0
CLASS
  1
MATERIAL
  2
AcDbMaterial
  3
ObjectDBX Classes
 90
     1153
280
     0
281
     0
  0
CLASS
  1
SUN
  2
AcDbSun
  3
SCENEOE
 90
     1024
280
     0
281
     0
  0
CLASS
  1
DICTIONARYVAR
  2
AcDbDictionaryVar
  3
ObjectDBX Classes
 90
        0
280
     0
281
     0
  0
CLASS
  1
XRECORD
  2
AcDbXrecord
  3
AutoCAD 2000
 90
    32768
280
     0
281
     0
  0
CLASS
  1
LWPOLYLINE
  2
AcDbPolyline
  3
AutoCAD 2000
 90
    32768
280
     0
281
     1
  0
CLASS
  1
HATCH
  2
AcDbHatch
  3
AutoCAD 2000
 90
    32768
280
     0
281
     1
  0
CLASS
  1
ACDBPLACEHOLDER
  2
AcDbPlaceHolder
  3
ObjectDBX Classes
 90
        0
280
     0
281
     0
  0
CLASS
  1
LAYOUT
  2
AcDbLayout
  3
ObjectDBX Classes
 90
        0
280
     0
281
     0
  0
ENDSEC
  0
SECTION
  2
TABLES
  0
TABLE
  2
VPORT
  5
8
330
0
100
AcDbSymbolTable
 70
     1
  0
VPORT
  5
29
330
8
100
AcDbSymbolTableRecord
100
AcDbViewportTableRecord
  2
*ACTIVE
 70
     0
 10
0.0
 20
0.0
 11
1.0
 21
1.0
 12
0.0
 22
0.0
 13
0.0
 23
0.0
 14
0.5
 24
0.5
 15
0.5
 25
0.5
 16
0.0
 26
0.0
 36
1.0
 17
49.99999998749409
 27
49.99999998749409
 37
0.0
 40
99.99999997498817
 41
1.0
 42
50.0
 43
0.0
 44
0.0
 50
0.0
 51
0.0
 71
     0
 72
   100
 73
     1
 74
     3
 75
     0
 76
     0
 77
     0
 78
     0
  0
ENDTAB
  0
TABLE
  2
LTYPE
  5
5
330
0
100
AcDbSymbolTable
 70
     1
  0
LTYPE
  5
14
330
5
100
AcDbSymbolTableRecord
100
AcDbLinetypeTableRecord
  2
BYBLOCK
 70
     0
  3

 72
    65
 73
     0
 40
0.0
  0
LTYPE
  5
15
330
5
100
AcDbSymbolTableRecord
100
AcDbLinetypeTableRecord
  2
BYLAYER
 70
     0
  3

 72
    65
 73
     0
 40
0.0
  0
LTYPE
  5
16
330
5
100
AcDbSymbolTableRecord
100
AcDbLinetypeTableRecord
  2
CONTINUOUS
 70
     0
  3
Solid line
 72
    65
 73
     0
 40
0.0
  0
ENDTAB
  0
TABLE
  2
LAYER
  5
2
330
0
100
AcDbSymbolTable
 70
     2
  0
LAYER
  5
10
330
2
100
AcDbSymbolTableRecord
100
AcDbLayerTableRecord
  2
0
 70
     0
 62
     7
  6
CONTINUOUS
  0
LAYER
  5
40
330
2
100
AcDbSymbolTableRecord
100
AcDbLayerTableRecord
  2
LAYER_1
 70
     0
 62
     7
  6
CONTINUOUS
  0
ENDTAB
  0
TABLE
  2
STYLE
  5
3
330
0
100
AcDbSymbolTable
 70
     1
  0
STYLE
  5
11
330
3
100
AcDbSymbolTableRecord
100
AcDbTextStyleTableRecord
  2
STANDARD
 70
     0
 40
0.0
 41
1.0
 50
0.0
 71
     0
 42
0.2
  3
txt
  4

  0
ENDTAB
  0
TABLE
  2
VIEW
  5
6
330
0
100
AcDbSymbolTable
 70
     0
  0
ENDTAB
  0
TABLE
  2
UCS
  5
7
330
0
100
AcDbSymbolTable
 70
     0
  0
ENDTAB
  0
TABLE
  2
APPID
  5
9
330
0
100
AcDbSymbolTable
 70
     1
  0
APPID
  5
12
330
9
100
AcDbSymbolTableRecord
100
AcDbRegAppTableRecord
  2
ACAD
 70
     0
  0
ENDTAB
  0
TABLE
  2
DIMSTYLE
  5
A
330
0
100
AcDbSymbolTable
 70
     1
  0
DIMSTYLE
105
27
330
A
100
AcDbSymbolTableRecord
100
AcDbDimStyleTableRecord
  2
STANDARD
 70
     0
  3

  4

  5

  6

  7

 40
1.0
 41
0.18
 42
0.0625
 43
0.38
 44
0.18
 45
0.0
 46
0.0
 47
0.0
 48
0.0
140
0.18
141
0.09
142
0.0
143
25.4
144
1.0
145
0.0
146
1.0
147
0.09
 71
     0
 72
     0
 73
     1
 74
     1
 75
     0
 76
     0
 77
     0
 78
     0
170
     0
171
     2
172
     0
173
     0
174
     0
175
     0
176
     0
177
     0
178
     0
270
     2
271
     4
272
     4
273
     2
274
     2
340
11
275
     0
280
     0
281
     0
282
     0
283
     1
284
     0
285
     0
286
     0
287
     3
288
     0
  0
ENDTAB
  0
TABLE
  2
BLOCK_RECORD
  5
1
330
0
100
AcDbSymbolTable
 70
     5
  0
BLOCK_RECORD
  5
1F
330
1
100
AcDbSymbolTableRecord
100
AcDbBlockTableRecord
  2
*MODEL_SPACE
  0
BLOCK_RECORD
  5
1B
330
1
100
AcDbSymbolTableRecord
100
AcDbBlockTableRecord
  2
*PAPER_SPACE
  0
BLOCK_RECORD
  5
41
330
1
100
AcDbSymbolTableRecord
100
AcDbBlockTableRecord
  2
BLOCK_2
  0
BLOCK_RECORD
  5
46
330
1
100
AcDbSymbolTableRecord
100
AcDbBlockTableRecord
  2
BLOCK_3
  0
BLOCK_RECORD
  5
4B
330
1
100
AcDbSymbolTableRecord
100
AcDbBlockTableRecord
  2
BLOCK_4
  0
BLOCK_RECORD
  5
50
330
1
100
AcDbSymbolTableRecord
100
AcDbBlockTableRecord
  2
BLOCK_5
  0
ENDTAB
  0
ENDSEC
  0
SECTION
  2
BLOCKS
  0
BLOCK
  5
20
330
1F
100
AcDbEntity
  8
0
100
AcDbBlockBegin
  2
*MODEL_SPACE
 70
     0
 10
0.0
 20
0.0
 30
0.0
  3
*MODEL_SPACE
  1

  0
ENDBLK
  5
21
330
1F
100
AcDbEntity
  8
0
100
AcDbBlockEnd
  0
BLOCK
  5
1C
330
1B
100
AcDbEntity
 67
     1
  8
0
100
AcDbBlockBegin
  2
*PAPER_SPACE
 70
     0
 10
0.0
 20
0.0
 30
0.0
  3
*PAPER_SPACE
  1

  0
ENDBLK
  5
1D
330
1B
100
AcDbEntity
 67
     1
  8
0
100
AcDbBlockEnd
  0
BLOCK
  5
43
330
41
100
AcDbEntity
  8
0
100
AcDbBlockBegin
  2
BLOCK_2
 70
     0
 10
0.0
 20
0.0
 30
0.0
  3
BLOCK_2
  1

  0
SPLINE
  5
45
330
41
100
AcDbEntity
  8
LAYER_1
 62
     7
100
AcDbSpline
210
0.0
220
0.0
230
1.0
 70
    11
 71
     3
 72
    89
 73
    85
 74
     0
 42
0.0000000001
 43
0.0000000001
 12
1.0
 22
0.0
 32
0.0
 13
1.0
 23
0.0
 33
0.0
 40
0.0
 40
0.0
 40
0.0
 40
0.0
 40
1.0
 40
1.0
 40
1.0
 40
2.0
 40
2.0
 40
2.0
 40
3.0
 40
3.0
 40
3.0
 40
4.0
 40
4.0
 40
4.0
 40
5.0
 40
5.0
 40
5.0
 40
6.0
 40
6.0
 40
6.0
 40
7.0
 40
7.0
 40
7.0
 40
8.0
 40
8.0
 40
8.0
 40
9.0
 40
9.0
 40
9.0
 40
10.0
 40
10.0
 40
10.0
 40
11.0
 40
11.0
 40
11.0
 40
12.0
 40
12.0
 40
12.0
 40
13.0
 40
13.0
 40
13.0
 40
14.0
 40
14.0
 40
14.0
 40
15.0
 40
15.0
 40
15.0
 40
16.0
 40
16.0
 40
16.0
 40
17.0
 40
17.0
 40
17.0
 40
18.0
 40
18.0
 40
18.0
 40
19.0
 40
19.0
 40
19.0
 40
20.0
 40
20.0
 40
20.0
 40
21.0
 40
21.0
 40
21.0
 40
22.0
 40
22.0
 40
22.0
 40
23.0
 40
23.0
 40
23.0
 40
24.0
 40
24.0
 40
24.0
 40
25.0
 40
25.0
 40
25.0
 40
26.0
 40
26.0
 40
26.0
 40
27.0
 40
27.0
 40
27.0
 40
28.0
 40
28.0
 40
28.0
 40
28.0
 10
64.43517835364283
 20
57.56172693005389
 30
0.0
 10
64.43517835364283
 20
57.56172693005389
 30
0.0
 10
65.62548582327554
 20
58.7507291519788
 30
0.0
 10
65.62548582327554
 20
58.7507291519788
 30
0.0
 10
66.0009824803625
 20
59.12583776299606
 30
0.0
 10
66.28800247304001
 20
59.55911942955457
 30
0.0
 10
66.49197857894725
 20
60.05043304054297
 30
0.0
 10
66.69609579596201
 20
60.54181720708673
 30
0.0
 10
66.79938912666012
 20
61.05553220695817
 30
0.0
 10
66.79938912666012
 20
61.59214248460177
 30
0.0
 10
66.79938912666012
 20
62.14381637335271
 30
0.0
 10
66.69359107380369
 20
62.66522192877793
 30
0.0
 10
66.48457024580293
 20
63.15392498421128
 30
0.0
 10
66.27547886224839
 20
63.64294553964456
 30
0.0
 10
65.99068136951354
 20
64.06843081731608
 30
0.0
 10
65.62548582327554
 20
64.4311216505589
 30
0.0
 10
65.26258333253396
 20
64.79141359491307
 30
0.0
 10
64.83688639894994
 20
65.07864526150786
 30
0.0
 10
64.34828918919288
 20
65.29031192812174
 30
0.0
 10
63.86198503493286
 20
65.50183748362457
 30
0.0
 10
63.34047365934884
 20
65.60752970582016
 30
0.0
 10
62.78400200687895
 20
65.60752970582016
 30
0.0
 10
62.37587340618006
 20
65.60752970582016
 30
0.0
 10
62.01297091543848
 20
65.55972831694342
 30
0.0
 10
61.69317786804152
 20
65.46652442807765
 30
0.0
 10
61.3731731539833
 20
65.3734263725454
 30
0.0
 10
61.07588732823437
 20
65.24494470591085
 30
0.0
 10
60.80389566850678
 20
65.08111470595186
 30
0.0
 10
60.52918761995961
 20
64.91481526154887
 30
0.0
 10
60.26979012657739
 20
64.71842387270904
 30
0.0
 10
60.02037624405158
 20
64.48661359498942
 30
0.0
 10
59.87168041451179
 20
64.34832470613516
 30
0.0
 10
59.71928041839984
 20
64.2020277617272
 30
0.0
 10
59.56328208904636
 20
64.04832248398785
 30
0.0
 10
59.47448792464502
 20
63.96051609512073
 30
0.0
 10
59.35807126094839
 20
63.91663053957625
 30
0.0
 10
59.24190154168991
 20
63.91673637290945
 30
0.0
 10
59.12569654465454
 20
63.91663053957625
 30
0.0
 10
59.00949154761918
 20
63.96051609512073
 30
0.0
 10
58.92048571655657
 20
64.04832248398785
 30
0.0
 10
58.76476960941811
 20
64.2020277617272
 30
0.0
 10
58.6122990577524
 20
64.34843053946837
 30
0.0
 10
58.46360322821261
 20
64.48661359498942
 30
0.0
 10
58.2141893456868
 20
64.71842387270904
 30
0.0
 10
57.95479185230459
 20
64.91481526154887
 30
0.0
 10
57.68018963708805
 20
65.08104415039618
 30
0.0
 10
57.40819797736047
 20
65.24494470591085
 30
0.0
 10
57.11077104050402
 20
65.37332053921219
 30
0.0
 10
56.79087215977643
 20
65.46652442807765
 30
0.0
 10
56.47097327904884
 20
65.55972831694342
 30
0.0
 10
56.10807078830725
 20
65.60752970582016
 30
0.0
 10
55.69997746538525
 20
65.60752970582016
 30
0.0
 10
55.14347053513848
 20
65.60752970582016
 30
0.0
 10
54.62199443733133
 20
65.50183748362457
 30
0.0
 10
54.13569028307132
 20
65.29024137256606
 30
0.0
 10
53.64709307331425
 20
65.07864526150786
 30
0.0
 10
53.2212903063996
 20
64.79134303935771
 30
0.0
 10
52.85849364898865
 20
64.4311216505589
 30
0.0
 10
52.49329810275001
 20
64.06843081731608
 30
0.0
 10
52.20617227674187
 20
63.64283970631136
 30
0.0
 10
51.99697505985671
 20
63.15392498421128
 30
0.0
 10
51.78798950963282
 20
62.66522192877793
 30
0.0
 10
51.68469617893472
 20
62.14374581779735
 30
0.0
 10
51.68459034560409
 20
61.59203665126857
 30
0.0
 10
51.68459034560409
 20
61.05542637362497
 30
0.0
 10
51.78798950963282
 20
60.54174665153105
 30
0.0
 10
51.99200089331695
 20
60.05043304054297
 30
0.0
 10
52.19597699922419
 20
59.55901359622137
 30
0.0
 10
52.48310282523234
 20
59.12583776299606
 30
0.0
 10
52.85849364898865
 20
58.75062331864559
 30
0.0
 10
52.85849364898865
 20
58.75062331864559
 30
0.0
 10
54.04887167417513
 20
57.5616210967207
 30
0.0
 10
54.04887167417513
 20
57.5616210967207
 30
0.0
 10
54.04887167417513
 20
57.5616210967207
 30
0.0
 10
58.91847488327454
 20
52.69762693126976
 30
0.0
 10
58.91847488327454
 20
52.69762693126976
 30
0.0
 10
59.00758654766778
 20
52.60862109795896
 30
0.0
 10
59.12477932245572
 20
52.56413582019216
 30
0.0
 10
59.24190154168991
 20
52.56413582019216
 30
0.0
 10
59.35909431647784
 20
52.56413582019216
 30
0.0
 10
59.47618125793515
 20
52.60872693129216
 30
0.0
 10
59.56529292232839
 20
52.69762693126976
 30
0.0
 10
59.56529292232839
 20
52.69762693126976
 30
0.0
 10
64.43517835364283
 20
57.56172693005389
 30
0.0
 10
64.43517835364283
 20
57.56172693005389
 30
0.0
  0
ENDBLK
  5
44
330
41
100
AcDbEntity
  8
0
100
AcDbBlockEnd
  0
BLOCK
  5
48
330
46
100
AcDbEntity
  8
0
100
AcDbBlockBegin
  2
BLOCK_3
 70
     0
 10
0.0
 20
0.0
 30
0.0
  3
BLOCK_3
  1

  0
SPLINE
  5
4A
330
46
100
AcDbEntity
  8
LAYER_1
 62
     7
100
AcDbSpline
210
0.0
220
0.0
230
1.0
 70
    11
 71
     3
 72
   215
 73
   211
 74
     0
 42
0.0000000001
 43
0.0000000001
 12
1.0
 22
0.0
 32
0.0
 13
1.0
 23
0.0
 33
0.0
 40
0.0
 40
0.0
 40
0.0
 40
0.0
 40
1.0
 40
1.0
 40
1.0
 40
2.0
 40
2.0
 40
2.0
 40
3.0
 40
3.0
 40
3.0
 40
4.0
 40
4.0
 40
4.0
 40
5.0
 40
5.0
 40
5.0
 40
6.0
 40
6.0
 40
6.0
 40
7.0
 40
7.0
 40
7.0
 40
8.0
 40
8.0
 40
8.0
 40
9.0
 40
9.0
 40
9.0
 40
10.0
 40
10.0
 40
10.0
 40
11.0
 40
11.0
 40
11.0
 40
12.0
 40
12.0
 40
12.0
 40
13.0
 40
13.0
 40
13.0
 40
14.0
 40
14.0
 40
14.0
 40
15.0
 40
15.0
 40
15.0
 40
16.0
 40
16.0
 40
16.0
 40
17.0
 40
17.0
 40
17.0
 40
18.0
 40
18.0
 40
18.0
 40
19.0
 40
19.0
 40
19.0
 40
20.0
 40
20.0
 40
20.0
 40
21.0
 40
21.0
 40
21.0
 40
22.0
 40
22.0
 40
22.0
 40
23.0
 40
23.0
 40
23.0
 40
24.0
 40
24.0
 40
24.0
 40
25.0
 40
25.0
 40
25.0
 40
26.0
 40
26.0
 40
26.0
 40
27.0
 40
27.0
 40
27.0
 40
28.0
 40
28.0
 40
28.0
 40
29.0
 40
29.0
 40
29.0
 40
30.0
 40
30.0
 40
30.0
 40
31.0
 40
31.0
 40
31.0
 40
32.0
 40
32.0
 40
32.0
 40
33.0
 40
33.0
 40
33.0
 40
34.0
 40
34.0
 40
34.0
 40
35.0
 40
35.0
 40
35.0
 40
36.0
 40
36.0
 40
36.0
 40
37.0
 40
37.0
 40
37.0
 40
38.0
 40
38.0
 40
38.0
 40
39.0
 40
39.0
 40
39.0
 40
40.0
 40
40.0
 40
40.0
 40
41.0
 40
41.0
 40
41.0
 40
42.0
 40
42.0
 40
42.0
 40
43.0
 40
43.0
 40
43.0
 40
44.0
 40
44.0
 40
44.0
 40
45.0
 40
45.0
 40
45.0
 40
46.0
 40
46.0
 40
46.0
 40
47.0
 40
47.0
 40
47.0
 40
48.0
 40
48.0
 40
48.0
 40
49.0
 40
49.0
 40
49.0
 40
50.0
 40
50.0
 40
50.0
 40
51.0
 40
51.0
 40
51.0
 40
52.0
 40
52.0
 40
52.0
 40
53.0
 40
53.0
 40
53.0
 40
54.0
 40
54.0
 40
54.0
 40
55.0
 40
55.0
 40
55.0
 40
56.0
 40
56.0
 40
56.0
 40
57.0
 40
57.0
 40
57.0
 40
58.0
 40
58.0
 40
58.0
 40
59.0
 40
59.0
 40
59.0
 40
60.0
 40
60.0
 40
60.0
 40
61.0
 40
61.0
 40
61.0
 40
62.0
 40
62.0
 40
62.0
 40
63.0
 40
63.0
 40
63.0
 40
64.0
 40
64.0
 40
64.0
 40
65.0
 40
65.0
 40
65.0
 40
66.0
 40
66.0
 40
66.0
 40
67.0
 40
67.0
 40
67.0
 40
68.0
 40
68.0
 40
68.0
 40
69.0
 40
69.0
 40
69.0
 40
70.0
 40
70.0
 40
70.0
 40
70.0
 10
59.25449570803526
 20
76.3655233142418
 30
0.0
 10
60.6351973394773
 20
76.3655233142418
 30
0.0
 10
61.75449064425509
 20
75.2462299811882
 30
0.0
 10
61.75449064425509
 20
73.86552831486692
 30
0.0
 10
61.75449064425509
 20
73.6599294260294
 30
0.0
 10
61.72958453377938
 20
73.46004553719042
 30
0.0
 10
61.68277092386258
 20
73.26894581501607
 30
0.0
 10
61.64819870252237
 20
73.12783470394004
 30
0.0
 10
61.67187009080735
 20
72.993320537307
 30
0.0
 10
61.75237397764241
 20
72.87252942622625
 30
0.0
 10
61.83298369780811
 20
72.75163248181197
 30
0.0
 10
61.9482009170909
 20
72.67811359294132
 30
0.0
 10
62.09167563565278
 20
72.65581803739147
 30
0.0
 10
64.92977278546911
 20
72.21484581527949
 30
0.0
 10
67.30407300267345
 20
71.08013609334111
 30
0.0
 10
69.2120010095537
 20
69.24682053824367
 30
0.0
 10
71.72409622324258
 20
66.83304442773598
 30
0.0
 10
72.97938535788415
 20
63.65151803964243
 30
0.0
 10
72.97938535788415
 20
59.70442859618493
 30
0.0
 10
72.97938535788415
 20
55.74492137495267
 30
0.0
 10
71.72148566775364
 20
52.56004359797102
 30
0.0
 10
69.19958323209272
 20
50.13723637635451
 30
0.0
 10
68.81967685289605
 20
49.77133526533496
 30
0.0
 10
68.42128491861544
 20
49.43333887653063
 30
0.0
 10
68.00490131812715
 20
49.1227180432752
 30
0.0
 10
68.00490131812715
 20
49.1227180432752
 30
0.0
 10
70.95627540949799
 20
49.1227180432752
 30
0.0
 10
70.95627540949799
 20
49.1227180432752
 30
0.0
 10
70.95627540949799
 20
49.1227180432752
 30
0.0
 10
70.95627540949799
 20
39.19611582353404
 30
0.0
 10
70.95627540949799
 20
39.19611582353404
 30
0.0
 10
70.95627540949799
 20
39.19611582353404
 30
0.0
 10
68.13077242602702
 20
39.19611582353404
 30
0.0
 10
68.13077242602702
 20
39.19611582353404
 30
0.0
 10
68.05637159459182
 20
42.03403665615789
 30
0.0
 10
67.59169271755788
 20
43.93014665568372
 30
0.0
 10
66.74280357254817
 20
44.87823693322447
 30
0.0
 10
65.8876702610311
 20
45.82622137743203
 30
0.0
 10
64.15888280513614
 20
46.29714443287044
 30
0.0
 10
61.55019703835593
 20
46.29714443287044
 30
0.0
 10
61.55019703835593
 20
46.29714443287044
 30
0.0
 10
55.56447552439775
 20
46.29714443287044
 30
0.0
 10
55.56447552439775
 20
46.29714443287044
 30
0.0
 10
55.56447552439775
 20
46.29714443287044
 30
0.0
 10
55.56447552439775
 20
38.63844471256245
 30
0.0
 10
55.56447552439775
 20
38.63844471256245
 30
0.0
 10
55.56447552439775
 20
38.63844471256245
 30
0.0
 10
56.97727993279855
 20
38.63844471256245
 30
0.0
 10
56.97727993279855
 20
38.63844471256245
 30
0.0
 10
58.53878017073914
 20
38.63844471256245
 30
0.0
 10
59.56120070021057
 20
38.91114193471623
 30
0.0
 10
60.05067985438959
 20
39.45011582347031
 30
0.0
 10
60.53398539761499
 20
39.98923082333577
 30
0.0
 10
60.83758594542505
 20
41.22853915635893
 30
0.0
 10
60.95537844241991
 20
43.17421443365061
 30
0.0
 10
60.95537844241991
 20
43.17421443365061
 30
0.0
 10
63.78088142589088
 20
43.19273526697924
 30
0.0
 10
63.78088142589088
 20
43.19273526697924
 30
0.0
 10
63.78088142589088
 20
43.19273526697924
 30
0.0
 10
63.78088142589088
 20
30.682318047885
 30
0.0
 10
63.78088142589088
 20
30.682318047885
 30
0.0
 10
63.78088142589088
 20
30.682318047885
 30
0.0
 10
60.95537844241991
 20
30.70094471454683
 30
0.0
 10
60.95537844241991
 20
30.70094471454683
 30
0.0
 10
60.84379483415554
 20
32.8386369362348
 30
0.0
 10
60.55257678602957
 20
34.22043221366655
 30
0.0
 10
60.06309763185056
 20
34.84001582462309
 30
0.0
 10
59.57979208862515
 20
35.46591415779989
 30
0.0
 10
58.56358044788421
 20
35.77572360216659
 30
0.0
 10
57.01449798740459
 20
35.77572360216659
 30
0.0
 10
57.01449798740459
 20
35.77572360216659
 30
0.0
 10
55.56447552439775
 20
35.77572360216659
 30
0.0
 10
55.56447552439775
 20
35.77572360216659
 30
0.0
 10
55.56447552439775
 20
35.77572360216659
 30
0.0
 10
55.56447552439775
 20
27.0016463821379
 30
0.0
 10
55.56447552439775
 20
27.0016463821379
 30
0.0
 10
55.56447552439775
 20
27.0016463821379
 30
0.0
 10
62.09548563555558
 20
27.0016463821379
 30
0.0
 10
62.09548563555558
 20
27.0016463821379
 30
0.0
 10
64.27656946880037
 20
27.0016463821379
 30
0.0
 10
65.77608665276674
 20
27.50971693756675
 30
0.0
 10
66.5878988542779
 20
28.51982554842565
 30
0.0
 10
67.39956994468156
 20
29.52982832595071
 30
0.0
 10
67.91388465378188
 20
31.599328603211
 30
0.0
 10
68.13077242602702
 20
34.73471165798247
 30
0.0
 10
68.13077242602702
 20
34.73471165798247
 30
0.0
 10
70.95627540949799
 20
34.73471165798247
 30
0.0
 10
70.95627540949799
 20
34.73471165798247
 30
0.0
 10
70.95627540949799
 20
34.73471165798247
 30
0.0
 10
70.95627540949799
 20
24.17614332728946
 30
0.0
 10
70.95627540949799
 20
24.17614332728946
 30
0.0
 10
70.95627540949799
 20
24.17614332728946
 30
0.0
 10
46.41867659105985
 20
24.17614332728946
 30
0.0
 10
46.41867659105985
 20
24.17614332728946
 30
0.0
 10
46.41867659105985
 20
24.17614332728946
 30
0.0
 10
46.41867659105985
 20
27.0016463821379
 30
0.0
 10
46.41867659105985
 20
27.0016463821379
 30
0.0
 10
46.41867659105985
 20
27.0016463821379
 30
0.0
 10
47.86859322073606
 20
27.0016463821379
 30
0.0
 10
47.86859322073606
 20
27.0016463821379
 30
0.0
 10
48.97158819259631
 20
27.0016463821379
 30
0.0
 10
49.65939900838213
 20
27.1318213821062
 30
0.0
 10
49.92578150158615
 20
27.39203027092953
 30
0.0
 10
50.1922698281208
 20
27.65234499308671
 30
0.0
 10
50.322374269246
 20
28.29672888181462
 30
0.0
 10
50.322374269246
 20
29.31911415933692
 30
0.0
 10
50.322374269246
 20
29.31911415933692
 30
0.0
 10
50.322374269246
 20
42.87622304483634
 30
0.0
 10
50.322374269246
 20
42.87622304483634
 30
0.0
 10
50.322374269246
 20
42.87622304483634
 30
0.0
 10
43.31278583696439
 20
24.17614332728946
 30
0.0
 10
43.31278583696439
 20
24.17614332728946
 30
0.0
 10
43.31278583696439
 20
24.17614332728946
 30
0.0
 10
38.14508541324786
 20
24.17614332728946
 30
0.0
 10
38.14508541324786
 20
24.17614332728946
 30
0.0
 10
38.14508541324786
 20
24.17614332728946
 30
0.0
 10
31.16167309140955
 20
43.89913748902529
 30
0.0
 10
31.16167309140955
 20
43.89913748902529
 30
0.0
 10
30.83327226645474
 20
44.82242748879467
 30
0.0
 10
30.46158560927027
 20
45.44821998863828
 30
0.0
 10
30.04640145319583
 20
45.78903859966341
 30
0.0
 10
29.63118201934452
 20
46.12982193291167
 30
0.0
 10
29.04257231213898
 20
46.29714443287044
 30
0.0
 10
28.29277844237892
 20
46.29714443287044
 30
0.0
 10
28.29277844237892
 20
46.29714443287044
 30
0.0
 10
27.21468958099437
 20
46.29714443287044
 30
0.0
 10
27.21468958099437
 20
46.29714443287044
 30
0.0
 10
27.21468958099437
 20
46.29714443287044
 30
0.0
 10
27.21468958099437
 20
49.1227180432752
 30
0.0
 10
27.21468958099437
 20
49.1227180432752
 30
0.0
 10
27.21468958099437
 20
49.1227180432752
 30
0.0
 10
27.82499512097974
 20
49.1227180432752
 30
0.0
 10
27.82499512097974
 20
49.1227180432752
 30
0.0
 10
27.82499512097974
 20
49.1227180432752
 30
0.0
 10
27.82499512097974
 20
50.03803526526807
 30
0.0
 10
27.82499512097974
 20
50.03803526526807
 30
0.0
 10
27.82499512097974
 20
50.03803526526807
 30
0.0
 10
29.27487647287908
 20
50.03803526526807
 30
0.0
 10
29.27487647287908
 20
50.03803526526807
 30
0.0
 10
30.37787144473933
 20
50.03803526526807
 30
0.0
 10
31.06568226052514
 20
50.16824554301326
 30
0.0
 10
31.33210003150604
 20
50.42841915405939
 30
0.0
 10
31.59858835804069
 20
50.68873387621657
 30
0.0
 10
31.72869279916589
 20
51.32694415383493
 30
0.0
 10
31.72869279916589
 20
52.34312054246953
 30
0.0
 10
31.72869279916589
 20
52.34312054246953
 30
0.0
 10
31.72869279916589
 20
67.02851859435388
 30
0.0
 10
31.72869279916589
 20
67.02851859435388
 30
0.0
 10
31.72869279916589
 20
68.04473026076631
 30
0.0
 10
31.59858835804069
 20
68.68294053838468
 30
0.0
 10
31.33210003150604
 20
68.94321998276402
 30
0.0
 10
31.06568226052514
 20
69.20342887158799
 30
0.0
 10
30.37787144473933
 20
69.33353331599997
 30
0.0
 10
29.27487647287908
 20
69.33353331599997
 30
0.0
 10
29.27487647287908
 20
69.33353331599997
 30
0.0
 10
27.82499512097974
 20
69.33353331599997
 30
0.0
 10
27.82499512097974
 20
69.33353331599997
 30
0.0
 10
27.82499512097974
 20
69.33353331599997
 30
0.0
 10
27.82499512097974
 20
72.15914220418225
 30
0.0
 10
27.82499512097974
 20
72.15914220418225
 30
0.0
 10
27.82499512097974
 20
72.15914220418225
 30
0.0
 10
41.20917200174316
 20
72.15914220418225
 30
0.0
 10
41.20917200174316
 20
72.15914220418225
 30
0.0
 10
41.20917200174316
 20
72.15914220418225
 30
0.0
 10
41.20917200174316
 20
69.33353331599997
 30
0.0
 10
41.20917200174316
 20
69.33353331599997
 30
0.0
 10
41.20917200174316
 20
69.33353331599997
 30
0.0
 10
39.46179315743363
 20
69.33353331599997
 30
0.0
 10
39.46179315743363
 20
69.33353331599997
 30
0.0
 10
38.3463804081124
 20
69.33353331599997
 30
0.0
 10
37.65239598137297
 20
69.20342887158799
 30
0.0
 10
37.37976932166158
 20
68.93704637165447
 30
0.0
 10
37.10717793972708
 20
68.67052276060991
 30
0.0
 10
36.97079405431764
 20
68.03231248299187
 30
0.0
 10
36.97079405431764
 20
67.02851859435388
 30
0.0
 10
36.97079405431764
 20
67.02851859435388
 30
0.0
 10
36.97079405431764
 20
50.03803526526807
 30
0.0
 10
36.97079405431764
 20
50.03803526526807
 30
0.0
 10
36.97079405431764
 20
50.03803526526807
 30
0.0
 10
41.62428560226385
 20
50.03803526526807
 30
0.0
 10
41.62428560226385
 20
50.03803526526807
 30
0.0
 10
43.28488111545408
 20
50.03803526526807
 30
0.0
 10
44.52418941717002
 20
50.18062804301018
 30
0.0
 10
45.34827828503465
 20
50.46563720960553
 30
0.0
 10
46.17240243067616
 20
50.75064637620119
 30
0.0
 10
46.76108269343545
 20
51.22774304274849
 30
0.0
 10
47.12670157299695
 20
51.89082415369391
 30
0.0
 10
47.22597323713067
 20
52.07204609809288
 30
0.0
 10
47.31787184589724
 20
52.26402776471164
 30
0.0
 10
47.40250323262701
 20
52.46673387577205
 30
0.0
 10
46.13818298710505
 20
54.49901609748621
 30
0.0
 10
45.50469994771067
 20
56.91074609688332
 30
0.0
 10
45.50469994771067
 20
59.70442859618493
 30
0.0
 10
45.50469994771067
 20
63.65151803964243
 30
0.0
 10
46.76877324879481
 20
66.83022220551453
 30
0.0
 10
49.29067568445571
 20
69.24682053824367
 30
0.0
 10
51.20548285782714
 20
71.07692581556405
 30
0.0
 10
53.58119418610658
 20
72.21414025972396
 30
0.0
 10
56.41749216930214
 20
72.65553581516939
 30
0.0
 10
56.5610021656409
 20
72.67783137071923
 30
0.0
 10
56.67607827381617
 20
72.75131498181206
 30
0.0
 10
56.75668799398187
 20
72.87221192622633
 30
0.0
 10
56.83729771414757
 20
72.99303831508492
 30
0.0
 10
56.86089854687879
 20
73.12751720394012
 30
0.0
 10
56.82629104776171
 20
73.26862831501614
 30
0.0
 10
56.77947743784491
 20
73.45983387052371
 30
0.0
 10
56.75450077181545
 20
73.65982359269618
 30
0.0
 10
56.75450077181545
 20
73.86552831486692
 30
0.0
 10
56.75450077181545
 20
75.2462299811882
 30
0.0
 10
57.87379407659324
 20
76.3655233142418
 30
0.0
 10
59.25449570803526
 20
76.3655233142418
 30
0.0
  0
ENDBLK
  5
49
330
46
100
AcDbEntity
  8
0
100
AcDbBlockEnd
  0
BLOCK
  5
4D
330
4B
100
AcDbEntity
  8
0
100
AcDbBlockBegin
  2
BLOCK_4
 70
     0
 10
0.0
 20
0.0
 30
0.0
  3
BLOCK_4
  1

  0
SPLINE
  5
4F
330
4B
100
AcDbEntity
  8
LAYER_1
 62
     7
100
AcDbSpline
210
0.0
220
0.0
230
1.0
 70
    11
 71
     3
 72
    50
 73
    46
 74
     0
 42
0.0000000001
 43
0.0000000001
 12
1.0
 22
0.0
 32
0.0
 13
1.0
 23
0.0
 33
0.0
 40
0.0
 40
0.0
 40
0.0
 40
0.0
 40
1.0
 40
1.0
 40
1.0
 40
2.0
 40
2.0
 40
2.0
 40
3.0
 40
3.0
 40
3.0
 40
4.0
 40
4.0
 40
4.0
 40
5.0
 40
5.0
 40
5.0
 40
6.0
 40
6.0
 40
6.0
 40
7.0
 40
7.0
 40
7.0
 40
8.0
 40
8.0
 40
8.0
 40
9.0
 40
9.0
 40
9.0
 40
10.0
 40
10.0
 40
10.0
 40
11.0
 40
11.0
 40
11.0
 40
12.0
 40
12.0
 40
12.0
 40
13.0
 40
13.0
 40
13.0
 40
14.0
 40
14.0
 40
14.0
 40
15.0
 40
15.0
 40
15.0
 40
15.0
 10
40.25797730378794
 20
47.21253221041899
 30
0.0
 10
40.25797730378794
 20
47.21253221041899
 30
0.0
 10
40.25797730378794
 20
46.29714443287044
 30
0.0
 10
40.25797730378794
 20
46.29714443287044
 30
0.0
 10
40.25797730378794
 20
46.29714443287044
 30
0.0
 10
38.32468457533257
 20
46.29714443287044
 30
0.0
 10
38.32468457533257
 20
46.29714443287044
 30
0.0
 10
37.62459709319329
 20
46.29714443287044
 30
0.0
 10
37.1227001615533
 20
46.21043165511413
 30
0.0
 10
36.81278489168212
 20
46.03693554404646
 30
0.0
 10
36.50297545514157
 20
45.8572305440911
 30
0.0
 10
36.3480707368713
 20
45.58453332193733
 30
0.0
 10
36.3480707368713
 20
45.20663776647613
 30
0.0
 10
36.3480707368713
 20
44.98971471097463
 30
0.0
 10
36.39149768020783
 20
44.72333221104112
 30
0.0
 10
36.4657926783124
 20
44.40724332223103
 30
0.0
 10
36.5464023984781
 20
44.09743387786432
 30
0.0
 10
36.65788017341185
 20
43.73181498906653
 30
0.0
 10
36.80040239199803
 20
43.32294554472443
 30
0.0
 10
36.80040239199803
 20
43.32294554472443
 30
0.0
 10
41.42288477406867
 20
30.38492638129241
 30
0.0
 10
41.42288477406867
 20
30.38492638129241
 30
0.0
 10
41.42288477406867
 20
30.38492638129241
 30
0.0
 10
46.36138548141036
 20
43.61412832242995
 30
0.0
 10
46.36138548141036
 20
43.61412832242995
 30
0.0
 10
46.47917797840522
 20
43.89913748902529
 30
0.0
 10
46.57827325365486
 20
44.19663498895108
 30
0.0
 10
46.64029158540598
 20
44.49402665554302
 30
0.0
 10
46.70837769478007
 20
44.78524471102606
 30
0.0
 10
46.73938686065563
 20
45.03931526651801
 30
0.0
 10
46.73938686065563
 20
45.2437147109109
 30
0.0
 10
46.73938686065563
 20
45.6465163774773
 30
0.0
 10
46.58448214238535
 20
45.9191430440754
 30
0.0
 10
46.28088159457529
 20
46.06794471070489
 30
0.0
 10
45.97107215803474
 20
46.22281415511073
 30
0.0
 10
45.34517384066941
 20
46.29714443287044
 30
0.0
 10
44.40339830914055
 20
46.29714443287044
 30
0.0
 10
44.40339830914055
 20
46.29714443287044
 30
0.0
 10
42.74897640690392
 20
46.29714443287044
 30
0.0
 10
42.74897640690392
 20
46.29714443287044
 30
0.0
 10
42.74897640690392
 20
46.29714443287044
 30
0.0
 10
42.74897640690392
 20
47.21253221041899
 30
0.0
 10
42.74897640690392
 20
47.21253221041899
 30
0.0
 10
42.74897640690392
 20
47.21253221041899
 30
0.0
 10
40.25797730378794
 20
47.21253221041899
 30
0.0
 10
40.25797730378794
 20
47.21253221041899
 30
0.0
  0
ENDBLK
  5
4E
330
4B
100
AcDbEntity
  8
0
100
AcDbBlockEnd
  0
BLOCK
  5
52
330
50
100
AcDbEntity
  8
0
100
AcDbBlockBegin
  2
BLOCK_5
 70
     0
 10
0.0
 20
0.0
 30
0.0
  3
BLOCK_5
  1

  0
SPLINE
  5
54
330
50
100
AcDbEntity
  8
LAYER_1
 62
     7
100
AcDbSpline
210
0.0
220
0.0
230
1.0
 70
    11
 71
     3
 72
    17
 73
    13
 74
     0
 42
0.0000000001
 43
0.0000000001
 12
1.0
 22
0.0
 32
0.0
 13
1.0
 23
0.0
 33
0.0
 40
0.0
 40
0.0
 40
0.0
 40
0.0
 40
1.0
 40
1.0
 40
1.0
 40
2.0
 40
2.0
 40
2.0
 40
3.0
 40
3.0
 40
3.0
 40
4.0
 40
4.0
 40
4.0
 40
4.0
 10
59.25449570803526
 20
74.86551220350586
 30
0.0
 10
59.8067693050567
 20
74.86551220350586
 30
0.0
 10
60.25447957141244
 20
74.41783720361771
 30
0.0
 10
60.25447957141244
 20
73.86552831486692
 30
0.0
 10
60.25447957141244
 20
73.31321942611615
 30
0.0
 10
59.8067693050567
 20
72.86554442622798
 30
0.0
 10
59.25449570803526
 20
72.86554442622798
 30
0.0
 10
58.70218683323695
 20
72.86554442622798
 30
0.0
 10
58.25447656688122
 20
73.31321942611615
 30
0.0
 10
58.25447656688122
 20
73.86552831486692
 30
0.0
 10
58.25447656688122
 20
74.41783720361771
 30
0.0
 10
58.70218683323695
 20
74.86551220350586
 30
0.0
 10
59.25449570803526
 20
74.86551220350586
 30
0.0
  0
ENDBLK
  5
53
330
50
100
AcDbEntity
  8
0
100
AcDbBlockEnd
  0
ENDSEC
  0
SECTION
  2
ENTITIES
  0
INSERT
  5
42
330
1F
100
AcDbEntity
  8
LAYER_1
100
AcDbBlockReference
  2
BLOCK_2
 10
0.0
 20
0.0
 30
0.0
  0
INSERT
  5
47
330
1F
100
AcDbEntity
  8
LAYER_1
100
AcDbBlockReference
  2
BLOCK_3
 10
0.0
 20
0.0
 30
0.0
  0
INSERT
  5
4C
330
1F
100
AcDbEntity
  8
LAYER_1
100
AcDbBlockReference
  2
BLOCK_4
 10
0.0
 20
0.0
 30
0.0
  0
INSERT
  5
51
330
1F
100
AcDbEntity
  8
LAYER_1
100
AcDbBlockReference
  2
BLOCK_5
 10
0.0
 20
0.0
 30
0.0
  0
ENDSEC
  0
SECTION
  2
OBJECTS
  0
DICTIONARY
  5
C
330
0
100
AcDbDictionary
  3
ACAD_GROUP
350
D
  3
ACAD_LAYOUT
350
1A
  3
ACAD_MATERIAL
350
3B
  3
ACAD_MLEADERSTYLE
350
57
  3
ACAD_MLINESTYLE
350
17
  3
ACAD_PLOTSETTINGS
350
19
  3
ACAD_VISUALSTYLE
350
2A
  3
ACDBVARIABLEDICTIONARY
350
55
1001
ACAD
1000
TREAT_AS_HARD
1070
     0
  0
DICTIONARY
  5
D
102
{ACAD_REACTORS
330
C
102
}
330
C
100
AcDbDictionary
1001
ACAD
1000
TREAT_AS_HARD
1070
     0
  0
DICTIONARY
  5
1A
102
{ACAD_REACTORS
330
C
102
}
330
C
100
AcDbDictionary
1001
ACAD
1000
TREAT_AS_HARD
1070
     0
  0
DICTIONARY
  5
3B
102
{ACAD_REACTORS
330
C
102
}
330
C
100
AcDbDictionary
  3
BYBLOCK
350
3D
  3
BYLAYER
350
3C
  3
GLOBAL
350
3E
1001
ACAD
1000
TREAT_AS_HARD
1070
     0
  0
DICTIONARY
  5
57
102
{ACAD_REACTORS
330
C
102
}
330
C
100
AcDbDictionary
1001
ACAD
1000
TREAT_AS_HARD
1070
     0
  0
DICTIONARY
  5
17
102
{ACAD_REACTORS
330
C
102
}
330
C
100
AcDbDictionary
  3
STANDARD
350
18
1001
ACAD
1000
TREAT_AS_HARD
1070
     0
  0
DICTIONARY
  5
19
102
{ACAD_REACTORS
330
C
102
}
330
C
100
AcDbDictionary
1001
ACAD
1000
TREAT_AS_HARD
1070
     0
  0
DICTIONARY
  5
2A
102
{ACAD_REACTORS
330
C
102
}
330
C
100
AcDbDictionary
  3
2DWIREFRAME
350
2F
  3
3DWIREFRAME
350
30
  3
3D_HIDDEN
350
31
  3
BASIC
350
32
  3
BRIGHTEN
350
36
  3
COLORCHANGE
350
3A
  3
CONCEPTUAL
350
34
  3
DIM
350
35
  3
FACEPATTERN
350
39
  3
FLAT
350
2B
  3
FLATWITHEDGES
350
2C
  3
GOURAUD
350
2D
  3
GOURAUDWITHEDGES
350
2E
  3
LINEPATTERN
350
38
  3
REALISTIC
350
33
  3
THICKEN
350
37
1001
ACAD
1000
TREAT_AS_HARD
1070
     0
  0
DICTIONARY
  5
55
102
{ACAD_REACTORS
330
C
102
}
330
C
100
AcDbDictionary
  3
DIMASSOC
350
58
  3
HIDETEXT
350
59
1001
ACAD
1000
TREAT_AS_HARD
1070
     0
  0
MATERIAL
  5
3D
102
{ACAD_REACTORS
330
3B
102
}
102
{ACAD_XDICTIONARY
360
5C
102
}
330
3B
100
AcDbMaterial
  1
ByBlock
  0
MATERIAL
  5
3C
102
{ACAD_REACTORS
330
3B
102
}
102
{ACAD_XDICTIONARY
360
5A
102
}
330
3B
100
AcDbMaterial
  1
ByLayer
  0
MATERIAL
  5
3E
102
{ACAD_REACTORS
330
3B
102
}
102
{ACAD_XDICTIONARY
360
5E
102
}
330
3B
100
AcDbMaterial
  1
Global
  0
MLINESTYLE
  5
18
102
{ACAD_REACTORS
330
17
102
}
330
17
100
AcDbMlineStyle
  2
Standard
 70
     0
  3

 62
   256
 51
90.0
 52
90.0
 71
     2
 49
0.5
 62
   256
  6
BYLAYER
 49
-0.5
 62
   256
  6
BYLAYER
  0
ACAD_PROXY_OBJECT
  5
2F
102
{ACAD_REACTORS
330
2A
102
}
330
2A
100
AcDbZombieObject
 90
      499
 91
      501
 93
      436
310
42CC9915DA5C99599C985B595049028333333333333E3BF0000000000000FB0107901411070040501600405405064090741402480A0340
1001
ACAD
1000
AcDbSavedByObjectVersion
1070
     0
  0
ACAD_PROXY_OBJECT
  5
30
102
{ACAD_REACTORS
330
2A
102
}
330
2A
100
AcDbZombieObject
 90
      499
 91
      501
 93
      436
310
42CCD915DA5C99599C985B595059028333333333333E3BF0000000000000FB0107901411070040501600405405064090741402480A0340
1001
ACAD
1000
AcDbSavedByObjectVersion
1070
     0
  0
ACAD_PROXY_OBJECT
  5
31
102
{ACAD_REACTORS
330
2A
102
}
330
2A
100
AcDbZombieObject
 90
      499
 91
      501
 93
      500
310
424CD108121A5919195B90640502408333333333333E3BF0000000000000FB01079024090700405020000000000001110200405405064090740C02480A0340
1001
ACAD
1000
AcDbSavedByObjectVersion
1070
     0
  0
ACAD_PROXY_OBJECT
  5
32
102
{ACAD_REACTORS
330
2A
102
}
330
2A
100
AcDbZombieObject
 90
      499
 91
      501
 93
      388
310
4150985CDA58D07406404333333333333E3BF0000000000000FB0107A41107004050150841D405064090741402480A0350
1001
ACAD
1000
AcDbSavedByObjectVersion
1070
     0
  0
ACAD_PROXY_OBJECT
  5
36
102
{ACAD_REACTORS
330
2A
102
}
330
2A
100
AcDbZombieObject
 90
      499
 91
      501
 93
      428
310
42109C9A59DA1D195B90C409028333333333333E3BF0000000000000FB010790141107004050150841D405064090741402480A029950
1001
ACAD
1000
AcDbSavedByObjectVersion
1070
     0
  0
ACAD_PROXY_OBJECT
  5
3A
102
{ACAD_REACTORS
330
2A
102
}
330
2A
100
AcDbZombieObject
 90
      499
 91
      501
 93
      452
310
42D0DBDB1BDC90DA185B99D95104090240C333333333333E3BF0000000000000FB0108901411070040501508421405064090741402480A0350
1001
ACAD
1000
AcDbSavedByObjectVersion
1070
     0
  0
ACAD_PROXY_OBJECT
  5
34
102
{ACAD_REACTORS
330
2A
102
}
330
2A
100
AcDbZombieObject
 90
      499
 91
      501
 93
      500
310
4290DBDB98D95C1D1D585B10940D028333333333333E3BF0000000000000FB0107902409070040501000000000000111010841D405064090740C02480A0340
1001
ACAD
1000
AcDbSavedByObjectVersion
1070
     0
  0
ACAD_PROXY_OBJECT
  5
35
102
{ACAD_REACTORS
330
2A
102
}
330
2A
100
AcDbZombieObject
 90
      499
 91
      501
 93
      412
310
40D11A5B50B409028333333333333E3BF0000000000000FB010790141107004050150841D405064090741402480A02677FFFFFD0
1001
ACAD
1000
AcDbSavedByObjectVersion
1070
     0
  0
ACAD_PROXY_OBJECT
  5
39
102
{ACAD_REACTORS
330
2A
102
}
330
2A
100
AcDbZombieObject
 90
      499
 91
      501
 93
      444
310
42D19858D95C185D1D195C9B90F409028333333333333E3BF0000000000000FB010790141107004050150841D405064090741402480A0350
1001
ACAD
1000
AcDbSavedByObjectVersion
1070
     0
  0
ACAD_PROXY_OBJECT
  5
2B
102
{ACAD_REACTORS
330
2A
102
}
330
2A
100
AcDbZombieObject
 90
      499
 91
      501
 93
      388
310
41119B185D240901404333333333333E3BF0000000000000F9010740A41107004050150841D405064090741402480A1B50
1001
ACAD
1000
AcDbSavedByObjectVersion
1070
     0
  0
ACAD_PROXY_OBJECT
  5
2C
102
{ACAD_REACTORS
330
2A
102
}
330
2A
100
AcDbZombieObject
 90
      499
 91
      501
 93
      476
310
43519B185D15DA5D1A115919D95CD0140901404333333333333E3BF0000000000000F9010740901411070040501600405405064090741402480A1B50
1001
ACAD
1000
AcDbSavedByObjectVersion
1070
     0
  0
ACAD_PROXY_OBJECT
  5
2D
102
{ACAD_REACTORS
330
2A
102
}
330
2A
100
AcDbZombieObject
 90
      499
 91
      501
 93
      412
310
41D1DBDD5C985D5910240902404333333333333E3BF0000000000000F9010740A411070040501641D405064090741402480A1B50
1001
ACAD
1000
AcDbSavedByObjectVersion
1070
     0
  0
ACAD_PROXY_OBJECT
  5
2E
102
{ACAD_REACTORS
330
2A
102
}
330
2A
100
AcDbZombieObject
 90
      499
 91
      501
 93
      500
310
4411DBDD5C985D5915DA5D1A115919D95CD0340902404333333333333E3BF0000000000000F9010740901411070040501600405405064090741402480A1B50
1001
ACAD
1000
AcDbSavedByObjectVersion
1070
     0
  0
ACAD_PROXY_OBJECT
  5
38
102
{ACAD_REACTORS
330
2A
102
}
330
2A
100
AcDbZombieObject
 90
      499
 91
      501
 93
      444
310
42D31A5B995C185D1D195C9B90E409028333333333333E3BF0000000000000FB010790141107004050750841D405064090741402483A0350
1001
ACAD
1000
AcDbSavedByObjectVersion
1070
     0
  0
ACAD_PROXY_OBJECT
  5
33
102
{ACAD_REACTORS
330
2A
102
}
330
2A
100
AcDbZombieObject
 90
      499
 91
      501
 93
      420
310
425499585B1A5CDD1A58D08409028333333333333E3BF0000000000000FB01079019070040501508421405064090741402480A1B40
1001
ACAD
1000
AcDbSavedByObjectVersion
1070
     0
  0
ACAD_PROXY_OBJECT
  5
37
102
{ACAD_REACTORS
330
2A
102
}
330
2A
100
AcDbZombieObject
 90
      499
 91
      501
 93
      412
310
41D51A1A58DAD95B90D409028333333333333E3BF0000000000000FB010790141107004050150C41D405064090741402480A0350
1001
ACAD
1000
AcDbSavedByObjectVersion
1070
     0
  0
DICTIONARYVAR
  5
58
102
{ACAD_REACTORS
330
55
102
}
330
55
100
DictionaryVariables
280
     0
  1
2
  0
DICTIONARYVAR
  5
59
102
{ACAD_REACTORS
330
55
102
}
330
55
100
DictionaryVariables
280
     0
  1
1
  0
DICTIONARY
  5
5C
330
3D
100
AcDbDictionary
  3
ACAD_XREC_ROUNDTRIP
360
5D
1001
ACAD
1000
TREAT_AS_HARD
1070
     1
  0
DICTIONARY
  5
5A
330
3C
100
AcDbDictionary
  3
ACAD_XREC_ROUNDTRIP
360
5B
1001
ACAD
1000
TREAT_AS_HARD
1070
     1
  0
DICTIONARY
  5
5E
330
3E
100
AcDbDictionary
  3
ACAD_XREC_ROUNDTRIP
360
5F
1001
ACAD
1000
TREAT_AS_HARD
1070
     1
  0
XRECORD
  5
5D
102
{ACAD_REACTORS
330
5C
102
}
330
5C
100
AcDbXrecord
102
MATERIAL
148
0.0
149
0.0
149
0.0
 93
        0
 94
      127
282
     0
 72
     1
 77
     1
171
     1
175
     1
179
     1
273
     0
  0
XRECORD
  5
5B
102
{ACAD_REACTORS
330
5A
102
}
330
5A
100
AcDbXrecord
102
MATERIAL
148
0.0
149
0.0
149
0.0
 93
        0
 94
      127
282
     0
 72
     1
 77
     1
171
     1
175
     1
179
     1
273
     0
  0
XRECORD
  5
5F
102
{ACAD_REACTORS
330
5E
102
}
330
5E
100
AcDbXrecord
102
MATERIAL
148
0.0
149
0.0
149
0.0
 93
        0
 94
      127
282
     0
 72
     1
 77
     1
171
     1
175
     1
179
     1
273
     0
  0
ENDSEC
  0
EOF
